<svg xmlns="http://www.w3.org/2000/svg" viewBox="0 0 457.48 248.05"><defs><style>.a{fill:none;stroke:#fff;stroke-linecap:round;stroke-linejoin:round;stroke-width:7.48px;}</style></defs><path class="a" d="M123.38,368.41s1.44-56.78-9.63-73.62l-28.86-20.2" transform="translate(-27.26 -131.98)"/><path class="a" d="M113.75,294.79l25.51-46.67-25-23.57s14-14,54.36-8.18c0,0,11.55,10.1,14.44,15.4a77.15,77.15,0,0,1,27.42,3.84L239.81,251s-10.58,15.53-22.13,17.63c0,0-26-13.3-33.2-14.26l-18.76-6.74L150.8,246.2l-11.54,1.92" transform="translate(-27.26 -131.98)"/><path class="a" d="M227.89,263.65l16.74,5,7.21-13.76-12-4.35" transform="translate(-27.26 -131.98)"/><path class="a" d="M244.63,268.64s5.43,11.72,15.7,11.24c0,0,10.28-2.28,9.31-11.24,0,0,1-3.85-4.33-9.06,0,0-3.22-4.68-7.86-4.7h-5.61" transform="translate(-27.26 -131.98)"/><path class="a" d="M168.6,215a30.25,30.25,0,0,0-15.87-10.15s-32.24,2.41-39-4.33V188l-9.59-5.77s-16.81,23.66,0,32.76h26.92" transform="translate(-27.26 -131.98)"/><path class="a" d="M113.75,188h9.69s-9.08-14.43,0-23.58c0,0,6.19-13.47,15.82-17.32,0,0,23.09-5.29,29.34,13.48,0,0,4.82,38.53-4.33,38h-12l-19.6-6.76L123.44,188" transform="translate(-27.26 -131.98)"/><path class="a" d="M123.44,164.4l9.21,1s11.24,2.4,9.16-4.81l-9.16-10.11" transform="translate(-27.26 -131.98)"/><path class="a" d="M159.94,182.21s-1.92-9.72-9.71-4.24c0,0-2.89,6.35.86,10.4l4.91,3.75,2.89-4" transform="translate(-27.26 -131.98)"/><path class="a" d="M154.55,150.45s-1.63,10.78,14,11.64" transform="translate(-27.26 -131.98)"/><path class="a" d="M99.13,188.37S53.23,198.47,49.48,236l-.87,32.64,22.52-33.22s11-28.87,25.69-31.18" transform="translate(-27.26 -131.98)"/><path class="a" d="M48.61,268.64l-9.24,34.91,70.73,18.77L116.74,303" transform="translate(-27.26 -131.98)"/><path class="a" d="M57.85,259.38l25.4,9.26L60.73,252.16l25.12,2.89L68,239.46l24.25,4.62L73.87,228.5l25.26,6.05-17.9-16.16,26.85,5.19L89,209.73l22.22,5.48-25.69-2.6,17,15.89-24.53-4.63,17.32,15.59-21.51-4,16.31,15-25.69-3.75,19.63,14.43s-31.18,1.45-24,30.89" transform="translate(-27.26 -131.98)"/><path class="a" d="M78.06,292a31.6,31.6,0,0,0-6.49-27.62" transform="translate(-27.26 -131.98)"/><path class="a" d="M84.55,274.39v-5.75" transform="translate(-27.26 -131.98)"/><path class="a" d="M64.2,311.25s-1.73,39.64,20.35,56" transform="translate(-27.26 -131.98)"/><path class="a" d="M57.85,363.42s8.48-9.28,11.31-18.79" transform="translate(-27.26 -131.98)"/><path class="a" d="M40.82,305.39s-4.62,7.8-9.82,17.9" transform="translate(-27.26 -131.98)"/><path class="a" d="M152.54,198.87l-.29,5.77" transform="translate(-27.26 -131.98)"/><path class="a" d="M284.69,257.4s-18.56,7.12-10.31,18.67c0,0,4.54,8.66,12.38,5.36l7.76-9.07Z" transform="translate(-27.26 -131.98)"/><path class="a" d="M284.69,257.4l9.83-5.66,8.32,18.05-8.32,3.8" transform="translate(-27.26 -131.98)"/><path class="a" d="M294.52,251.74s15.33-21,35.54-21l11.55-1.23" transform="translate(-27.26 -131.98)"/><path class="a" d="M361.4,211.32s3.3-13.2,20.21-9.48c0,0,22.27,4.12,35.05,19.17l-31.75,9.69s-19.38,14.44-43.3,21l-23.55,18.05H302.84" transform="translate(-27.26 -131.98)"/><path class="a" d="M384.91,230.7s5.36,34.89,10.72,45.37c0,0,25.57,4.35,37.94-6.28" transform="translate(-27.26 -131.98)"/><path class="a" d="M401.4,277l7.84,39.12h53.61a42.79,42.79,0,0,0,4.54-30.1" transform="translate(-27.26 -131.98)"/><path class="a" d="M395.63,276.07s-12.37,64.33-5.77,94" transform="translate(-27.26 -131.98)"/><path class="a" d="M440.58,316.07s-16.91,32.17-12,54" transform="translate(-27.26 -131.98)"/><path class="a" d="M433.57,332.5s6.19,18.22,7,37.6" transform="translate(-27.26 -131.98)"/><path class="a" d="M468.35,303.54S469,327.62,481,376.29" transform="translate(-27.26 -131.98)"/><path class="a" d="M330.06,230.7s22.27-18.14,31.34-19.38" transform="translate(-27.26 -131.98)"/><path class="a" d="M370.47,200.19s8-12,21.31-9.49c0,0,17.05,9.9,25.71,9.49,0,0,14.27-2.07,10.22-19.39l17-3.29-4.13,33.4-22.68,9.48" transform="translate(-27.26 -131.98)"/><path class="a" d="M444.71,188.64s14.57-2.89,30,41.65c0,0,10.18,5.77,0,36.71l-6.32,18.55-7.15-4.94s3.3-43.31-4.95-54l-14.51-17.73" transform="translate(-27.26 -131.98)"/><path class="a" d="M417.9,220.39l30.65-4.75-27.76,13,34.64-2.06-31.34,15.26,35.8-4.76-33.33,14.66,33.33,2.88-26.32,9.08,26.32.82s-24.67,7.43-15.18,31.35" transform="translate(-27.26 -131.98)"/><path class="a" d="M444.71,208.85,417.9,223.69l30.7-3.3-25.69,16.69,37-5.3-34.67,13,34.67,1.44-31.21,9.54,31.21,4.32-26,8.57s22.81-3.09,23.38,27.23" transform="translate(-27.26 -131.98)"/><path class="a" d="M428.11,181.26s-15.06-6.64-20.52-8.95c0,0-9.51,3.75-12.68,8.37l-.58,7.92,1.16,3.05" transform="translate(-27.26 -131.98)"/><path class="a" d="M407.59,172.31S402.41,168,402.41,153c0,0,.29-7.8-13-13.57,0,0-11-9.82-27.13,2.6,0,0-17.32,14.72-4.33,30.31,0,0,16.45,4.91,15.59,12.7l-3.08,6.64,3.65,3.46S388.85,187.32,390,182l7.51-4.47" transform="translate(-27.26 -131.98)"/><path class="a" d="M375.44,135.93s-1.84,11,4.92,12.71l10.22-7.22" transform="translate(-27.26 -131.98)"/><path class="a" d="M353.13,154.12s15.8,4.33,3.38,14.44" transform="translate(-27.26 -131.98)"/><path class="a" d="M375.21,168.56s3.75-7.51,7.68,0v10.1L380.36,183l-5.15-4.33" transform="translate(-27.26 -131.98)"/></svg>