<svg xmlns="http://www.w3.org/2000/svg" viewBox="0 0 455.32 269.24">
    <defs>
        <style>
            .a {
                fill: #fff;
                stroke: #fff;
                stroke-linecap: round;
                stroke-linejoin: round;
                stroke-width: 5.32px;
                fill-rule: evenodd;
            }
        </style>
    </defs>
    <path class="a"
        d="M240.47,132.53s-.7,12.84,6.87,13.68c0,0,8.21,4.63,6.32,12l14.52-8.63S252,160.31,253.87,165.79c0,0-4.91-5.27-13.4,6.73L216.2,189.15l-18.53,16.63.84,7.15s-.42-2.52-4.42-5.47c0,0-5.47,2.95-4.84,7.16,0,0-3.78-2.32-11.15-2.53l6.94-2.94,9.27-7.58s5.25-2.32-.22-8.63c0,0,3.37,2.95,11.58-1.26l14.52-10.53s4.85-2.11,1.48-9.05c0,0,1.89,4.42,9.05.84l12.62-9.89s6.32-5.05,3.59-10.73l-6.46-4.85s-1.33-1.26-2-5.89Z"
        transform="translate(-28.34 -121.38)" />
    <path class="a"
        d="M267.21,247.8c5.05,5.67,12.3-.34,12.3-.34l18.94-20.21c1.89-2.74-1.68-7.78-1.68-7.78,3.79,1.89,9.68,0,9.68,0l16.63-21.05c2.73-7.37-6.95-14.74-6.95-14.74,2.95-1.26,6.74,1.48,6.74,1.48l4.63,8.62c5.68,12,19.15,15.79,19.15,15.79l-2.94,1.68-10.95-1.89-6.11-6.52c-4.42,13.47-22.1,25.47-22.1,25.47-.62,3.57-6.73,8-6.73,8-8.21,4-13.89,20.21-13.89,20.21l-1.06-4.63-11.78,9.89,13.05,12.84c8.84,14.73,12.63,13.27,12.63,13.27,1.47,7.48,10.52,17.68,10.52,17.68l1.68-2.11,1.48-10.73c3.37,3.79,2.94,12.63,2.94,12.63-1.05,15.57,5.69,21.25,5.69,21.25a67.68,67.68,0,0,0,4.84-7.36c-1.48,6.94,2.94,20.83,2.94,20.83-4.2-3.36-29.88-6.73-29.88-6.73-5.27-1.68-8.42,3.58-8.42,3.58l-1.48-4.21c-2.73-4.63-21.67-11.37-21.67-11.37-12.84-2.73-22.94,4.84-22.94,4.84-6.32,5.69-4.42,11.58-4.42,11.58,1,13.68,17.46,13.26,17.46,13.26l17.69,2.31c8,1.9,12.83-9.89,12.83-9.89l.43,9.47c.21,4.63,9.05,6.32,9.05,6.32,5.68,4.21,13.46,5.89,13.46,5.89,8.84-.63,8.42,1.69,8.42,1.69,20.42,14.73,29.26,9.05,29.26,9.05,4.21-4.21,31.78-6.74,31.78-6.74,11.58-.63,24-6.52,24-6.52l10.94-1.06,17.26-12.63c-2.95,2.32-5.47,12.21-5.47,12.21-13.26,10.11-35.66,13.05-35.66,13.05-21.94,1.69-32.62,8.42-32.62,8.42-8.63,3-28,1.47-28,1.47-46.09-26.09-53.5-20-53.5-20-13.35,4.42-53.88,9.47-53.88,9.47-16.42-.21-36,9.68-36,9.68-17,6.53-25.67,4.42-25.67,4.42L137.1,378c-11.37-5.26-35.57-10.73-35.57-10.73-16-5.9-18.1-19.58-18.1-19.58,2.1-2.73,0-12,0-12l11.11,15.26C98.32,360.17,116,364.8,116,364.8c4,4,26.1,6.94,26.1,6.94,4.21,5.69,21.89,9.48,21.89,9.48l24.21-9.06c5.26-1.68,5.05.22,5.05.22,12-2.74,25.05-6.95,25.05-6.95-1.69-11.79,3.37-12,3.37-12-1.06,9.47,5.26,9.89,5.26,9.89C255.34,370.48,265,360,265,360l-17.89-5.27c-20.42-4.2-17.26-17.25-17.26-17.25-12.42,1.26-11.57,9.89-11.57,9.89l-4.21-5.05c-3.46-3.26-35.4,2.33-37.56,2.71l-.12,0,.12,0c7.68-1.44,8.51-21.24,8.51-21.24,4.42,1.69,3.37,10.95,3.37,10.95l5.68-10.52,1.27-6.95c3.36-17.26,6.52-16.63,6.52-16.63l.42,12.21c4.63-2.52,14.52-17.26,14.52-17.26,4.42,1.05,19.58-14.94,19.58-14.94L253,267l15.36-14.1c1.29-2-.64-4.53-1.14-5.13l-.12-.13Zm-1.58,19.72s29.64,32,36.88,45.46l14.14,16.5,1.18,2.86s-10.1-4.54-16.5-3.2l-10.94-1s-14-8.92-26.78-10.61c0,0-17.34-4.37-32.16,14l-10.78,5.05s-26.94-2-31.31.51c0,0,12.46-20.54,19.7-23.57l5.55-.85s14.82-18,21.22-21.38l10.61-9.09,14-12.3Z"
        transform="translate(-28.34 -121.38)" />
    <path class="a"
        d="M146.7,239.57s8.42,6.73,32.27,12.91c0,0,14.31,5.89,18.24,10.38,0,0-14-7.58-17.68-6.46,0,0-24.34-8.13-26.59-9.82Z"
        transform="translate(-28.34 -121.38)" />
    <path class="a" d="M143.12,256.4s10.81-.14,38.45,16.14l18.94,11.08s-15.71-7.85-18.52-7l-13.61-9.12Z"
        transform="translate(-28.34 -121.38)" />
    <path class="a" d="M97.92,306.41s49.17-37,98.51-11.62l2.52,2s-29.12-12.13-55.9-4.89l-38.17,11.74Z"
        transform="translate(-28.34 -121.38)" />
    <path class="a" d="M74.77,323.59s1.68,4.54,2.52,6.57l1.85,3.36L81,332l-.34-2.87Z"
        transform="translate(-28.34 -121.38)" />
    <path class="a" d="M314.79,287.89s63.11-16.76,99.85,26.77l3.06,3.79s-25.76-18.85-35-20.71l-19.2-7.57-24.42-2.36Z"
        transform="translate(-28.34 -121.38)" />
    <path class="a"
        d="M314,278a16.72,16.72,0,0,1,13.31-8.93l5.72-.67s27.28-12.29,41.93-13.64l3-1.35-1,3.71s-21.72,3.7-41.76,13.47l-2.69,2s-2-1.85-8.42.67Z"
        transform="translate(-28.34 -121.38)" />
    <path class="a"
        d="M319.87,257.6s5.05-4.71,17.17-7.24l12.8-2.52,21.05-6.91.34,2.53a91.37,91.37,0,0,1-24.93,6.9s-15,2.7-16.83,4.21l-5.9,3.37Z"
        transform="translate(-28.34 -121.38)" />
    <path class="a" d="M436.39,335.66l-5.22,7.57s-2,2.7.84,3l4.38-3.53,2.35-5.22V335Z"
        transform="translate(-28.34 -121.38)" />
    <path class="a" d="M241.67,152.79s1,6.23-1,8.43,5.73-1.69,5.39-4.38l-1-3.54Z"
        transform="translate(-28.34 -121.38)" />
    <path class="a" d="M289,150.27s2.35,6.06-7.41,15.16l1,2.18s9.94-6.06,9.43-12.79a5,5,0,0,0-.68-4Z"
        transform="translate(-28.34 -121.38)" />
    <path class="a" d="M313.23,154s3.21,7.74-14,24.75l1.18,1.68,6.74-6.57s9.42-9.42,8.58-15Z"
        transform="translate(-28.34 -121.38)" />
    <path class="a" d="M317.61,190s1.69,4.88-7.74,15.66l.67,2.52,5.56-4.88s5.39-5.89,4.21-9.43Z"
        transform="translate(-28.34 -121.38)" />
    <path class="a" d="M328.05,187.82l3.88-1-2.19,4.38Z" transform="translate(-28.34 -121.38)" />
    <path class="a"
        d="M31,293.22s30.73-17.68,39.57-40.41c0,0,14.73-27.36,56.41-50.52,0,0,26.52-12.63,32-8.42,0,0,14.31-12.2,23.15-16.41l28.63-19.37S196,136.2,210.33,128.2c0,0,12.2-4.21,21.89,3,0,0,7.15-21.05,41.67,9.26,0,0,8.84-14.31,26.52-5.89l10.94,10.1s13.9,2.53,14.74,13l21.05,18.94,19.78,17.26s65.67,18.53,90.51,88.4L481,308l-9.68-1.68L457,294.48s-6.74-8-12.63,17.68c0,0,7.15-37-7.58-47.14,0,0,2.95-9.69-13.47-24,0,0-18.75-27.36-32.11-13.05,0,0,22.43-13.89-28.09-28.21,0,0-19.78-21.88-23.57-20.2,0,0-6.74-12.63-15.15-16,0,0,1.26,8.84-26.52,31.58,0,0-21.47,24.41-29.47,24,0,0-18.52,19.78-34.94,28.62a40.94,40.94,0,0,1-.84,18.95l-3.79-6.14-2.53-15.75s5.05.84,9.68-7.16c0,0,20.45-5.05,25.8-23.15,0,0,28.51-11.37,28.08-24.42,0,0,12.21-.84,29.05-26.52,0,0,3.37-7.15-2.52-10.52,0,0-1.69-6.73-13.05-2.53,0,0,2.52-15.57-18.95-10.1,0,0,21.47,3.79,12.21,22.73l-12.21,11.37.85,6.31-5.05-3.36s-26.95,16-23.58,23.57l-5.47.42s-25.26,12.21-25.26,18.94l2.11,5.89-7.16-3.36-1.26,6.31s-3-8.84-15.58-8.42c0,0,6.74,2.95,21.05-8,0,0,10.94-8.41,7.16-14.73,0,0,3.71,5.33,13.82-.56,0,0,19.18-10.66,15.76-19.36,0,0,1.64,2.8,10.34-1.41l17.68-12.06s8.13-9,2.8-16c0,0-3.65-7.86-20.2-2,0,0-21.89-21.33-26.66-18.53,0,0-13.75-3.36-9,16.28l-.85,3.09s-5.33-1.69-5.61-11.79c0,0-12.35-9.54-18.24-.28,0,0-7,5.33,3.37,18.52l2.72-.26s-8.17-15-1.2-18.4c0,0,1.08,11.79,6.37,15l8.67-1.81s-20.93,9.38-16.6,17.32L211.2,164s-28.63,11.9-22,20.68l-5.89-1s-24.78,11.47-21.17,16.6c0,0-7-5.72-29.48,8.31,0,0-14,6-6.6,11.5l6,6.32s-14.31-10.38-14.88-7.16c0,0-6-.7-23,18.24,0,0-11.31,5.06-13.69,17.4,0,0-12.07,7.3-13.33,21.47l-.42,12.21,2.52,13.33.84,2.81s-5.89-3.51-6-12.07c0,0,.28-8.42-3-10.53,0,0-3.64-3.65-9.4,2.11l-16.27,9.82Z"
        transform="translate(-28.34 -121.38)" />
</svg>
