<?xml version="1.0" encoding="utf-8"?>
<!-- Generator: Adobe Illustrator 25.2.3, SVG Export Plug-In . SVG Version: 6.00 Build 0)  -->
<svg version="1.1" id="Layer_1" xmlns="http://www.w3.org/2000/svg" xmlns:xlink="http://www.w3.org/1999/xlink" x="0px" y="0px"
	 viewBox="0 0 512 512" style="enable-background:new 0 0 512 512;" xml:space="preserve">
<style type="text/css">
	.st0{fill-rule:evenodd;clip-rule:evenodd;fill:#FFFFFF;}
	.st1{clip-path:url(#SVGID_1_);fill-rule:evenodd;clip-rule:evenodd;fill:#ED2027;}
	.st2{clip-path:url(#SVGID_2_);fill-rule:evenodd;clip-rule:evenodd;fill:#0079BF;}
	.st3{fill-rule:evenodd;clip-rule:evenodd;}
</style>
<path class="st0" d="M442.16,382.79l-88.77,21.64l-64.53-22.57l-18.71-5.94c0,0-17.46-7.25-18.51-7.29
	c-1.05-0.03-17.12-4.1-17.12-4.1L227.33,349l4.41-12.4l12.28-4.58l9.96-2.85l13.87,2.66l13.78,5.35l8.31,7.88l10.31,1.2l13.03,0.38
	l14.65,2.68l-1.18-5.88l-6.94-8.52l-15.94-23.57l-30.72-40.81l-5.86-7.26l12.62-8.74l26.13-24.48l21.32-21.39l11.24-15.39
	l-2.21-8.97l-4.13-4.84l-3.97-2.41l-7.06-3.17l7.63-15.95l3.09-8.94l-0.12-4.99l-2.46-3.17l-2.8-2.64l-2.87-1.77l-5.37-0.72
	l-3.15,0.13l-7.58,5.28l-1.28-2.28l-6.99-7.06l-10.52-6l-9.47,5.18l-8.23,4.81l-17.2,11.29l-3.93-7.87l-5.18-7.45l-3.77-1.8
	l-5.97,0.39l-5.59,2.87l-18.9,7.98l-5.37-8.58l-1.17-13.74l7.06-6.87l10.38-0.59l10.18,4.68l6.21-6.78l12.56-0.57l9.84,6.55
	l13.97,9.12l4.22,3.22l10.15-5.77l13.3-2.57l13.15,6.86l6.15,6.52l12.35,6.43l6.01,11.1l17.07,17.55l18.66,18.92l28.38,15.5
	l17.96,14.18l34.12,29.98l18.81,36.05l17.22,25.89l15.18,12.93l1.94,2.15c0,0-15.64,60.44-32.34,77.92L442.16,382.79z"/>
<g>
	<defs>
		<path id="SVGID_5_" d="M442.16,382.79l-88.77,21.64l-64.53-22.57l-18.71-5.94c0,0-17.46-7.25-18.51-7.29
			c-1.05-0.03-17.12-4.1-17.12-4.1L227.33,349l4.41-12.4l12.28-4.58l9.96-2.85l13.87,2.66l13.78,5.35l8.31,7.88l10.31,1.2
			l13.03,0.38l14.65,2.68l-1.18-5.88l-6.94-8.52l-15.94-23.57l-30.72-40.81l-5.86-7.26l12.62-8.74l26.13-24.48l21.32-21.39
			l11.24-15.39l-2.21-8.97l-4.13-4.84l-3.97-2.41l-7.06-3.17l7.63-15.95l3.09-8.94l-0.12-4.99l-2.46-3.17l-2.8-2.64l-2.87-1.77
			l-5.37-0.72l-3.15,0.13l-7.58,5.28l-1.28-2.28l-6.99-7.06l-10.52-6l-9.47,5.18l-8.23,4.81l-17.2,11.29l-3.93-7.87l-5.18-7.45
			l-3.77-1.8l-5.97,0.39l-5.59,2.87l-18.9,7.98l-5.37-8.58l-1.17-13.74l7.06-6.87l10.38-0.59l10.18,4.68l6.21-6.78l12.56-0.57
			l9.84,6.55l13.97,9.12l4.22,3.22l10.15-5.77l13.3-2.57l13.15,6.86l6.15,6.52l12.35,6.43l6.01,11.1l17.07,17.55l18.66,18.92
			l28.38,15.5l17.96,14.18l34.12,29.98l18.81,36.05l17.22,25.89l15.18,12.93l1.94,2.15c0,0-15.64,60.44-32.34,77.92L442.16,382.79z"
			/>
	</defs>
	<clipPath id="SVGID_1_">
		<use xlink:href="#SVGID_5_"  style="overflow:visible;"/>
	</clipPath>
	<path class="st1" d="M361.11,420.44c-0.66-0.76-0.6-1.68-0.22-3.34c0.45-1.97,0.2-5.52,0.47-6.81c1.11-5.29,0.66-10.09,1.78-15.45
		c0.47-2.23,0.95-4.82,0.52-7.24c-0.17-0.94,0.9-2.3,0.74-3.35c-0.28-1.83-0.05-2.6,0.43-3.54c0.49-0.98-0.71-2.14-0.9-3.72
		c-0.11-0.97,0.63-4.16,0.55-5.17c-0.07-0.92,0.39-2.35,0.33-3.27c-0.18-2.88,0.01-5.8-0.16-8.66c-0.18-2.95,0.79-6.94,0.04-9.71
		c-2.29-8.45-3.1-13.66-4.81-19.69c-0.9-3.16-2.28-5.67-3.55-10.08c-0.27-0.95-5.8-7.43-6.33-8.25c-0.29-0.44-0.62-2.35-0.88-2.8
		c-1.06-1.88-3.95-2.9-4.87-4.31c-1-1.55-0.04-3.45-1.63-4.37c-1.58-0.92,0.79-3.41-0.92-4.41c-2.15-1.25-3.51-3.14-5.71-4.43
		c-2.34-1.37,1.3-2.17,1.68-2.14c1.09,0.07-3.29-3.06-3.64-3.26c-1.71-1-3.24-3.68-4.76-4.57c-0.54-0.32,0.09-1.78-0.09-2.45
		c-0.18-0.71-1.6-3.79-1.6-3.79s1.94,2.74,2.47,1.83c0.23-0.4,0.52-3.54-0.05-3.87c-3.15-1.84-5.76-4.38-9.11-6.34
		c-0.76-0.44-0.77-1.93-1.32-2.56c-0.19-0.22-0.97-0.98-0.92-1.05c0.24-0.4,1.37,0.29,1.37,0.29s-3.74-3.48-2.77-5.14
		c0.44-0.76,1.51-0.66,2.09-1.15c2.26-1.89,4.24-1.71,6.46-1.03c1.76,0.54,3.65,1.71,5.47,2.1c0.46,0.1,4.64-0.92,4.84-1.27
		c0.3-0.51-0.29-1.19,0.01-1.7c0.1-0.18,2.06-1.71,2.38-1.51c0.45,0.26,1.67,0.28,2.15,0.56c0.86,0.5,1.77,0.52,2.93,1.07
		c0.63,0.3,2.14-0.64,2.83-0.27c0.78,0.43,1.83-0.16,2.56,0c1.51,0.32,4.56,1.78,5.75,2.47c0.01,0.01,3.05,1.46,3.28,1.4
		c0.63-0.16-1.19-4.1-0.89-4.62c0.4-0.68,1.38,0.4,2.46,0.92c0.26,0.13,1.03,0.93,1.19,0.79c0.21-0.17-0.19-1.29,0.1-1.22
		c0.61,0.16,1.52,1.3,1.58,1.34c0.31,0.18,0.59-0.67,1.22-0.72c0.87-0.06,2.09,0.57,2.18,0.1c0.08-0.43-2.23-1.62-2.19-1.68
		c0.22-0.37,1.42-0.01,1.42-0.01s-1.76-1.16-2.45-1.94c-0.61-0.69-2.07-1.96-2.76-2.36c-0.46-0.27-1.81-1.44-1.68-2.07
		c0.11-0.51,1.43-0.2,1.85-0.48c0.71-0.48,0.55-1.35,0.02-1.21c-0.24,0.06-0.69-1.84-0.86-2.04c-0.41-0.46-2.34-2.13-1.78-3.09
		c0.07-0.12,1.28-0.05,2.47,0.34c1.32,0.43,2.64,1.16,2.49,0.48c-0.05-0.24-0.8-0.95-1.25-1.46c-2.3-2.62-5.55-3.73-8.25-4.3
		c-0.97-0.2-1.95-1.59-2.53-2.25c-0.04-0.04-1.31-1.27-1-1.35c0.76-0.2,4.98,3.31,5.5,2.44c0.58-0.99-2.91-3.23-3.15-3.38
		c-0.8-0.47,1.28-1.29,1.12-1.91c-0.28-1.05-2.82-1.41-1.76-1.69c1.45-0.38,2.65,1.19,4.49,2.25c0.99,0.57,1.45,1.35,2.57,1.06
		c0.81-0.21-2.86-3.01-3.12-3.16c-2.93-1.71-6.83-4.24-9.64-5.88c-0.09-0.05,0.47-0.39,0.23-1.24c-0.32-1.14-1.42-2.87-1.34-3
		c0.31-0.54,1.1,0.23,1.86,0.39c0.38,0.08,0.51-0.32,0.9-0.23c1.29,0.31,2.79,1.15,3.1,1.21c0.42,0.09,2.2,1.57,2.5,1.05
		c0.4-0.68-1.7-2-3.65-3.17c-1.17-0.7-2.71-1.36-2.46-1.78c0.33-0.57,2.58,0.18,2.66,0.27c0.34,0.39,1.58,1.09,1.45,0.59
		c-0.33-1.27-4.73-3.24-5.11-4.4c-0.48-1.43-1.72-1.66-3.5-3.03c-1.11-0.85-2.92-3.88-2.98-3.96c-0.67-0.76-1.12-2.01,0.05-1.76
		c1.73,0.36,2,1.29,3.37,2.27c0.69,0.49,1.56,1.01,2.43,1.5c0.59,0.33,0.87,1.39,1.43,1.69c0.65,0.35,1.57-0.07,2.02,0.2
		c0.82,0.48,0.03-1.48,0.72-1.08c1.04,0.61,2.7,1.47,4.22,2.17c2.57,1.19,5.22,2.28,7.26,3.47c0.62,0.36,1.99,0.68,2.51,1.16
		c0.54,0.49,0.23,1.13,0.71,1.23c3.37,0.71,5.49,5,9.79,5.9c0.78,0.16,2.92,1.72,3.13,1.38c0.37-0.63-1.09-1.31-1.72-2.1
		c-0.7-0.86-0.6-1.82-0.6-1.82s2.07,1.98,3.3,2.69c2.6,1.52,5.9,2.47,8.38,4.46c2.71,2.17,5.13,2.21,6.88,4.2
		c1.42,1.62,4.33,2.99,5.43,4.25c4.55,5.17,8.23,8.28,12.75,13.84c0.45,0.55,1.66,0.82,2.06,1.38c1.33,1.85,2.5,2.85,3.98,4.53
		c0.35,0.4,1.29,3.04,1.55,2.81c2.41-2.11-2.91-6.8-3.74-8.07c-3.85-5.89-9.56-10.88-13.85-15.77c-0.75-0.85-4.76-4.57-4.76-4.57
		s5.41,3.4,5.89,3.95c1.8,2.05,4.03,4.75,6.46,6.17c2.1,1.23,4.3,3.32,5.9,5.14c1.64,1.87,2.82,4.06,4.47,5.94
		c1.12,1.27,1.87,3.91,3.17,4.67c2.64,1.54,4.67,3.41,7.13,6.21c0.8,0.91,0.91,2.42,1.41,3.66c0.37,0.9,1.44,2.17,2.7,3.53
		c0.59,0.64,2.06,0.28,2.69,0.92c1.98,2.04,3.74,4.38,4.17,4.99c1.49,2.08,3.38,5.83,4.57,7.18c3.43,3.91,2.11,6.19,5.08,10.75
		c0.64,0.98,2.34-0.55,2.64,0.84c0.08,0.38,0.25,0.87,0.48,1.41c0.17,0.39,1.13,0.77,1.35,1.21c0.54,1.11,0.65,2.79,1.12,4
		c0.51,1.31,1.36,2.13,1.81,3.07c2.72,5.71,3.48,9.97,4.44,13.62c0.31,1.19,1.56,3.12,2.3,5.09c0.58,1.55,0.64,3.24,1.09,3.91
		c0.54,0.8,0.49,4.19,1.05,6.29c0.51,1.92,1.62,2.49,2.24,4.25c0.82,2.32,1.15,10.14,1.81,12.8c1.06,4.31,0.48,9.15,0.9,14.36
		c0.66,8.22-2.03,29.77-3.7,31.87c-2.3,2.9-55.55-4.38-58.14-1.73c-1.52,1.56-3.16,3.81-5.18,4.92c-2.73,1.5-5.76,3.74-7.75,6.24
		c-2.64,3.32-5.64,4.15-8.73,6.17c-5.63,3.67-11.53,5.94-18.36,7.73C366.48,418.91,363.32,421.73,361.11,420.44
		C359.84,419.7,361.11,420.44,361.11,420.44z"/>
</g>
<polygon class="st0" points="173.41,353.8 186.69,354.19 202.2,354.2 213.28,351.97 225.95,349.28 223.67,358.2 230.65,365.37 
	249.37,373.11 262.7,376.2 269.57,379.77 235.11,385.43 214,388.69 188.87,389.77 162.43,399.3 142.24,401.16 116.84,388.93 
	71.95,374.05 68.58,378.47 36.16,398.33 25.65,380.12 2.58,294.27 19.18,280.84 48.56,244.98 66.21,229.66 92.5,207.52 
	118.57,194.24 137.83,189.2 143.04,188 152.15,183.78 167.35,171.64 186.34,160.52 209.94,145.49 226.55,133.5 237.38,129.22 
	244.26,130.26 252.63,138.09 249.42,149.53 258.86,143.66 266.78,137.99 278.76,130.18 292.17,127.38 301.66,130.35 303.6,138.67 
	305.52,142.43 314.99,132.88 327.78,135.11 331.76,141.63 331.26,157.67 324.64,168.42 320.51,171.16 330.94,177.87 336.06,186.95 
	334.16,197.22 325.22,209.38 310.21,225.12 298.18,238.74 282.19,254.66 238.32,284.37 201.28,316.64 190.06,326.49 181.96,334.34 
	177.2,343.41 168.21,350.64 166.99,354.12 "/>
<g>
	<defs>
		<polygon id="SVGID_7_" points="173.41,353.8 186.69,354.19 202.2,354.2 213.28,351.97 225.95,349.28 223.67,358.2 230.65,365.37 
			249.37,373.11 262.7,376.2 269.57,379.77 235.11,385.43 214,388.69 188.87,389.77 162.43,399.3 142.24,401.16 116.84,388.93 
			71.95,374.05 68.58,378.47 36.16,398.33 25.65,380.12 2.58,294.27 19.18,280.84 48.56,244.98 66.21,229.66 92.5,207.52 
			118.57,194.24 137.83,189.2 143.04,188 152.15,183.78 167.35,171.64 186.34,160.52 209.94,145.49 226.55,133.5 237.38,129.22 
			244.26,130.26 252.63,138.09 249.42,149.53 258.86,143.66 266.78,137.99 278.76,130.18 292.17,127.38 301.66,130.35 303.6,138.67 
			305.52,142.43 314.99,132.88 327.78,135.11 331.76,141.63 331.26,157.67 324.64,168.42 320.51,171.16 330.94,177.87 
			336.06,186.95 334.16,197.22 325.22,209.38 310.21,225.12 298.18,238.74 282.19,254.66 238.32,284.37 201.28,316.64 
			190.06,326.49 181.96,334.34 177.2,343.41 168.21,350.64 166.99,354.12 		"/>
	</defs>
	<clipPath id="SVGID_2_">
		<use xlink:href="#SVGID_7_"  style="overflow:visible;"/>
	</clipPath>
	<path class="st2" d="M170.12,172.36c0.44,0.91-0.39,3.22-1.2,4.71c-0.96,1.78-1.66,5.27-2.27,6.44c-2.48,4.81-3.32,9.56-5.82,14.42
		c-1.04,2.03-2.2,4.39-2.42,6.85c-0.09,0.95-1.48,1.98-1.61,3.03c-0.22,1.83-0.65,2.52-1.35,3.3c-0.74,0.81,0.12,2.25-0.12,3.82
		c-0.15,0.97-1.71,3.84-1.91,4.84c-0.18,0.9-1,2.17-1.19,3.07c-0.59,2.83-1.55,5.59-2.15,8.39c-0.61,2.89-2.6,6.48-2.61,9.35
		c-0.04,8.76-0.64,13.99-0.59,20.26c0.03,3.29,0.7,6.07,0.75,10.66c0.01,0.98,3.62,8.7,3.91,9.63c0.16,0.5-0.02,2.43,0.1,2.94
		c0.52,2.09,3.04,3.84,3.55,5.45c0.56,1.76-0.87,3.34,0.41,4.65c1.28,1.31-1.66,3.08-0.28,4.49c1.74,1.78,2.55,3.96,4.33,5.78
		c1.9,1.94-1.83,1.75-2.19,1.62c-1.03-0.35,2.36,3.82,2.64,4.11c1.38,1.41,2.14,4.4,3.38,5.67c0.44,0.45-0.56,1.69-0.57,2.39
		c-0.01,0.73,0.53,4.08,0.53,4.08s-1.15-3.15-1.89-2.42c-0.33,0.32-1.44,3.27-0.98,3.74c2.55,2.61,4.39,5.76,7.1,8.53
		c0.62,0.63,0.23,2.07,0.59,2.82c0.13,0.26,0.67,1.2,0.61,1.26c-0.33,0.33-1.24-0.64-1.24-0.64s2.69,4.34,1.31,5.69
		c-0.63,0.61-1.63,0.24-2.32,0.56c-2.68,1.23-4.54,0.52-6.5-0.72c-1.56-0.99-3.06-2.62-4.72-3.47c-0.42-0.21-4.72-0.34-5.01-0.06
		c-0.42,0.41-0.04,1.23-0.46,1.64c-0.15,0.15-2.44,1.1-2.7,0.83c-0.36-0.37-1.54-0.71-1.93-1.11c-0.69-0.71-1.57-0.98-2.54-1.81
		c-0.53-0.45-2.23,0.05-2.8-0.49c-0.64-0.62-1.81-0.33-2.47-0.67c-1.37-0.71-3.93-2.92-4.89-3.91c-0.01-0.01-2.56-2.22-2.79-2.22
		c-0.65-0.01,0.06,4.27-0.37,4.69c-0.56,0.55-1.22-0.75-2.12-1.54c-0.22-0.19-0.75-1.17-0.94-1.08c-0.25,0.11-0.16,1.3-0.42,1.15
		c-0.55-0.32-1.12-1.65-1.17-1.71c-0.25-0.25-0.75,0.49-1.36,0.37c-0.86-0.17-1.86-1.11-2.07-0.67c-0.19,0.39,1.72,2.15,1.66,2.2
		c-0.31,0.3-1.37-0.37-1.37-0.37s1.39,1.59,1.85,2.52c0.4,0.83,1.48,2.44,2.03,3c0.37,0.38,1.37,1.87,1.07,2.45
		c-0.24,0.47-1.43-0.19-1.91-0.03c-0.81,0.28-0.89,1.15-0.34,1.16c0.24,0,0.17,1.96,0.29,2.19c0.27,0.56,1.69,2.68,0.9,3.45
		c-0.1,0.1-1.25-0.29-2.3-0.98c-1.16-0.77-2.23-1.82-2.28-1.12c-0.02,0.25,0.52,1.12,0.82,1.74c1.53,3.14,4.36,5.07,6.81,6.34
		c0.88,0.45,1.46,2.05,1.84,2.84c0.02,0.05,0.93,1.57,0.61,1.57c-0.78-0.01-3.92-4.52-4.65-3.81c-0.82,0.8,1.95,3.89,2.14,4.09
		c0.65,0.66-1.58,0.91-1.58,1.55c-0.01,1.09,2.34,2.11,1.25,2.09c-1.5-0.02-2.23-1.85-3.73-3.36c-0.8-0.81-1.04-1.69-2.2-1.7
		c-0.84-0.01,1.95,3.66,2.17,3.88c2.37,2.43,5.46,5.9,7.73,8.22c0.08,0.08-0.55,0.26-0.55,1.13c0,1.18,0.61,3.14,0.5,3.25
		c-0.45,0.44-1-0.51-1.69-0.87c-0.34-0.18-0.58,0.18-0.93-0.02c-1.16-0.64-2.39-1.84-2.67-1.99c-0.38-0.19-1.7-2.1-2.13-1.68
		c-0.56,0.55,1.11,2.38,2.68,4.03c0.94,0.99,2.26,2.03,1.9,2.37c-0.47,0.46-2.44-0.86-2.49-0.97c-0.23-0.47-1.24-1.47-1.24-0.95
		c-0.02,1.31,3.7,4.38,3.76,5.59c0.08,1.51,1.22,2.06,2.57,3.85c0.85,1.12,1.78,4.52,1.82,4.6c0.44,0.91,0.55,2.23-0.52,1.68
		c-1.57-0.81-1.58-1.77-2.65-3.08c-0.54-0.66-1.23-1.38-1.95-2.09c-0.48-0.48-0.47-1.57-0.93-2.01c-0.53-0.51-1.53-0.35-1.9-0.73
		c-0.66-0.67-0.42,1.42-0.98,0.85c-0.84-0.86-2.22-2.13-3.49-3.21c-2.17-1.83-4.43-3.58-6.08-5.27c-0.5-0.51-1.73-1.18-2.11-1.78
		c-0.39-0.62,0.08-1.15-0.36-1.38c-3.06-1.57-3.96-6.28-7.87-8.29c-0.71-0.37-2.36-2.43-2.65-2.16c-0.52,0.51,0.7,1.55,1.1,2.48
		c0.44,1.02,0.1,1.91,0.1,1.91s-1.47-2.46-2.46-3.47c-2.11-2.15-5.03-3.94-6.9-6.52c-2.04-2.81-4.36-3.49-5.52-5.87
		c-0.94-1.94-3.38-4.03-4.11-5.54c-3.01-6.19-5.74-10.16-8.62-16.72c-0.29-0.65-1.38-1.23-1.62-1.88c-0.79-2.14-1.66-3.41-2.64-5.42
		c-0.23-0.48-0.44-3.27-0.75-3.12c-2.88,1.4,1,7.33,1.46,8.78c2.15,6.7,6.33,13.02,9.17,18.88c0.49,1.02,3.38,5.67,3.38,5.67
		s-4.31-4.71-4.63-5.37c-1.19-2.46-2.63-5.65-4.59-7.66c-1.7-1.74-3.26-4.34-4.32-6.52c-1.09-2.23-1.64-4.66-2.74-6.91
		c-0.74-1.52-0.76-4.26-1.82-5.34c-2.14-2.18-3.6-4.52-5.23-7.88c-0.53-1.09-0.23-2.58-0.39-3.9c-0.33-2.87-2.38-5.16-2.34-7.92
		c0-0.35,0.49-1.65,1-3.03c0.64-1.75-0.74-5.39-1.02-5.67c-0.46-0.47-1.78-0.2-2-0.49c-0.6-0.81,0.17-1.96-0.61-3.57
		c-2.27-4.68,1.54-11.73-0.12-16.92c-2.05-6.39-1.7-12.57-1.62-19.26c0.03-2.21-0.56-5.95,0.41-7.81
		c5.19-10.08,13.64-18.81,23.47-26c2.42-1.77,4.17-4.68,6.65-6.49c7.12-5.21,14.06-10.52,21.16-15.71c2.99-2.19,6.57-3.34,9.76-5.2
		c1.88-1.1,4.06-2.83,6.3-3.37c3.03-0.72,6.55-2.07,9.12-3.96c3.43-2.51,6.54-2.51,10.06-3.64c6.4-2.05,12.69-2.67,19.75-2.58
		c2.49,0.03,5.61-1.33,7.59-0.61C169.02,173.33,170.12,172.36,170.12,172.36z"/>
</g>
<path class="st3" d="M241.3,114.7c0,0-1.24,14.7,7.43,15.92c0,0,9.26,5.59,6.84,13.97l16.96-9.4c0,0-18.96,11.76-16.97,18.1
	c0,0-5.46-6.2-15.6,7.27l-28.42,18.24l-21.82,18.44l0.72,8.23c0,0-0.4-2.91-4.89-6.42c0,0-6.38,3.19-5.8,8.04
	c0,0-4.27-2.78-12.72-3.27l8.07-3.14l10.88-8.37c0,0,6.12-2.48,0.05-9.9c0,0,3.76,3.49,13.33-1.06l17.02-11.58
	c0,0,5.63-2.25,2-10.33c0,0,2.02,5.13,10.36,1.27l14.82-10.91c0,0,7.42-5.58,4.47-12.19l-7.24-5.77c0,0-1.49-1.49-2.06-6.82
	L241.3,114.7z"/>
<path class="st3" d="M265.6,270.32c0,0,32.92,37.68,40.77,53.37l15.67,19.4l1.26,3.32c0,0-11.44-5.55-18.83-4.23l-12.52-1.53
	c0,0-15.73-10.7-30.36-13.07c0,0-19.75-5.61-37.38,14.93l-12.54,5.43c0,0-30.84-3.23-35.95-0.48c0,0,14.99-23.13,23.4-26.36
	l6.41-0.78c0,0,17.61-20.16,25.07-23.8l12.48-10.07l16.45-13.62L265.6,270.32z M268.08,247.77c5.6,6.67,14.13,0.02,14.13,0.02
	l22.42-22.53c2.27-3.07-1.67-8.99-1.67-8.99c4.28,2.3,11.11,0.33,11.11,0.33l19.79-23.57c3.39-8.35-7.47-17.13-7.47-17.13
	c3.42-1.35,7.68,1.92,7.68,1.92l5.02,10.05c6.12,13.95,21.44,18.75,21.44,18.75l-3.44,1.83l-12.49-2.54l-6.78-7.69
	c-5.53,15.3-26.22,28.45-26.22,28.45c-0.85,4.08-8,8.94-8,8.94c-9.55,4.31-16.62,22.7-16.62,22.7l-1.05-5.35l-13.86,10.94
	l14.54,15.16c9.64,17.19,14.04,15.64,14.04,15.64c1.44,8.62,11.48,20.63,11.48,20.63l2-2.36l2.05-12.26
	c3.74,4.46,2.95,14.58,2.95,14.58c-1.73,17.82,5.8,24.57,5.8,24.57c2-2.11,5.8-8.28,5.8-8.28c-1.93,7.91,2.68,23.99,2.68,23.99
	c-4.72-4-34.07-8.73-34.07-8.73c-5.98-2.11-9.78,3.82-9.78,3.82l-1.55-4.88c-2.98-5.4-24.49-13.76-24.49-13.76
	c-14.64-3.57-26.49,4.77-26.49,4.77c-7.44,6.3-5.46,13.12-5.46,13.12c0.74,15.72,19.6,15.8,19.6,15.8l20.21,3.25
	c9.11,2.44,15.07-10.91,15.07-10.91l0.16,10.87c0.09,5.32,10.17,7.55,10.17,7.55c6.38,5.02,15.26,7.21,15.26,7.21
	c10.17-0.42,9.6,2.22,9.6,2.22c22.93,17.58,33.26,11.37,33.26,11.37c4.97-4.68,36.7-6.65,36.7-6.65c13.3-0.33,27.75-6.67,27.75-6.67
	l12.59-0.84l15.88-3.8c-0.47,0.35,26.87,15.54,26.87,15.54s12.87-26.85,17.18-39.11c3.93-11.17,8.68-34.45,8.68-34.45
	s8.01-0.07,8.74,0.8c1.31,1.53-3.79,20.4-11.36,39.58c-8.11,20.54-16.3,38.9-19.68,40c-6.06,1.98-34.11-16.76-34.11-16.76
	c-15.56,11.14-40.02,11.88-40.02,11.88c-25.23,1.19-37.72,8.55-37.72,8.55c-10,3.09-32.17,0.74-32.17,0.74
	c-52.01-31.48-60.71-24.74-60.71-24.74c-15.47,4.62-62.15,9.04-62.15,9.04c-18.83-0.8-41.63,9.88-41.63,9.88
	c-19.78,6.91-29.61,4.2-29.61,4.2l-25.76-11.87c-12.86-6.42-29.99-9.23-40.45-13.51c-10.06-4.13-17.64-21.46-17.64-21.46
	c2.51-3.07-2.06-15.35-2.06-15.35l12.23,17.86c4.03,10.75,24.16,16.65,24.16,16.65c4.45,4.72,29.71,8.85,29.71,8.85
	c4.64,6.66,24.8,11.6,24.8,11.6l28.08-9.56c6.09-1.75,5.79,0.41,5.79,0.41c13.86-2.73,28.97-7.12,28.97-7.12
	c-1.53-13.57,4.27-13.64,4.27-13.64c-1.53,10.82,5.7,11.52,5.7,11.52c32.36,9.17,43.83-2.57,43.83-2.57l-20.35-6.64
	c-23.28-5.52-19.22-20.37-19.22-20.37c-14.29,1.03-13.62,10.95-13.62,10.95l-4.66-5.93c-3.86-3.85-40.69,1.48-43.19,1.84
	c-0.04,0.01-0.09,0.01-0.13,0.02l0.13-0.02c8.86-1.39,10.49-24.06,10.49-24.06c5.01,2.08,3.49,12.66,3.49,12.66l6.88-11.87
	l1.69-7.92c4.45-19.67,8.05-18.84,8.05-18.84l0.07,14.01c5.4-2.74,17.25-19.3,17.25-19.3c5.04,1.36,22.97-16.47,22.97-16.47l19.5-15
	l18.11-15.65C270.77,251.41,268.64,248.48,268.08,247.77c-0.04-0.05-0.09-0.1-0.13-0.16C267.95,247.62,268,247.67,268.08,247.77z"/>
<path class="st3" d="M130.09,234.25c0,0,9.43,8.01,36.59,15.89c0,0,16.22,7.24,20.58,12.52c0,0-15.84-9.16-20.07-8
	c0,0-27.66-10.16-30.18-12.16L130.09,234.25z"/>
<path class="st3" d="M125.41,253.43c0,0,12.4,0.2,43.57,19.8l21.36,13.35c0,0-17.77-9.54-21.01-8.67L154.01,267L125.41,253.43z"/>
<path class="st3" d="M71.86,309.24c0,0,57.67-40.81,113.42-9.99l2.83,2.4c0,0-33.01-14.89-63.98-7.49l-44.19,12.17L71.86,309.24z"/>
<path class="st3" d="M44.7,328.15c0,0,1.84,5.71,2.68,7.61c0.82,1.86,2.01,3.92,2.01,3.92l2.74-0.66c0,0-0.23-3.51-1.72-5.82
	C48,329.51,44.7,328.15,44.7,328.15z"/>
<path class="st3" d="M321.31,295.35c0,0,72.99-17.08,113.66,34.08l3.38,4.45c0,0-28.92-22.49-39.49-24.93l-21.77-9.34l-27.94-3.53
	L321.31,295.35z"/>
<path class="st3" d="M320.72,283.95c0,0,4.32-8.95,15.56-9.78l6.59-0.58c0,0,31.72-13.17,48.57-14.22l3.52-1.44l-1.28,4.21
	c0,0-25.05,3.51-48.37,14.03l-3.16,2.23c0,0-2.26-2.19-9.68,0.49L320.72,283.95z"/>
<path class="st3" d="M328.17,260.79c0,0,5.96-5.24,19.95-7.72l14.77-2.46l24.38-7.2l0.3,2.91c0,0-12.93,5.61-28.83,7.07
	c0,0-17.29,2.58-19.46,4.26l-6.88,3.66L328.17,260.79z"/>
<path class="st3" d="M459.23,354.23l-6.25,8.51c0,0-2.41,3.02,0.86,3.5l5.14-3.91l2.88-5.91l0.09-2.9L459.23,354.23z"/>
<path class="st3" d="M242,137.98c0,0,0.95,7.18-1.44,9.62c-2.39,2.44,6.63-1.74,6.33-4.84l-1.04-4.09L242,137.98z"/>
<path class="st3" d="M296.38,136.68c0,0,2.5,7.03-9.01,17.12l1.09,2.54c0,0,11.6-6.61,11.25-14.35c0,0,0.85-2.49-0.64-4.66
	L296.38,136.68z"/>
<path class="st3" d="M324.07,141.75c0,0,3.41,8.99-16.88,27.91l1.3,1.97l7.95-7.3c0,0,11.14-10.49,10.36-16.89L324.07,141.75z"/>
<path class="st3" d="M327.87,183.21c0,0,1.77,5.66-9.42,17.69l0.69,2.92l6.54-5.41c0,0,6.38-6.57,5.15-10.67L327.87,183.21z"/>
<polygon class="st3" points="339.93,181.06 344.4,180.03 341.75,184.97 "/>
<path class="st3" d="M2.55,292.57c1.44-5.69,28.82-19.95,39.73-45.71c0,0,17.83-30.87,66.43-56.01c0,0,30.86-13.58,36.99-8.57
	c0,0,16.84-13.51,27.12-18.04l33.5-21.23c0,0-16.16-25.6,0.53-34.28c0,0,14.15-4.41,25.02,4.12c0,0,8.92-23.89,47.5,12.03
	c0,0,10.63-16.11,30.63-5.86l12.22,11.95c0,0,15.85,3.37,16.46,15.46l23.51,22.43l22.12,20.46c0,0,74.72,23.46,100.85,104.42
	l24.18,28.42l-9.05-0.44l-16.02-14c0,0-2.43-2.74-7.16,4.21c-2.1,3.08-5.58,6.65-7.93,15.63c0,0,9.47-42.23-7.1-54.31
	c0,0,3.71-11-14.64-27.97c0,0-16.21-30.35-34.33-17.2c0,0,24.14-14.02-33.34-32.14c0,0-21.96-25.77-26.36-23.97
	c0,0-7.3-14.71-16.85-18.85c0,0,1.15,10.18-31.5,35.3c0,0-25.46,27.27-34.62,26.51c0,0-21.92,22.06-41.06,31.64
	c0,0,2.12,10.21-1.61,21.69l-4.14-7.17l-2.36-18.14c0,0,5.77,1.14,11.35-7.88c0,0,23.63-5.1,30.39-25.67
	c0,0,33.09-12.07,33.05-27.04c0,0,14.04-0.55,34.23-29.42c0,0,4.11-8.09-2.54-12.15c0,0-1.7-7.78-14.89-3.34
	c0,0,3.43-17.77-21.39-12.23c0,0,24.51,5.07,13.24,26.48l-14.39,12.62l0.75,7.27l-5.68-4.03c0,0-31.45,17.43-27.85,26.23l-6.29,0.3
	c0,0-29.39,13.14-29.62,20.87l2.22,6.83l-8.1-4.1l-1.66,7.2c0,0-3.08-10.24-17.59-10.18c0,0,7.63,3.61,24.42-8.46
	c0,0,12.84-9.28,8.71-16.65c0,0,4.09,6.24,15.88-0.18c0,0,22.37-11.58,18.75-21.67c0,0,1.78,3.27,11.9-1.26l20.69-13.24
	c0,0,9.64-10.02,3.76-18.25c0,0-3.92-9.13-23.12-2.94c0,0-23.95-21.92-29.96-22.14c0,0-15.66-4.33-10.86,18.36l-1.07,3.51
	c0,0-6.06-2.11-6.04-13.7c0,0-13.84-11.36-20.92-0.94c0,0-8.23,5.88,3.24,21.35l3.14-0.21c0,0-8.88-17.51-0.76-21.14
	c0,0,0.84,13.55,6.8,17.45l10-1.77c0,0-24.33,10.05-19.63,19.3l-4.76-2.35c0,0-33.25,12.68-25.96,22.97l-6.73-1.3
	c0,0-28.82,12.32-24.85,18.31c0,0-7.87-6.8-34.11,8.53c0,0-16.3,6.44-7.96,12.97l6.71,7.44c0,0-11.09-8.24-17.74-7.34
	c-7.48,1.02-14.41,4.66-26.11,18.77c0,0-13.15,5.41-16.3,19.49c0,0-14.09,7.96-16.02,24.16l-0.9,13.98l2.45,15.37l0.87,3.25
	c0,0-6.64-4.22-6.51-14.04c0,0,0.61-9.64-3.02-12.17c0,0-4.06-4.31-10.86,2.1L9.14,294.09c0,0,9.4,44.44,18.4,77.25
	c4.51,16.45,10.7,23.95,10.7,23.95s21.23-14.23,31.84-22.2c4.96-3.72,5.21,0.95,5.21,0.95c1.98,1.31-19.18,16.53-19.18,16.53
	s-15.15,13.04-19.78,11.44C21.92,397.02,1.31,297.49,2.55,292.57z"/>
</svg>
