<svg xmlns="http://www.w3.org/2000/svg" viewBox="0 0 478.15 437.77"><defs><style>.a{fill:none;stroke:#fff;stroke-linecap:round;stroke-linejoin:round;stroke-width:28.15px;}.b{fill:#fff;fill-rule:evenodd;}</style></defs><path class="a" d="M481,147.15a95.92,95.92,0,0,0-95.93-96H127a96,96,0,0,0-95.95,96V364.88a96,96,0,0,0,96,95.93H385.07A95.92,95.92,0,0,0,481,364.88Z" transform="translate(-16.92 -37.12)"/><path class="b" d="M203.23,450.1l-.73-112H150.73V279.88l47.89,1.29s-15.21-125.75,60.83-134.61c34.28-4,103.55,1.3,103.55,1.3l1.29,66.9s-53.93-12.8-76.64,5.92c-24.11,19.86-12.4,59.2-12.4,59.2H341v59.54H275.25L276,450.1Z" transform="translate(-16.92 -37.12)"/></svg>