<svg xmlns="http://www.w3.org/2000/svg" viewBox="0 0 110.5 511.53"><defs><style>.a{fill:#fff;}</style></defs><path class="a" d="M271,46.52h-.12v-.11H271Zm-8.57,59.14H262v-.34h.34Zm-.56-16.11.11-.22V89.1h-.45Zm-4.17-24.33h-.22v-.34h.22ZM240.08,99.69h.34v-.23h-.11Zm37.4-97.55c1.12.23,2.66,1.2,4.61,2.93.45.07,1.25,1.43,2.37,4V10.7l-.22.34.22.79q.57,9.12.79,9.91l-.11.9V23h.78a5.89,5.89,0,0,0,3.05-2.7c-.23-.9.3-1.67,1.57-2.31a9.4,9.4,0,0,1,3-1.07l.23-.12h.79L296,17c.53-.22.79-.53.79-.9h.11l1.8.11a1.84,1.84,0,0,1,1.13-.67,4.07,4.07,0,0,1,3.15,1.35c.53,0,1.84,1,3.95,3a2,2,0,0,1,.56,1.13,10.25,10.25,0,0,1,.11,1.57v1.58c-.22,1.27-.82,1.91-1.8,1.91l-3.27,1.69a2.91,2.91,0,0,1-2.14,2.93l-1-.22c-.45,1.95-1.43,2.93-2.93,2.93-.3.52-1.65,1-4,1.46a6.24,6.24,0,0,1-2.93,1.24,27.38,27.38,0,0,1-4.17,1.69,15.2,15.2,0,0,0-3.16,2.25,10.63,10.63,0,0,0-2,1c-.75,0-1.13.15-1.13.44l-.34.46-1-.23c-1,1.2-1.88,1.84-2.48,1.92a5.07,5.07,0,0,1-3,1.69l-.79-.34c0,.45-.56,1-1.69,1.8l.45,1.35c0,.08-.37.34-1.12.79l-1.24,1.8-1,1.58c0,.23-.19.34-.56.34v.45l.45.34-.45.45.22.11v.22c-.22.61-.41.91-.56.91h-.22c-.3,0-.49-.27-.57-.79h-.11a1.38,1.38,0,0,0-1.24.79c-1.12,0-1.69.33-1.69,1l.12.22h.22c0-.3.26-.48.79-.56l.34.68-.34.9h.67v.22c0,.45-.67.83-2,1.13,0,.68-.26,1-.79,1-1.13.38-1.69.64-1.69.79l-.23-.11h-.22l-.34.45v.23l.56.11v.22a1.85,1.85,0,0,1-1.12.68c-.3,0-.45.08-.45.22l.45.23c0,.45-.38.68-1.13.68v.45h.45v.56l-.11.79.11.11-.11.23h-.23l-.9-.23.12.79-.12.22-1,1.24v.34h.56v.45l-.9-.22-.11.22v.34l.79-.11v.11c-.46.45-.68.79-.68,1a1.25,1.25,0,0,0-1.24.79l.23,1c0,.3-.68.94-2,1.91l.34,1c-.53,0-.79.48-.79,1.46l-1.24.68-.11.11v.11l.11.79a1.36,1.36,0,0,1-1.35,1.13q0,.33.45.33l.11.23v.11a12.19,12.19,0,0,0-1.24,3.94l-.22,1.92v.45a9.45,9.45,0,0,0,3.6,1.86,13.32,13.32,0,0,0,3.6.73,4.83,4.83,0,0,0,2,.34H259l1.24-.34,1.58.56c0-.45.71-.9,2.14-1.35,0-.22.67-.56,2-1a1.29,1.29,0,0,1,1.12-.79v-.45l-.33-.45,1.8-1.35v-.12a1.6,1.6,0,0,0-.57-1.12l.23-.34H268v-.23a12.24,12.24,0,0,0,2-6.19V75c0-1.58-.49-2.59-1.46-3q0-.57-1.86-1.35a34.45,34.45,0,0,0-3.32-1.24c-2.41-1.5-3.69-2.67-3.83-3.49l1.91-1.47-.22-.56h.22q.45,0,1.35-.9a7.4,7.4,0,0,0,1.92-.68h-.34v-.11q0-.45,10.93-1.47h.34a22.07,22.07,0,0,1,10.7,2.71,10.79,10.79,0,0,1,2.25,2,5,5,0,0,1,.9,2,4.59,4.59,0,0,1,1.58,3.83l-.23.12c0,.07.45,1.35,1.35,3.83l-.22.11v4.5l-1.8,2.37c-1,.53-1.69.9-2.15,1.13q0,.9-.45.9h-.11l-.56-.23h-.23a5.83,5.83,0,0,1-1.8.23l-.67.79.33.33v.34l-1.12,1.92.33.67a5.62,5.62,0,0,1-1.57,2.82c-.23.07-.68.56-1.35,1.46-.68,0-1.06.23-1.13.68l.11.9-3.26,4-4.17,2.6q0,.68-1.8.78l-.12.12h-1.12l-.79.22.11.79-.45.56h-.34a9.59,9.59,0,0,1-1.46-.11,6.68,6.68,0,0,1-.56,1.24l-.79.11v-.33c.29,0,.45,0,.45-.12v-.22h-.23c-.52.07-1.13.82-1.8,2.25h-.45v-.22l.11-.57c-.23,0-.34-.19-.34-.56l-.22-.23h-.11c0,.38-.23.57-.68.57l-.56-.34a5.85,5.85,0,0,1-3.27,1.69l-.79-.34-1.12.56h-.79a7.27,7.27,0,0,0-2-1.12l-.9.11a38.66,38.66,0,0,0-4.45-1.46,38.45,38.45,0,0,0-5-1.36c0-.6-.68-.9-2-.9l-1.47-1.69c.45,0,.68-.18.68-.56H240c-1.65-.53-2.48-1.43-2.48-2.7-.75-.75-1.13-2.26-1.13-4.51h-.11l.11-.67V90.45c0-2.93.38-4.39,1.13-4.39v-.34l-.45-.11c.22-2.33.6-3.49,1.12-3.49v-.79c.46-.15,1-1.43,1.58-3.83l1.35-2.14c.15,0,.75-1.24,1.81-3.72L244,70.29l.45.11.12-.11v-.11l-.12-.79.34-.9-.22-.12a1,1,0,0,0,.9-.56c.22-.37.52-.9.9-1.58.15,0,.22-.26.22-.78.53,0,1.24-1,2.14-3.05.23,0,.6-.48,1.13-1.46.67,0,1-.38,1-1.13l1.81-2.59,1.69-1.8c.14,0,.22-.22.22-.68q.33-.1,11.15-13.06-5.29,5.18-6.31,6.42l7.89-11.38-1.46-1.12a19.93,19.93,0,0,0-1.47-2.14l-1-2.82.22-.11V30.3a7.81,7.81,0,0,1-1.46-3.72l.22-.67c-.52,0-.79-1.62-.79-4.85v-.78l.23-.12a26.11,26.11,0,0,1-.79-6,3.71,3.71,0,0,0-3.26-2c-1.73-.83-2.6-1.88-2.6-3.16l-.34-.68.23-.78h-1c0-.23.22-.34.67-.34V7.1c-.52,0-.79-.12-.79-.34s.42-.53,1.24-.68V6l-.34-.56V5.07l.23-.11V4.73c-.6-.15-.94-.41-1-.79V3.83a1,1,0,0,1,1-.56v.22L258.21,2l.68.11c.08,0,1.37-.24,3.89-.73s4.33-.81,5.46-1A8.69,8.69,0,0,1,271.51,0l6,2.14ZM228.93,17.46a26,26,0,0,1,8,1.35A3,3,0,0,1,239,19a12.21,12.21,0,0,1,1.86,2.76c0,.15.37.34,1.13.56L244.36,25a3.6,3.6,0,0,0,.9,2.25l.11,1.58-.11,2.7-.34.34v1L244.59,34l.11.9c-.23,0-.34.64-.34,1.91v.68l-.23.34v.67c0,2.71-.45,4.06-1.35,4.06-.22.07-.49.6-.78,1.58l-1.36,3.26c-.45,0-.86,1.13-1.24,3.38a11,11,0,0,0-1.57,5q-.35,0-.57.9H237l.11.45c0,1.65-.6,2.48-1.8,2.48,0,.15-.42.3-1.24.45L233,62.74h-.11l-.56-.34q-.45,0-.45,1L230.5,64v-.11a3.3,3.3,0,0,1-2.14.45h-.9c-.67,0-1.5-.79-2.48-2.37l-.11-.11.11-.11-.78-3,.34-2c-.38,0-.57-.49-.57-1.46l.23-.68-.23-.11v-.23a5.77,5.77,0,0,1,.45-2.59l-.11-.23v-.11l.45-1-.45-1,.56-.44-.33-.46V48l.44-.57-.11-.56.11-.79a2.39,2.39,0,0,0-.67-1.57l-.11-.79.11-.12v-.22a1.54,1.54,0,0,0-.9-1.24l-.23.22h-.11l-.68-.22c-.22.45-.41.67-.56.67h-.34v-.22h-.22c0,.68-.45,1-1.35,1l-2,.79-.45.45c-1.28-.6-2-1-2-1.24l-.79.23-.45-.23-.45.12-.56-.12q0,.45-1.47.57a1.81,1.81,0,0,1-.45-1.13c-1.27-.23-1.91-.64-1.91-1.24-1.65-.07-2.48-.52-2.48-1.35l-.11.11h-1.58q-.45,0-.45-.9h-1.13c-.3,0-.49-.26-.56-.79-.68,0-1-.52-1-1.58l-.12-.22v-.23q-.78,0-.78-.9a4.6,4.6,0,0,0-1-2.36l.34-.34-.11-1.47c.22-1.27.86-1.91,1.91-1.91l.9-1.69,4-1.13c0-.45.56-.78,1.69-1,.29-.67,1.27-1.39,2.92-2.14,0-.15.75-.53,2.26-1.13,0-.45.45-.67,1.35-.67q0-.57,3.6-1.47c.3-.67,1.17-1.2,2.59-1.57a32.72,32.72,0,0,1,7.44-1.58" transform="translate(-200.09 0)"/><path class="a" d="M291.56,165.63h-.34v-.23h.34Zm-1.35,13.63H290v-.34h.23Zm-.12.45.12.45h-.12l-.33-.23v-.22Zm-.33,1,.45.34-.12.9v.23l.12.78-.45.23-.46-.23.23-1.24v-.33l-.23-.45.23-.23Zm.33-2.81-.56.33h-.23v-.11l.46-.56Zm-1.57-7.33h-.12v-.22h.12Zm-.23,5.19.45.11v-.23h-.45Zm.23-3.5a1,1,0,0,1-.57,1v-.57l.45-.45Zm-24.45,18.48v-.23h-.34Zm-30-3.72c-.3,0-.71.34-1.24,1v.34c0,.23-.3.34-.9.34l-.34.9c.45,0,.71.26.79.79h.23c0-.75.48-1.28,1.46-1.58l.23.23c0-.23.14-.34.45-.34l.33-.9-.22-.11v-.12c0-.3.41-.67,1.24-1.12v-.34H236c-.82.75-1.39,1.12-1.68,1.12Zm-2.93,1.69h.45v-.34h-.45Zm.34-2.71.11-.11v-.45h-.11l-.34.34Zm-.34,7.44-.34.9h-.45q0-.9.45-.9Zm-1.24-6.2v-.45c-.37,0-.56.34-.56,1Zm-1.35,1.92h.23v-.11h-.23Zm-5.07,5.41,1.58-1.13-.12-.56h-.22L223.52,194Zm-.67.33h.22v-.33h-.22ZM220,197.05h.34v.23a6.93,6.93,0,0,0,1.35-1.13v-.33h-.34l-1.12,1.12H220Zm-16.45,6.88a7,7,0,0,1,1.13-.23v.11Zm-.22.22h-.57V204h-.11l-.34-.68h-.67c0,.3-.11.45-.34.45h-.56l-.45-.45v-.22l.22-.12v-.11l-.22-.22h-.23c0-.23.34-.49,1-.79l-.23-.68.23-.11V201l-.23-.68.45-.34c.23,0,.34.15.34.45h.67a1.16,1.16,0,0,0,1.13-.79l-.11-.78V198l.56-.68h.23l.9.11a2.94,2.94,0,0,1,1.91-.56l-.22-.22v-.46h.34c.07-.52.26-.79.56-.79l.45.12.56-.45-.22.45.22.22a2.17,2.17,0,0,1,1.13-1.69l.34.23h.22q0-.9,2.37-2.7c0-.61.82-1.73,2.48-3.38l3.71-5.41a7.44,7.44,0,0,1,2.14-3.16l2.48-5.18A70.08,70.08,0,0,0,228,163.82a.44.44,0,0,1-.34-.11l-.45-.05a3.45,3.45,0,0,0-.57-.06,13,13,0,0,1-4-4.06c0-.9-.6-1.72-1.8-2.47v-.34c.37,0,.56-.11.56-.34l-.22-1.35,3.38-.79a1.88,1.88,0,0,0,1.91-1A9.23,9.23,0,0,1,229.6,152l.12.11h.11l.9-.56H231l.22.22,1.92-.45.11.11.45-.33h.45l.23.22h.11l.34-.45-.12-.11v-.23l.23-.22.34.45,2.25-.79c0,.23.15.34.45.34l.56-.34a6.58,6.58,0,0,1,4.4,1.35l2.92,1,.23.46.22-.23h.23c1.65.53,2.48.9,2.48,1.13l-.23.22V154c2.71.46,4.43,1.24,5.18,2.37a5.68,5.68,0,0,1,1.81,2.82,3.54,3.54,0,0,1,.67,2.36v.23l-.45,2,.12.46-.12.56.12.11v.11c0,.76-1,1.36-3,1.81q-2,2.7-3.15,3.15l-.34-.23h-.22c-.38,1.73-.94,2.6-1.69,2.6l-.23.11c-.3,0-.45.26-.45.79-.38,0-.71.71-1,2.14h-.23l.11.78c0,.23-.18.34-.56.34v.23a71.28,71.28,0,0,1,10.59,2.59,24.56,24.56,0,0,1,6.53,4.62q.67.1,1.47,1.8h.22a7.17,7.17,0,0,1,2.37-1.58c.37-.67.79-1,1.24-1,.15,0,.33-.26.56-.79a2.45,2.45,0,0,0,1-2.36l-.22-.12v-.22l.22-.45L269,179l.22-.79v-.11a1.69,1.69,0,0,0-.45-1.24l.23-1.46v-1.92l.34-3.49-.34-2.37.22-.78v-3.16l-.22-2.25.22-1.92v-1.35l-.22-.56.22-.45.12-4.62-.12-1.13h.12l-.12-.11.12-.56-.12-1.8.12-.68a2.85,2.85,0,0,0-1.69-2.36c-.3,0-1.32-.91-3.05-2.71a24.42,24.42,0,0,1-3.37-3.15c-.23,0-.57-.38-1-1.13,0-.37,1.09-.86,3.27-1.46a3.64,3.64,0,0,1,3.6-2.26,57,57,0,0,1,6-.79q0-.22,1.92-.78h.11c2.1.22,3.19.56,3.27,1l.79.11.11-.11h.22a7.46,7.46,0,0,1,3.27,1.24V136l.11-.11h.34l5.86,3.38c0,.6,1,1.43,2.93,2.48a16.51,16.51,0,0,1,3.72,5.18l.22.11v1l-.22.45.22.23V149c-.07.67-.23,1-.45,1l.23.11v.23c-.23.75-.38,1.12-.45,1.12l.22.12v.56l-.34.22.12.23v.56c0,.15-.42.53-1.24,1.13l-.23.11v1.8c-.75.31-1.13,1.24-1.13,2.82l-.78,1,.33.56-.22.34.22.22-.56.34.23.79v.11a5.5,5.5,0,0,0-1,1.46l.34.46v.11c0,.22-.3.34-.9.34l-.23.67.23.34-1.92,1.69a2,2,0,0,1-.45,1.46l.11.79V170l-1.23,2.25v.12l.45.45-.45.33c.15,1.36.33,2,.56,2h.22c.23,0,.34-.22.34-.67q1,0,1.35,1.35a4.54,4.54,0,0,0-1.35.67h.57v1.69q.56,0,.78,1c-.45,0-.86.52-1.24,1.57v.34h.34l-.11.9v.23c0,.22.19.34.56.34l.23.11V183l-.34.46h-.22V183h-.23l.11,1.69c0,.75-.26,1.17-.79,1.24l-.45-.34-2,.34-1.24-.45-.23.56h-.56l-.34-.22.11-.23L282,184l-.22-.12c0-.29-.12-.44-.34-.44H280v.11l.33.45v.34c0,.6-.71,1.72-2.14,3.38,0,.3-.33.56-1,.78h-.23l-.67-.45-.11.12h-.23c-.08,0-1,.37-2.87,1.12s-3,1-3.44.79l3-2.82-4.28,2.48-.22.12q-.45,0-1.47,1.35h-.22l-.23-.23h-.11l.11-.22v-.57l-.79-.22-1.23,1.58h-.12l-.56-.34-.11.11h-.23l.23.23v.11l-1.24.9h-.11l-.46-.34H261l-.56.23-.45-.23a1.74,1.74,0,0,0-.34,1.24,6.7,6.7,0,0,0-2.93,1.91c-.52,0-.79.38-.79,1.13q-1,0-1.8,1.8c-.6,0-1,.42-1.13,1.24V200c-.37,0-.56.45-.56,1.36q-1,.56-2.59,5.18h-.56v.11l.33.45c-.37.38-.67,1.46-.9,3.27a6.07,6.07,0,0,0,1.13-1q6.42-6.75,8.67-7.43a33.84,33.84,0,0,1,8.23-4.51,10.53,10.53,0,0,1,3.94-2,11,11,0,0,1,4.39-1.57l.11-.34q6,0,9,3l1.68,1.13c2.33,2.55,3.5,4.32,3.5,5.29a2.16,2.16,0,0,1,.67,1.58v.79a1.88,1.88,0,0,1-.79,1.8v1.24a8.9,8.9,0,0,1-.9,4.39l.12.9-.12.9.68,1.58-.34.45.11,1.47-.45.33v.34q.45,0,1,.9c4.35.76,6.53,1.73,6.53,2.93a2.32,2.32,0,0,1,1.35,2l-.9,2c.3,0,.45.48.45,1.46-.52,2.48-1.13,3.72-1.8,3.72q-2.37,2.82-4.17,2.82a4.3,4.3,0,0,0-3.27,1.46,2.88,2.88,0,0,0-2.14.79l-1.12-.45-1.13.45h-.68l-.56-.23h-.45c-.6-.15-.9-.26-.9-.34l-.23.12h-.11l-1-.12-.45.12-.79-.12-.11.12h-.23l-1.46-.34-1.13.34c0-.45-.41-.68-1.24-.68V236h-.22l-1.81-.79-1,.23-.56-.45-.45.11c-.23-.3-1.17-.56-2.82-.79,0-.23-.52-.45-1.58-.68v-.11l-.33.11-3.61-1.24q-1.23,0-4.73-2.7h-.34a1.25,1.25,0,0,0-.67-1c-.45-.3-1.17-.75-2.14-1.35l-1.13-1q2.92-2.93,4.06-2.93a38.62,38.62,0,0,1,4.28-.9,14,14,0,0,1,3.38-1.57c0-.23.29-.42.9-.57h1.57c0-.37.12-.56.34-.56,0,.38.11.56.34.56h.11a.53.53,0,0,0-.45-.56c0-.23.49-.6,1.46-1.13v-.34l.34-1.12-.22-.9.67-2.93v-3.27c-.22-2.33-.64-3.49-1.24-3.49,0-.38-.11-.56-.33-.56l-.68.22-1-.22q-8.22,3.26-10.48,6.08L253,215a12.05,12.05,0,0,0-2.14,3.71l.34.45c-.15,0-.3.42-.45,1.24q-1.8.34-1.8,1.35a8.84,8.84,0,0,0-1.58,4.17c.3.38.68,1.92,1.13,4.62l.22.23v1c-.45,2.4-.79,3.68-1,3.83-.83,0-1.24.34-1.24,1-.53,0-1.2,1-2,2.93l-.79.34h-1.23c-1.43-.23-2.75-1.8-3.95-4.73l-.78-1.92.11-.45a5.82,5.82,0,0,1-.9-1.8l.33-.79-.11-1.24A7.61,7.61,0,0,1,238.5,226l-.22-.45c.37-1.65.79-3.19,1.24-4.61l-.23-.57,2.71-7.43c.37,0,.56-.38.56-1.13l3.71-6.65,1.92-2.81a42,42,0,0,1,6-8.11V194a16.39,16.39,0,0,0-3.72-1.12,13.46,13.46,0,0,0-3.38-1.24A80.16,80.16,0,0,1,238.5,186h-.67l-2.26,2.15a3.29,3.29,0,0,1-1.8,1.46c0,.15-.19.41-.56.79l.22.79a.88.88,0,0,0-.56.9h-.22l-.34-.34.56-.45V191a2,2,0,0,1-1.24-.45h-.45l.11.79L230.17,193l-.23-.11h-.22a3.87,3.87,0,0,1-1.69.79l-.34.56-.9-.45-.34.79q.45,0,.45.33v.34c0,.15-.15.23-.45.23l-.68-.23a3.47,3.47,0,0,0-2,1.13c-.3,0-.75.3-1.36.9a8.29,8.29,0,0,0-1.8,1c-.15-.45-.34-.67-.56-.67h-.45a5.46,5.46,0,0,1-2.59,1.46c-1.58.38-2.37.75-2.37,1.13a68.49,68.49,0,0,1-7.21,3.15h-.33v-.22l.22-.12v-.11l-.22-.22h-.46c0,.6-.37.94-1.12,1h-.45l-.34-.34a5,5,0,0,0,1-1.69h-.11l-.56.57-.12-.23h-.22l-1,.9a.8.8,0,0,1-.91.9V204l.79-.11-.22.22Z" transform="translate(-200.09 0)"/><path class="a" d="M276.24,340.6H276v-.22h.23Zm.11.57v.11c-.07.45-.23.68-.45.68H275v-.46a1.71,1.71,0,0,0,1.24-.56l.11.23Zm-1.8,3.71-.23.23h-.67l-.34-.45h1ZM270,359.19h.68v-1.58h-.23l-.45.45h-.45l.45,1.13ZM258.1,361h.34v-.56h-.34Zm-7.55-1c0,.15-.3.22-.9.22v.12h1.69v-.23l-.79-.11Zm-6.3,1.8h.9v-.34l-.79-.22Zm29.17-85.38.68-.23,3.72,1.13q1.8,0,4.39,2.7a10.06,10.06,0,0,1,3.83,3l.56,1.35-.22,1.47,1.57,1.35v.56c0,.31-.56.49-1.69.57l-.34.67.91,1.13c-.08.52-.53.79-1.36.79l-.22-.12a1.89,1.89,0,0,0-1.47.9,2.36,2.36,0,0,0,.68,1.36,3.94,3.94,0,0,0-.79,2.25,9.51,9.51,0,0,0-2.81.45l-.46-.22h-.22l-1,.44c0,.31-.08.46-.23.46l-.23-.12v-.22c-1.35.15-2,.49-2,1l-1.8.57-.91-.12c0,.6-.67.9-2,.9a11.69,11.69,0,0,1-2.48.79l-.9-.45V299c0,.22-2.71.86-8.11,1.91s-9.39,1.77-11.94,2.14c-.6.45-1.17,1.8-1.69,4.06q-1,3.72-1.8,4.17l.45,1.12-.79.68H245v.34l-.45,1.12.11.9h-.11l-.34.91-.34,1.23-.11.12h-.23l.23.22-.68,1.58v.11a.7.7,0,0,1,.79.79l.11.22h.79l5.86-3a12.12,12.12,0,0,1,3.72-1.57,4.54,4.54,0,0,0,1.46-1.47V314l2.36-2.14H259l.45.34h.45a4.89,4.89,0,0,0,2.37-.9l.45.33,2.48-.79.11.12.79-.12h.56v-.78l.57-.79.67.56.11-.11h.91l1.8,1,.34-.22h.11c.3.52,1.73.9,4.28,1.12a9.62,9.62,0,0,0,3,1.13l2,1c1.8.83,2.85,1.51,3.15,2,.38,0,1.13,1,2.25,2.93l.12.11V319l-.45.56.33.11H286l.45-.11V320c0,.22-.3.34-.9.34l-.23.56.11.11h.12l1.12-.11h.12V321l-.34.57-.57-.45h-.33v.22l-.12,1.58a1.4,1.4,0,0,0,.79,1.24v.67c-.37.6-1.5,1.24-3.38,1.92,0,.22-.79,1-2.36,2.36-.15.9-.49,1.36-1,1.36,0,.3-.26.45-.79.45-.22,1-.48,1.46-.78,1.46v1a2.26,2.26,0,0,0-.79,1.58l-.79.34v.45l.34.56-.45.45.11.79c-.22,0-.34.3-.34.9-.52,0-1.16.72-1.91,2.14v.57q.45,0,.45.33l-.23.79.23-.11h.56l.34.22-.23.23-.11-.23h-.22l-1.92,2,.23.23-.23.45c.22,0,.45.26.68.79l2.36-.68.45.23,2.82-.9h.79c0-.38.07-.57.22-.57h.11a2.47,2.47,0,0,0,1.81.57l.67-.34.57.22.22-.67.9.22h.34v.68h.56l2.14-1.92c.45.15.72.38.79.68l.12-.11H290l.11.11,1.24-.45c1.8.3,2.71.79,2.71,1.46h.33l1.58-.22q0,.45,2.37.45a1.88,1.88,0,0,1,.79,1.35h.11l.56-.34a22.36,22.36,0,0,1,3.38,1.13V347h1.13c.22,0,.37.27.45.79.52,0,.93.34,1.24,1q.78,0,4.16,3.71l.45,1.58v.11c0,.6-.11.9-.34.9l.23.57v2.14c-.45.82-.9,1.24-1.35,1.24L307,360.2l-.68-.22a11.53,11.53,0,0,1-3.15.34c0,.45-.56,1-1.69,1.57-.07.75-.72,1.13-1.92,1.13h-.33l-3.27.11a43.26,43.26,0,0,0-4.84-1.12l-5.75-1.92h-.45l-.34.34a2.51,2.51,0,0,1-1.46-.34h-1.24c-.15,0-.22.11-.22.34l-.12.22h-.33c-.68,0-1-.37-1-1.12l-.79-.11-.79.33-1.24-.22-.9.56-1-1h-.34c-.07,0-.23.41-.45,1.24l-.34.33c-.3,0-.45-.18-.45-.56h-.22a11.58,11.58,0,0,1-3.95.9h-.56l-1.24-.67c0,.22-.22.33-.67.33v.12l.22.22-.22.23h-.12c-.15,0-.22-.27-.22-.79a4.48,4.48,0,0,1-1.58.56h-.45l-.34-.22.57-.45-.9-.79-.46.22v.9c-.15.38-.52.57-1.12.57h-.23V361c0-.15.34-.26,1-.34v-.33c-.46,0-.72-.12-.79-.34l-.9-.23-.34.45v.12l.34.45-.34.22H261v-.67a2,2,0,0,0-1.69,1.12l-1.46.11-2.37-.11.34-.22V361l-1.13-.22-.9,1.24-.79-.12L249.2,363l-.11-.79c-.38,0-1,.41-1.8,1.24h-.11l-.12-.11-.9.34-.22-.23v-.11l-.12.11h-.22v-.34l-.11-.11c-1.13,0-1.69.11-1.69.34v.11l.11.23v.22l-.68.34-.67-.11-1.24.9h-.23l-.56-.34h-.34a3,3,0,0,1-1.69.34c0,.3-1,.86-3,1.69a14.16,14.16,0,0,0-4.5,1.57q-.79,0-5.07,2.26a10,10,0,0,0-3.38,1.46H219.8l-.33-.11-1,.34c0-.23-.45-.34-1.35-.34l-.22-.23h-1.13a6.44,6.44,0,0,1-2.48.57h-.34l-1.35-.23-.56.23c-3.61-1.36-5.41-2.52-5.41-3.5l-1.35-1.46c-.45-1.73-1-2.59-1.69-2.59l-.34-.45.11-1.24-1.12-.79.67-.45-.67-.56c.07-1.66.37-2.48.9-2.48h.11l1.58.22c.67-.45,1-.75,1-.9l.79.23,8.56-1.47,3.94-1.24.68.12,1-.12.9.12.57-.12.22.34h.23c1.5-.37,2.25-.64,2.25-.79a2.24,2.24,0,0,1,2.14-1.46q6.64-1.92,8.34-1.92l.34-.11v-.22l-.34-.12H235l.45.12H236q5.74-1.25,5.75-2.82c.45,0,.71-.38.79-1.13.82,0,1.27-.33,1.35-1,.45,0,1-.75,1.69-2.25q.33,0,5.07-9.8a2.63,2.63,0,0,1,.79-1.58v-.11l-.68-1.13L251,331c-.31,0-.46.26-.46.79a48.87,48.87,0,0,0-5.51,1.69c-1.06,0-2.67.67-4.85,2V336l.79-.22a3.52,3.52,0,0,1-.17,1.35c-.11.23-.56.45-1.35.68a9.92,9.92,0,0,1-3.66,0l-.56.22a14.42,14.42,0,0,1-4-1.24c-.6-.3-1.57-2.25-2.93-5.85l.12-.68-.12-.79.46-.67-.57-.57.23-.34-.12-.78.46-1-.57-.56c.3,0,.64-1.32,1-3.94a5.58,5.58,0,0,0,1.35-2.59q2.7-8.69,5.4-15.1v-.11c0-.45-1.05-.83-3.15-1.13l-4.51-2.36c-.6-.15-.9-.38-.9-.68l-.9.23h-.11a1.62,1.62,0,0,1-.9-1.36c-.23,0-.79-.82-1.69-2.47v-.12H224q-.78-3.25-2.25-4.16l-.34-1.47.11-.67-.11-.57.68-.34.11.23h.11l.79-.34.11.11a27.09,27.09,0,0,0,6.09-1.12l.78.34h.34q1.47,0,10.25-3.38l.45-.23q.57-.22,1.47-.51l2-.61q0-.45,1.8-.57c0-.22,3-1.07,9-2.53s9.5-2.39,10.48-2.76A7,7,0,0,1,269.7,276l3.72.45Z" transform="translate(-200.09 0)"/><path class="a" d="M263.62,450.47a.7.7,0,0,0,.17.34.77.77,0,0,1,.17.45.93.93,0,0,1-.23.68,1.12,1.12,0,0,0,.57-1v-.22a.8.8,0,0,1-.11-.34.94.94,0,0,0,1.23.39,1.12,1.12,0,0,0,.79-1.18,1.25,1.25,0,0,0-.33-.9v.22a1.15,1.15,0,0,1-.74,1.19.94.94,0,0,1-1.18-.28v.33l-.11-.11c-.15,0-.23,0-.23-.11v.56Zm-1,2.82a1.24,1.24,0,0,1-.34.9c.9.15,1.35-.26,1.35-1.24l-.22-.68a.87.87,0,0,1-1,.23,1.82,1.82,0,0,1,.23.79m-1-1.13a.71.71,0,0,1,.46.11c-.16-.14-.23-.26-.23-.33Zm-3,58.58h-.33v-.34h.33Zm0-16.11.12-.23v-.22h-.46l.34.45Zm-3.26-24.44h-.23v-.34h.23Zm-.34-6.88-.12-.11V463H255Zm-1.24-2.92v-.34c-.15.15-.22.26-.22.34ZM248,470.86a1.13,1.13,0,0,1-.51,1.07,1.19,1.19,0,0,1-1.07.06c.07.75.43,1.12,1.07,1.12a1.12,1.12,0,0,0,1.18-1h.11l.23.11V472a1,1,0,0,0,.73-1,1,1,0,0,0-.51-1.07.35.35,0,0,0,.23-.11q.56.9,1.35.45a.5.5,0,0,0,.11.34.31.31,0,0,1,.12.22,1.13,1.13,0,0,1-.9,1.24c.74,0,1.12-.41,1.12-1.24l-.22-.67a1,1,0,0,0,.56-1,1,1,0,0,0-.56-1,1.07,1.07,0,0,0,.79-.79v.11c.07-.3.29-.45.67-.45a1.56,1.56,0,0,1-.11-.79,1.13,1.13,0,0,1,.73-1.18.9.9,0,0,1,1.18.39,2.35,2.35,0,0,0,.34-.67l.11-.45a1.11,1.11,0,0,0,.23-.79v-.11a1,1,0,0,0,1-.34v-.23c0-.9.45-1.27,1.35-1.12l-.22-.68c.07,0,.26-.15.56-.45a.93.93,0,0,0,.62-.84,1,1,0,0,0-.39-1c.52.37,1,.19,1.46-.57a1.13,1.13,0,0,0,1.24.17,1.14,1.14,0,0,0,.68-1.18c0-.75-.34-1.14-1-1.18a1.09,1.09,0,0,0-1.24,1l-.11.11v.11c0,1-.45,1.39-1.35,1.24v.11a.45.45,0,0,1-.34-.11h-.45a1.52,1.52,0,0,0-1.13.68c.23.07.34.33.34.78a1,1,0,0,1-.11.57,3.59,3.59,0,0,0,.9.22h.34a1.24,1.24,0,0,1-1.47.34v-.22a1.07,1.07,0,0,1-.79.33.45.45,0,0,1,.12.34c0,.6-.21,1-.62,1.13a1.33,1.33,0,0,1-1.18-.11.53.53,0,0,0-.45.56c-1,.15-1.36.71-.9,1.69-.53.07-.79.41-.79,1h-.12a.64.64,0,0,1,.12.45c0,1-.46,1.39-1.36,1.24,0,.08.15.27.46.56H250a.31.31,0,0,1-.22.12,1.88,1.88,0,0,0-1-.12,5.53,5.53,0,0,1,.23.79,1.18,1.18,0,0,1-.34.9h-.79a.45.45,0,0,0-.34.12h-.11a1.53,1.53,0,0,1,.57,1m-2.26,4.84c.08-.45.41-.67,1-.67v-.23a1.34,1.34,0,0,1-.79-.79l-.45-.45c-.3.08-.45.38-.45.91a1.39,1.39,0,0,0,.67,1.23m-1,.46a1.11,1.11,0,0,1-1.13,1.23,1,1,0,0,0,.68.34,1.08,1.08,0,0,1,1-.34,1.18,1.18,0,0,0,.34-.9c0-.9-.41-1.27-1.24-1.12.22.07.34.34.34.79m-5.63-34.7H239v-.34h.12ZM236.47,504h.34v-.23h-.11ZM232,449.12h-.68v-.34H232Zm-1.69,1.58V451h-.79l.34-.34Zm-1.69,2.93v.11l-.23-.34v-.23Zm-3.27,2.48v.22l-.78.56c0,.3-.12.45-.34.45h-.12v-.22l1.13-1Zm-2.36,2h-.23v-.34Zm-.23-2h.12l.33-.34v-.12h-.45Zm-2.14,5.18-.56.45h-.9v-.23a8.66,8.66,0,0,0,1.13-.34Zm-2.14-.12.34-.56v-.11h-.34Zm-16.78,8h-.11v-.34h.11ZM235.12,418l1.58-.22c1.43,1.05,3.64,1.72,6.65,2a15,15,0,0,1,5.63,2.82.49.49,0,0,0,.56.56,3.35,3.35,0,0,1,1.13,2.37v.34l-.12.67.57,1q0,1.45-2.37,2.25l-2.36,3.38c-.38,0-1,.52-1.8,1.57-1.81.53-2.71,1.17-2.71,1.92l-.79,1.69a2.53,2.53,0,0,1-1.24,2l-1-.12v.12l.11.33h-.11c-.23,0-.64.31-1.24.91h.68a19.28,19.28,0,0,1,10,3.15c.53.45.79.79.79,1l.45-.11a6.75,6.75,0,0,1,2.37,1.47A42,42,0,0,1,255.4,451c.3,0,.75,1,1.35,2.92.15,0,.23.12.23.34l9.12-12.16-1.47-1.24-1.35-2.14-.9-2.93.23-.12v-.22a6.59,6.59,0,0,1-1.35-3.72l.22-.67c-.45,0-.64-1.62-.56-4.85v-.79l.22-.11a33.89,33.89,0,0,1-.56-6,3.47,3.47,0,0,0-3.15-2.14c-1.73-1.05-2.56-2.14-2.48-3.26l-.34-.68.22-.79-1-.11c0-.3.23-.38.68-.23v-.11c-.53-.08-.79-.22-.79-.45.15-.37.6-.56,1.35-.56v-.12l-.34-.56V410l.23-.11v-.22h-.34A41.15,41.15,0,0,1,260,407c.75-.15,2.14-.35,4.16-.62l4.06-.51a12.14,12.14,0,0,1,3.38-.33l5.86,2.36q1.57.35,4.5,3.16.57.22,2.26,4.05l-.12,1.58-.22.34.22.79a84.45,84.45,0,0,0,.34,10l-.11.79V429l.79.11a8.43,8.43,0,0,0,3.15-2.59c-.23-.9.32-1.65,1.63-2.25a11,11,0,0,1,3.1-1l.23-.11.79.11,1.35.23q.78-.35.78-.9h.12l1.8.22a1.84,1.84,0,0,1,1.13-.67,5.18,5.18,0,0,1,3.15,1.46q.67.12,3.83,3.27a2,2,0,0,1,.56,1.12,6.65,6.65,0,0,1,.06,1.58c0,.6-.06,1-.06,1.13l-.11.45a3.7,3.7,0,0,1-.62,1.41,1.17,1.17,0,0,1-1.18.39l-.11.11a1.06,1.06,0,0,1-.79.79c-.3.53-.56.79-.79.79-.08.52-.45.86-1.13,1a.45.45,0,0,1,.12.34,1.13,1.13,0,0,1-.74,1.18.93.93,0,0,1-1.18-.28.7.7,0,0,0-.34.17,2.76,2.76,0,0,1-.45.28c-.37.91-.9,1.17-1.58.79a2.41,2.41,0,0,1-2.7,1.8c-.45.6-1.8,1.05-4.05,1.36a6.05,6.05,0,0,1-2.93,1.12c-2.48.9-3.91,1.39-4.28,1.47-1.13.67-2.22,1.39-3.27,2.14a10.83,10.83,0,0,0-2,1c-.75-.07-1.12,0-1.12.34l-.34.45-1-.23a28.32,28.32,0,0,0-2.37,3.33c-1.2,1.84-1.95,2.79-2.25,2.87q1.35-4.28-3.27-.34l.11.23c0,.15-.3.34-.9.56l-.34.67c-.22.38-.45.57-.67.57l-.56.79a5.25,5.25,0,0,1-1.13,1.46c0,.23-.19.34-.56.34v.45l.44.34-.44.45.22.11v.23c-.23.6-.45.9-.68.9h-.22q-.35,0-.45-.45a1.3,1.3,0,0,1-.9.45c-.08.45-.42.67-1,.67l-.11.12.34.45-.34.9h.68v.22c-.15.45-.87.83-2.14,1.13,0,.6-.27.9-.79.9-1.13.3-1.69.57-1.69.79l-.23-.11h-.22l-.34.34v.22l.45.22v.23a1.19,1.19,0,0,1-1.13.56c-.3,0-.45.08-.45.23l.45.22c0,.46-.37.68-1.12.68v.45H255l-.12.56-.11.79.11.12-.11.22h-.22l-.9-.22.11.78-.11.23-1.13,1.12v.34H253v.45l-.9-.22-.11.22v.34l.79-.11v.11c-.45.45-.68.79-.68,1a1.24,1.24,0,0,0-1.24.78l.12,1c0,.37-.68,1-2,1.8l.22,1q-.78,0-.78,1.47l-1.24.67-.23.12v.11l.11.79a1.32,1.32,0,0,1-1.35,1c0,.23.15.34.45.34l.11.23v.11a10.79,10.79,0,0,0-1.46,3.94l-.22,2-.12.45a14.58,14.58,0,0,0,3.72,1.86,11.86,11.86,0,0,0,3.49.84,6.33,6.33,0,0,0,1.92.45h2.14l1.35-.22,1.46.56c.15-.38.9-.79,2.26-1.24,0-.3.67-.6,2-.9a1.31,1.31,0,0,1,1.13-.79l.11-.34-.34-.56,1.81-1.24v-.11a2.89,2.89,0,0,0-.45-1.24l.22-.23-.22-.11v-.22a12.67,12.67,0,0,0,2.25-6.09v-.33c0-1.66-.45-2.67-1.35-3.05,0-.3-.25-.58-.73-.84s-1.28-.64-2.37-1.13-1.75-.77-2-.84q-3.5-2.37-3.72-3.61l1.92-1.46-.12-.57h.23q.45.12,1.35-.78l1.92-.57-.34-.11v-.11q0-.33,11-1h.33a22.39,22.39,0,0,1,10.59,3.16,20.08,20.08,0,0,1,2.14,2,4.13,4.13,0,0,1,.79,2.14,4,4,0,0,1,1.47,3.83l-.23.11a26.33,26.33,0,0,0,1.24,3.94h-.23v.12l-.22,4.39-1.92,2.36a7.73,7.73,0,0,1-2.13,1c0,.6-.16.9-.46.9h-.11l-.56-.23h-.23a5.88,5.88,0,0,1-1.8.12l-.79.67.34.45v.34l-1.13,1.92.23.67a5.29,5.29,0,0,1-1.69,2.7,5.15,5.15,0,0,0-1.35,1.47c-.6-.15-1,0-1.13.56v.9L273,503.87l-4.28,2.47c0,.45-.6.68-1.8.68l-.11.11h-1.13l-.79.23.11.79-.45.45h-.79l-.9-.23a2.38,2.38,0,0,0-.45.79,4.17,4.17,0,0,0-.33.56h-.79v-.33q.45.11.45,0v-.23l-.23-.11c-.52.07-1.13.82-1.8,2.25h-.45v-.23l.11-.56c-.22,0-.34-.19-.34-.56l-.22-.23h-.11c0,.3-.23.45-.68.45l-.56-.33a5.61,5.61,0,0,1-3.27,1.57l-.79-.34-1.12.46h-.79a19.58,19.58,0,0,0-2-1.24l-.9.11a37.43,37.43,0,0,0-4.34-1.63,29.92,29.92,0,0,0-5-1.53c0-.6-.68-.93-2-1l-1.35-1.69c.45,0,.67-.19.67-.56h-.11c-1.72-.6-2.51-1.54-2.36-2.82q-1-1.12-1-4.5h-.11l.23-.68v-1.35c.15-2.86.56-4.28,1.24-4.28l.11-.34-.45-.11c.22-2.33.64-3.5,1.24-3.5v-.78c.45-.15,1-1.43,1.69-3.83l1.46-2q.23,0,1.92-3.72l1.23-1.24.46.12.11-.12v-.11l-.11-.79.33-.9-.22-.11c.45,0,1.09-.71,1.91-2.14.15,0,.23-.23.23-.68.6,0,1.35-1,2.25-3,.15,0,.56-.45,1.24-1.35.67,0,1-.37,1-1.13l1.92-2.48,1.69-1.8c.22,0,.34-.22.34-.67a3.48,3.48,0,0,0,1-.79h-.11l-2.14-.23c-.15,0-.68.45-1.58,1.35h-.56a8,8,0,0,0-2.93-.67,5.74,5.74,0,0,1-2.59-1.47c-1.51-.52-3.42-2.17-5.75-5a8.59,8.59,0,0,1-2.25-1.69,5.34,5.34,0,0,1-.51-.79c-.26-.45-.64-1-1.12-1.69s-1-1.39-1.64-2.14h-.11q-1.92.57-1.92.9v.23l1.13-.45c0,.6-.75,1.46-2.25,2.59-.3,0-.83.6-1.58,1.8l-.56.11-.23-.11-.34.45.34.34v.11c-.52,0-.79.11-.79.34l-1,.9h.34l.11-.11h.11l.45.33h1l.34-.22.56.45-.11.11h-1.58l.22.79a9.24,9.24,0,0,0-2.7,1.24h-.34l-.11-.22h-.11c0,.52-.23.78-.68.78,0,.38-.52.76-1.57,1.13l-.12-.23.12-.22v-.23h-.34c-.08.53-.23.79-.45.79l-.57-.11-.45.67v.12l1,.34-.68,1,.57.11v.23a2.23,2.23,0,0,0-1.81,1.12c.23,0,.34.27.34.79l-1.13.45c0-.22-.37-.45-1.12-.67l-.45,1.24-.79-.23.22.23v.11c-.9,0-1.35.41-1.35,1.24-1,2.55-2.59,3.83-4.84,3.83a6.43,6.43,0,0,1-3.27,1l-2.14-.79h-.79c0-.22-.19-.33-.56-.33l-.23-.12h-.67l-1,.23h.23v.22l-.45.34.11.79-.22.23h-.23v-2.82a2.67,2.67,0,0,0,.56-1.58l-.22-.22a4.24,4.24,0,0,0,1.8-2.71c1.13,0,2-1.23,2.48-3.71h.34v.33l.22,1-.34.34.12.22h.22c.23,0,.38-.37.45-1.13h.12l.22.12h.11l.34-.57,1.13.45,1.69-1.12.22.22v-.22l.23.45h.56c1.58-1.5,2.37-2.4,2.37-2.71a11.89,11.89,0,0,0,1.8-3.38.69.69,0,0,0,.79-.78l3.49-5.18,3.94-7.55v-.23h-2c-.75,0-4.09-1.53-10-4.62a25.24,25.24,0,0,1-3-5.4c.22,0,.45-.6.67-1.8a3.64,3.64,0,0,0,1-2.37,7.39,7.39,0,0,1,2.14-.79l1.69.23,1.8-.45.9.11h2.48l.11.11q1.92,0,9.58-2.59c0-.22.3-.41.9-.56a2.09,2.09,0,0,1,1.57-.9q.45-.79,3.72-2.37l.23-.22.67.22Z" transform="translate(-200.09 0)"/></svg>