<?xml version="1.0" encoding="UTF-8" standalone="no"?><!DOCTYPE svg PUBLIC "-//W3C//DTD SVG 1.1//EN" "http://www.w3.org/Graphics/SVG/1.1/DTD/svg11.dtd"><svg width="100%" height="100%" viewBox="0 0 250 91" version="1.1" xmlns="http://www.w3.org/2000/svg" xmlns:xlink="http://www.w3.org/1999/xlink" xml:space="preserve" xmlns:serif="http://www.serif.com/" style="fill-rule:evenodd;clip-rule:evenodd;stroke-linejoin:round;stroke-miterlimit:2;"><path d="M142.692,55.684l2.17,-2.422l11.504,-13.414l-0,-2.359l-17.356,0l-0,2.879l8.676,0c1.186,0 2.498,0 4.012,-0.061l-13.475,15.377l-0,2.882l18.733,0l-0,-3.077l-9.727,0c-1.447,0 -2.961,0.065 -4.537,0.195" style="fill:#2a3890;fill-rule:nonzero;"/><path d="M131.979,46l-11.836,-0c0.133,-1.832 0.725,-3.271 1.846,-4.386c1.113,-1.113 2.498,-1.637 4.074,-1.637l0.131,-0c1.777,-0 3.285,0.655 4.402,2.031c0.723,0.914 1.186,2.222 1.383,3.992Zm-5.852,-8.965l-0.064,-0c-2.893,-0 -5.262,0.981 -7.1,2.942c-1.841,1.964 -2.694,4.714 -2.694,8.25c-0,3.402 0.853,6.084 2.694,7.983c1.776,1.832 4.139,2.812 7.1,2.812l0.262,-0c2.429,-0 4.468,-0.589 6.047,-1.767c1.578,-1.177 2.691,-2.877 3.287,-5.041l-3.748,-0.457c-0.528,1.506 -1.248,2.621 -2.233,3.338c-0.924,0.655 -2.039,1.05 -3.353,1.05c-0.067,-0 -0.198,-0 -0.262,-0.067c-1.645,-0.064 -3.027,-0.656 -4.143,-1.832c-1.181,-1.177 -1.841,-3.013 -1.972,-5.303l15.777,-0l-0,-0.98c-0,-3.468 -0.855,-6.154 -2.693,-8.051c-1.776,-1.963 -4.076,-2.877 -6.905,-2.877" style="fill:#2a3890;fill-rule:nonzero;"/><rect x="108.314" y="29.441" width="3.616" height="4.189" style="fill:#2a3890;"/><path d="M108.314,59.612c0,1.964 -0.13,3.209 -0.526,3.666c-0.328,0.459 -0.92,0.719 -1.644,0.719c-0.393,-0 -0.985,-0.131 -1.579,-0.26l-0.722,3.011c0.923,0.264 1.776,0.392 2.763,0.392c2.037,-0 3.415,-0.655 4.338,-1.964c0.653,-1.048 0.986,-2.877 0.986,-5.433l0,-22.251l-3.616,-0l0,22.12Z" style="fill:#2a3890;fill-rule:nonzero;"/><path d="M99.441,29.311l-4.733,-0l-2.632,5.56l2.959,-0l4.406,-5.56Z" style="fill:#2a3890;fill-rule:nonzero;"/><path d="M172.733,54.18c-1.117,1.309 -2.434,1.963 -4.012,1.963l-0.062,0c-1.512,-0.066 -2.897,-0.721 -4.01,-2.029c-1.117,-1.309 -1.715,-3.338 -1.715,-6.085c-0,-2.751 0.529,-4.843 1.649,-6.089c1.048,-1.308 2.365,-1.964 3.943,-1.964l0.133,0c1.576,0 2.957,0.723 4.011,2.032c1.114,1.375 1.708,3.467 1.708,6.348c-0,2.616 -0.594,4.579 -1.645,5.824m1.314,-14.271c-0.591,-0.849 -1.443,-1.566 -2.431,-2.094c-0.856,-0.454 -1.842,-0.718 -2.957,-0.781l-0.461,0c-1.713,0 -3.287,0.458 -4.735,1.372c-1.376,0.916 -2.429,2.226 -3.154,3.926c-0.717,1.703 -1.051,3.6 -1.051,5.697c-0,2.157 0.395,4.055 1.18,5.761c0.793,1.632 1.844,2.944 3.289,3.858c1.379,0.915 2.957,1.374 4.668,1.374l0.264,0c2.431,-0.066 4.336,-1.113 5.65,-3.143l-0,2.684l3.287,0l-0,-29.123l-3.549,0l-0,10.469Z" style="fill:#2a3890;fill-rule:nonzero;"/><path d="M99.243,48.813c0,1.766 -0.197,3.143 -0.591,4.123c-0.394,0.914 -1.054,1.639 -2.036,2.226c-0.923,0.52 -1.975,0.786 -3.027,0.786c-1.052,0 -1.971,-0.266 -2.694,-0.786c-0.723,-0.525 -1.249,-1.245 -1.446,-2.226c-0.13,-0.655 -0.199,-1.896 -0.199,-3.729l0,-11.715l-3.615,0l0,13.087c0,1.505 0.067,2.62 0.201,3.338c0.26,1.048 0.589,1.898 1.115,2.62c0.524,0.717 1.315,1.308 2.431,1.765c1.051,0.525 2.236,0.72 3.486,0.72c2.825,0 5.059,-1.177 6.704,-3.533l0,3.074l3.222,0l0,-21.071l-3.551,0l0,11.321Z" style="fill:#2a3890;fill-rule:nonzero;"/><path d="M247.866,55.359c-0.658,0.13 -1.184,0.13 -1.576,0.13c-0.526,-0 -0.924,-0.067 -1.25,-0.263c-0.26,-0.129 -0.457,-0.392 -0.592,-0.651c-0.129,-0.331 -0.197,-0.983 -0.197,-1.966l-0,-12.301l3.615,-0l-0,-2.818l-3.615,-0l-0,-7.328l-3.549,2.093l-0,5.235l-2.635,-0l-0,2.818l2.635,-0l-0,12.104c-0,2.163 0.133,3.538 0.393,4.189c0.328,0.654 0.855,1.245 1.513,1.639c0.723,0.39 1.774,0.587 3.09,0.587c0.785,-0 1.643,-0.067 2.695,-0.26l-0.527,-3.208Z" style="fill:#8cc63f;fill-rule:nonzero;"/><path d="M231.827,46l-11.834,-0c0.137,-1.832 0.791,-3.271 1.91,-4.386c1.117,-1.113 2.43,-1.637 4.01,-1.637l0.129,-0c1.842,-0 3.289,0.655 4.473,2.031c0.724,0.914 1.181,2.222 1.312,3.992Zm-5.85,-8.965l-0.064,-0c-2.893,-0 -5.197,0.981 -7.035,2.942c-1.84,1.964 -2.76,4.714 -2.76,8.25c-0,3.402 0.92,6.084 2.695,7.983c1.774,1.832 4.137,2.812 7.1,2.812l0.26,-0c2.498,-0 4.537,-0.589 6.115,-1.767c1.574,-1.177 2.631,-2.877 3.221,-5.041l-3.682,-0.457c-0.588,1.506 -1.312,2.621 -2.232,3.338c-0.924,0.655 -2.037,1.05 -3.356,1.05c-0.133,-0 -0.197,-0 -0.326,-0.067c-1.643,-0.064 -2.963,-0.656 -4.08,-1.832c-1.246,-1.177 -1.902,-3.013 -2.033,-5.303l15.842,-0l-0,-0.98c-0,-3.468 -0.92,-6.154 -2.698,-8.051c-1.773,-1.963 -4.072,-2.877 -6.967,-2.877" style="fill:#8cc63f;fill-rule:nonzero;"/><rect x="183.717" y="54.645" width="4.076" height="4.057" style="fill:#8cc63f;"/><path d="M210.465,39.521c-0.525,-0.788 -1.316,-1.375 -2.371,-1.833c-1.049,-0.459 -2.233,-0.654 -3.549,-0.654c-2.889,0 -5.127,1.112 -6.703,3.468l0,-3.01l-3.219,0l0,21.071l3.551,0l0,-11.518c0,-2.681 0.586,-4.516 1.705,-5.495c1.119,-0.983 2.434,-1.442 3.945,-1.442c0.918,0 1.776,0.197 2.498,0.654c0.723,0.391 1.18,0.984 1.51,1.703c0.262,0.721 0.395,1.832 0.395,3.272l0,12.826l3.617,0l0,-12.954c0,-1.639 -0.131,-2.817 -0.195,-3.471c-0.266,-1.045 -0.594,-1.9 -1.184,-2.617" style="fill:#8cc63f;fill-rule:nonzero;"/><path d="M39.452,13.95c0,7.699 6.251,13.95 13.95,13.95c7.699,0 13.95,-6.251 13.95,-13.95c0,-7.699 -6.251,-13.95 -13.95,-13.95c-7.699,0 -13.95,6.251 -13.95,13.95Z" style="fill:url(#_Radial1);"/><path d="M0,13.953c-0.004,3.851 1.558,7.34 4.086,9.861c0,0.002 -0.006,0.002 -0.006,0.002c2.527,2.525 4.087,6.012 4.087,9.863c0,3.853 -1.56,7.34 -4.085,9.861c-2.524,2.525 -4.082,6.017 -4.082,9.865c0,7.703 6.249,13.949 13.945,13.949c1.674,-0.001 3.255,-0.342 4.735,-0.882c0.23,-0.082 0.477,-0.119 0.699,-0.211c0.161,-0.072 0.304,-0.18 0.465,-0.258c1.472,-0.689 2.831,-1.594 3.966,-2.733l0.006,-0c2.521,-2.526 6.006,-4.084 9.859,-4.086c3.848,0 7.335,1.562 9.86,4.09l0.007,-0.004c2.524,2.521 6.006,4.084 9.858,4.084c7.706,0 13.949,-6.25 13.949,-13.945c0.003,-7.702 -6.245,-13.953 -13.946,-13.953c-3.855,0 -7.34,1.563 -9.865,4.084l-0.003,0.004c-2.525,2.525 -6.011,4.082 -9.862,4.082c-3.849,0 -7.336,-1.561 -9.861,-4.082l-0.001,-0.001l-0.001,0.001c0.001,0 0.001,-0.001 0.001,-0.001c-2.524,-2.525 -4.083,-6.013 -4.085,-9.864c0.002,-3.851 1.56,-7.338 4.084,-9.861c0,-0.002 0,-0.002 0.002,-0.004c2.521,-2.521 4.081,-6.01 4.081,-9.863c0,-7.706 -6.244,-13.949 -13.946,-13.951c-7.704,0 -13.949,6.245 -13.947,13.953Zm23.811,29.59c0.001,-0.002 0.001,0.001 0.001,0.001l0,-0.003c0,0 -0.001,0.001 -0.001,0.002Z" style="fill:url(#_Linear2);fill-rule:nonzero;"/><path d="M6.456,78.73c-0.456,1.046 -0.899,2.107 -1.331,3.184c-0.432,1.077 -0.879,2.238 -1.341,3.484l5.374,-0c-0.465,-1.248 -0.918,-2.411 -1.358,-3.489c-0.441,-1.078 -0.888,-2.137 -1.344,-3.179m4.333,11.174c-0.24,-0.618 -0.461,-1.213 -0.663,-1.784c-0.202,-0.572 -0.395,-1.127 -0.579,-1.668l-6.151,-0c-0.21,0.544 -0.416,1.101 -0.616,1.673c-0.201,0.571 -0.414,1.164 -0.639,1.779l-1.29,-0c0.478,-1.311 0.93,-2.532 1.355,-3.664c0.425,-1.132 0.843,-2.203 1.251,-3.213c0.409,-1.01 0.815,-1.981 1.219,-2.912c0.403,-0.931 0.826,-1.865 1.271,-2.802l1.089,-0c0.444,0.932 0.866,1.865 1.264,2.798c0.399,0.933 0.803,1.905 1.214,2.914c0.41,1.01 0.826,2.081 1.247,3.215c0.421,1.133 0.885,2.354 1.391,3.664l-1.363,-0Z" style="fill:#939598;fill-rule:nonzero;"/><path d="M31.756,88.087c-0.122,-0.303 -0.295,-0.703 -0.52,-1.199c-0.225,-0.497 -0.478,-1.039 -0.757,-1.627c-0.28,-0.587 -0.566,-1.193 -0.858,-1.817c-0.292,-0.623 -0.572,-1.208 -0.84,-1.753c-0.267,-0.545 -0.504,-1.023 -0.711,-1.435c-0.207,-0.412 -0.359,-0.703 -0.457,-0.872c-0.157,1.514 -0.281,3.158 -0.372,4.932c-0.09,1.775 -0.173,3.637 -0.245,5.587l-1.218,0c0.11,-2.289 0.234,-4.481 0.373,-6.577c0.139,-2.095 0.312,-4.099 0.518,-6.013l1.09,0c0.364,0.605 0.752,1.305 1.165,2.098c0.413,0.793 0.822,1.617 1.229,2.471c0.406,0.854 0.801,1.696 1.183,2.525c0.382,0.83 0.719,1.578 1.011,2.244c0.291,-0.666 0.628,-1.414 1.01,-2.244c0.382,-0.829 0.777,-1.671 1.183,-2.525c0.407,-0.854 0.817,-1.678 1.229,-2.471c0.413,-0.793 0.801,-1.493 1.165,-2.098l1.036,0c0.206,1.914 0.378,3.918 0.517,6.013c0.14,2.096 0.264,4.288 0.373,6.577l-1.253,0c-0.073,-1.95 -0.155,-3.812 -0.246,-5.587c-0.091,-1.774 -0.215,-3.418 -0.372,-4.932c-0.097,0.169 -0.249,0.46 -0.455,0.872c-0.206,0.412 -0.442,0.89 -0.708,1.435c-0.267,0.545 -0.545,1.13 -0.836,1.753c-0.291,0.624 -0.575,1.23 -0.854,1.817c-0.278,0.588 -0.53,1.13 -0.754,1.627c-0.224,0.496 -0.397,0.896 -0.518,1.199l-1.108,0Z" style="fill:#939598;fill-rule:nonzero;"/><path d="M51.378,74.787c-0,-0.339 -0.1,-0.603 -0.3,-0.791c-0.2,-0.187 -0.445,-0.281 -0.736,-0.281c-0.29,0 -0.535,0.094 -0.735,0.281c-0.2,0.188 -0.3,0.452 -0.3,0.791c-0,0.351 0.1,0.618 0.3,0.799c0.2,0.182 0.445,0.273 0.735,0.273c0.291,0 0.536,-0.091 0.736,-0.273c0.2,-0.181 0.3,-0.448 0.3,-0.799m0.69,0c-0,0.266 -0.045,0.506 -0.136,0.717c-0.091,0.213 -0.215,0.394 -0.372,0.546c-0.158,0.151 -0.343,0.269 -0.555,0.354c-0.211,0.085 -0.433,0.127 -0.663,0.127c-0.472,0 -0.881,-0.157 -1.226,-0.473c-0.345,-0.314 -0.518,-0.738 -0.518,-1.271c-0,-0.521 0.173,-0.939 0.518,-1.254c0.345,-0.315 0.754,-0.472 1.226,-0.472c0.23,0 0.452,0.042 0.663,0.127c0.212,0.085 0.397,0.203 0.555,0.354c0.157,0.152 0.281,0.333 0.372,0.545c0.091,0.212 0.136,0.446 0.136,0.7m-1.726,15.389c-0.835,0 -1.547,-0.127 -2.134,-0.382c-0.588,-0.254 -1.063,-0.606 -1.427,-1.054c-0.363,-0.447 -0.627,-0.972 -0.79,-1.571c-0.163,-0.6 -0.245,-1.245 -0.245,-1.935l-0,-7.922l1.235,0l-0,7.758c-0,0.691 0.082,1.287 0.246,1.79c0.163,0.502 0.39,0.917 0.681,1.244c0.291,0.328 0.642,0.57 1.053,0.727c0.412,0.158 0.873,0.236 1.381,0.236c0.509,0 0.97,-0.078 1.381,-0.236c0.412,-0.157 0.763,-0.399 1.054,-0.727c0.291,-0.327 0.518,-0.742 0.682,-1.244c0.163,-0.503 0.245,-1.099 0.245,-1.79l-0,-7.758l1.235,0l-0,7.922c-0,0.69 -0.082,1.335 -0.245,1.935c-0.164,0.599 -0.427,1.124 -0.791,1.571c-0.363,0.448 -0.838,0.8 -1.426,1.054c-0.587,0.255 -1.299,0.382 -2.135,0.382" style="fill:#939598;fill-rule:nonzero;"/><path d="M65.722,74.914l1.896,-1.744l0.511,0.563l-2.407,2.671l-2.408,-2.671l0.511,-0.563l1.897,1.744Zm4.061,3.525c-0.291,0.339 -0.627,0.751 -1.008,1.235c-0.382,0.485 -0.79,1.015 -1.226,1.59c-0.436,0.575 -0.881,1.187 -1.335,1.835c-0.453,0.648 -0.902,1.302 -1.343,1.962c-0.442,0.661 -0.859,1.311 -1.253,1.954c-0.394,0.642 -0.748,1.247 -1.062,1.816l7.408,0l0,1.072l-8.757,0l0,-0.926c0.266,-0.521 0.584,-1.093 0.953,-1.717c0.37,-0.624 0.767,-1.266 1.191,-1.926c0.424,-0.66 0.866,-1.323 1.326,-1.99c0.46,-0.666 0.915,-1.305 1.363,-1.916c0.448,-0.612 0.875,-1.179 1.281,-1.699c0.405,-0.521 0.778,-0.969 1.117,-1.345l-6.886,0l0,-1.072l8.231,0l0,1.127Z" style="fill:#939598;fill-rule:nonzero;"/><path d="M76.324,89.904l-0,-12.591l7.268,-0l-0,1.072l-6.033,-0l-0,4.379l5.378,-0l-0,1.054l-5.378,-0l-0,5.014l6.505,-0l-0,1.072l-7.74,-0Z" style="fill:#939598;fill-rule:nonzero;"/><path d="M98.398,77.313l0,1.072l-4.033,-0l0,11.519l-1.236,-0l0,-11.519l-4.033,-0l0,-1.072l9.302,-0Z" style="fill:#939598;fill-rule:nonzero;"/><path d="M104.357,89.904l0,-12.591l7.268,-0l0,1.072l-6.033,-0l0,4.379l5.378,-0l0,1.054l-5.378,-0l0,5.014l6.505,-0l0,1.072l-7.74,-0Z" style="fill:#939598;fill-rule:nonzero;"/><path d="M134.573,77.313l-0,1.072l-4.034,-0l-0,11.519l-1.236,-0l-0,-11.519l-4.033,-0l-0,-1.072l9.303,-0Z" style="fill:#939598;fill-rule:nonzero;"/><path d="M150.233,83.599c-0,-0.848 -0.109,-1.608 -0.327,-2.28c-0.218,-0.672 -0.527,-1.244 -0.927,-1.717c-0.399,-0.472 -0.881,-0.833 -1.444,-1.081c-0.563,-0.248 -1.197,-0.373 -1.899,-0.373c-0.702,-0 -1.335,0.125 -1.898,0.373c-0.564,0.248 -1.045,0.609 -1.444,1.081c-0.401,0.473 -0.709,1.045 -0.927,1.717c-0.218,0.672 -0.327,1.432 -0.327,2.28c-0,0.848 0.109,1.608 0.327,2.28c0.218,0.673 0.526,1.245 0.927,1.717c0.399,0.473 0.88,0.836 1.444,1.09c0.563,0.255 1.196,0.382 1.898,0.382c0.702,-0 1.336,-0.127 1.899,-0.382c0.563,-0.254 1.045,-0.617 1.444,-1.09c0.4,-0.472 0.709,-1.044 0.927,-1.717c0.218,-0.672 0.327,-1.432 0.327,-2.28m1.309,-0c-0,1.078 -0.159,2.029 -0.473,2.853c-0.315,0.823 -0.742,1.51 -1.281,2.062c-0.539,0.551 -1.166,0.966 -1.88,1.244c-0.715,0.279 -1.472,0.418 -2.272,0.418c-0.799,-0 -1.556,-0.139 -2.271,-0.418c-0.715,-0.278 -1.341,-0.693 -1.88,-1.244c-0.539,-0.552 -0.966,-1.239 -1.281,-2.062c-0.315,-0.824 -0.473,-1.775 -0.473,-2.853c-0,-1.078 0.158,-2.026 0.473,-2.843c0.315,-0.818 0.742,-1.502 1.281,-2.053c0.539,-0.551 1.165,-0.966 1.88,-1.245c0.715,-0.278 1.472,-0.418 2.271,-0.418c0.8,-0 1.557,0.14 2.272,0.418c0.714,0.279 1.341,0.694 1.88,1.245c0.539,0.551 0.966,1.235 1.281,2.053c0.314,0.817 0.473,1.765 0.473,2.843" style="fill:#939598;fill-rule:nonzero;"/><path d="M169.747,78.276c-0.461,-0 -0.863,0.015 -1.209,0.045c-0.345,0.031 -0.633,0.058 -0.862,0.082l-0,5.36l1.707,-0c0.569,-0 1.108,-0.028 1.617,-0.082c0.509,-0.054 0.951,-0.176 1.326,-0.363c0.376,-0.188 0.673,-0.458 0.891,-0.809c0.218,-0.351 0.327,-0.829 0.327,-1.435c-0,-0.557 -0.109,-1.018 -0.327,-1.381c-0.218,-0.363 -0.503,-0.651 -0.854,-0.863c-0.351,-0.212 -0.754,-0.357 -1.209,-0.436c-0.454,-0.078 -0.924,-0.118 -1.407,-0.118m5.087,2.816c-0,0.945 -0.248,1.69 -0.745,2.235c-0.497,0.545 -1.151,0.939 -1.962,1.181c0.193,0.242 0.445,0.569 0.754,0.981c0.308,0.412 0.627,0.863 0.954,1.353c0.326,0.492 0.647,1.003 0.963,1.536c0.314,0.533 0.581,1.042 0.799,1.526l-1.327,-0c-0.253,-0.484 -0.53,-0.969 -0.826,-1.453c-0.297,-0.485 -0.599,-0.954 -0.909,-1.408c-0.309,-0.455 -0.608,-0.875 -0.899,-1.264c-0.29,-0.387 -0.545,-0.726 -0.763,-1.017c-0.388,0.036 -0.775,0.055 -1.163,0.055l-2.034,-0l-0,5.087l-1.237,-0l-0,-12.355c0.437,-0.121 0.949,-0.209 1.537,-0.263c0.586,-0.055 1.128,-0.082 1.625,-0.082c1.732,-0 3.038,0.327 3.916,0.981c0.877,0.654 1.317,1.623 1.317,2.907" style="fill:#939598;fill-rule:nonzero;"/><path d="M191.658,83.599c-0,-0.848 -0.109,-1.608 -0.327,-2.28c-0.218,-0.672 -0.527,-1.244 -0.927,-1.717c-0.399,-0.472 -0.881,-0.833 -1.444,-1.081c-0.563,-0.248 -1.197,-0.373 -1.899,-0.373c-0.702,-0 -1.335,0.125 -1.898,0.373c-0.564,0.248 -1.045,0.609 -1.444,1.081c-0.401,0.473 -0.709,1.045 -0.927,1.717c-0.218,0.672 -0.327,1.432 -0.327,2.28c-0,0.848 0.109,1.608 0.327,2.28c0.218,0.673 0.526,1.245 0.927,1.717c0.399,0.473 0.88,0.836 1.444,1.09c0.563,0.255 1.196,0.382 1.898,0.382c0.702,-0 1.336,-0.127 1.899,-0.382c0.563,-0.254 1.045,-0.617 1.444,-1.09c0.4,-0.472 0.709,-1.044 0.927,-1.717c0.218,-0.672 0.327,-1.432 0.327,-2.28m1.309,-0c-0,1.078 -0.159,2.029 -0.473,2.853c-0.315,0.823 -0.742,1.51 -1.281,2.062c-0.539,0.551 -1.166,0.966 -1.88,1.244c-0.715,0.279 -1.472,0.418 -2.272,0.418c-0.799,-0 -1.556,-0.139 -2.271,-0.418c-0.715,-0.278 -1.341,-0.693 -1.88,-1.244c-0.539,-0.552 -0.966,-1.239 -1.281,-2.062c-0.315,-0.824 -0.473,-1.775 -0.473,-2.853c-0,-1.078 0.158,-2.026 0.473,-2.843c0.315,-0.818 0.742,-1.502 1.281,-2.053c0.539,-0.551 1.165,-0.966 1.88,-1.245c0.715,-0.278 1.472,-0.418 2.271,-0.418c0.8,-0 1.557,0.14 2.272,0.418c0.714,0.279 1.341,0.694 1.88,1.245c0.539,0.551 0.966,1.235 1.281,2.053c0.314,0.817 0.473,1.765 0.473,2.843" style="fill:#939598;fill-rule:nonzero;"/><path d="M207.355,78.439c-0.29,0.339 -0.626,0.751 -1.008,1.235c-0.381,0.485 -0.79,1.015 -1.225,1.59c-0.436,0.575 -0.881,1.187 -1.334,1.835c-0.454,0.648 -0.903,1.302 -1.344,1.963c-0.443,0.66 -0.86,1.311 -1.253,1.953c-0.394,0.642 -0.748,1.247 -1.063,1.816l7.41,0l-0,1.072l-8.758,0l-0,-0.926c0.266,-0.521 0.584,-1.093 0.954,-1.717c0.369,-0.624 0.766,-1.266 1.189,-1.926c0.424,-0.66 0.867,-1.323 1.328,-1.99c0.459,-0.666 0.914,-1.304 1.362,-1.916c0.448,-0.612 0.875,-1.178 1.281,-1.699c0.405,-0.521 0.777,-0.969 1.117,-1.345l-6.886,0l-0,-1.071l8.23,0l-0,1.126Z" style="fill:#939598;fill-rule:nonzero;"/><path d="M219.838,85.943c0,0.605 -0.061,1.166 -0.182,1.681c-0.121,0.514 -0.33,0.963 -0.627,1.344c-0.296,0.382 -0.69,0.679 -1.18,0.89c-0.491,0.212 -1.106,0.318 -1.845,0.318c-0.436,-0 -0.836,-0.039 -1.199,-0.118c-0.363,-0.079 -0.684,-0.173 -0.963,-0.281c-0.278,-0.109 -0.512,-0.225 -0.699,-0.346c-0.188,-0.121 -0.33,-0.229 -0.427,-0.327l0.581,-0.999c0.109,0.098 0.245,0.203 0.409,0.318c0.163,0.116 0.355,0.221 0.572,0.318c0.218,0.098 0.46,0.176 0.727,0.236c0.267,0.061 0.557,0.091 0.872,0.091c0.933,-0 1.62,-0.245 2.063,-0.735c0.441,-0.492 0.663,-1.329 0.663,-2.517l0,-8.503l1.235,-0l0,8.63Z" style="fill:#939598;fill-rule:nonzero;"/><path d="M227.051,89.904l0,-12.591l7.268,-0l0,1.072l-6.032,-0l0,4.379l5.378,-0l0,1.054l-5.378,-0l0,5.014l6.504,-0l0,1.072l-7.74,-0Z" style="fill:#939598;fill-rule:nonzero;"/><path d="M249.127,77.313l0,1.072l-4.034,-0l0,11.519l-1.236,-0l0,-11.519l-4.033,-0l0,-1.072l9.303,-0Z" style="fill:#939598;fill-rule:nonzero;"/><defs><radialGradient id="_Radial1" cx="0" cy="0" r="1" gradientUnits="userSpaceOnUse" gradientTransform="matrix(0,-13.949,13.949,0,53.4047,13.9504)"><stop offset="0" style="stop-color:#1375bc;stop-opacity:1"/><stop offset="1" style="stop-color:#2a3890;stop-opacity:1"/></radialGradient><linearGradient id="_Linear2" x1="0" y1="0" x2="1" y2="0" gradientUnits="userSpaceOnUse" gradientTransform="matrix(0,-67.3545,67.3545,-0,33.6743,67.3547)"><stop offset="0" style="stop-color:#39b54a;stop-opacity:1"/><stop offset="1" style="stop-color:#8cc63f;stop-opacity:1"/></linearGradient></defs></svg>