<?xml version="1.0" encoding="utf-8"?>
<!-- Generator: Adobe Illustrator 25.2.3, SVG Export Plug-In . SVG Version: 6.00 Build 0)  -->
<svg version="1.1" id="Layer_1" xmlns="http://www.w3.org/2000/svg" xmlns:xlink="http://www.w3.org/1999/xlink" x="0px" y="0px"
	 viewBox="0 0 512 512" style="enable-background:new 0 0 512 512;" xml:space="preserve">
<style type="text/css">
	.st0{fill-rule:evenodd;clip-rule:evenodd;fill:#FFFFFF;}
	.st1{clip-path:url(#SVGID_1_);fill-rule:evenodd;clip-rule:evenodd;fill:#ED2027;}
	.st2{clip-path:url(#SVGID_2_);fill-rule:evenodd;clip-rule:evenodd;fill:#0079BF;}
	.st3{fill-rule:evenodd;clip-rule:evenodd;}
</style>
<path class="st0" d="M440.34,276.52l-87.9,21.45l-63.9-22.37l-18.53-5.89c0,0-17.29-7.19-18.33-7.22
	c-1.04-0.03-16.95-4.06-16.95-4.06l-7.11-15.39l4.37-12.29l12.16-4.54l9.87-2.82l13.74,2.63l13.65,5.3l8.23,7.81l10.21,1.19
	l12.9,0.38l14.5,2.65l-1.16-5.82l-6.87-8.44l-15.78-23.36l-30.42-40.44l-5.8-7.2l12.5-8.67l25.87-24.26l21.12-21.19l11.13-15.25
	l-2.19-8.89l-4.09-4.8l-3.93-2.39l-7-3.14l7.56-15.81l3.06-8.86l-0.12-4.95l-2.44-3.14l-2.77-2.62l-2.84-1.75l-5.32-0.71l-3.12,0.13
	l-7.5,5.23l-1.27-2.26l-6.92-6.99l-10.41-5.95l-9.38,5.14l-8.15,4.77l-17.03,11.19l-3.89-7.8l-5.13-7.39l-3.73-1.78l-5.91,0.38
	l-5.54,2.84l-18.71,7.91l-5.31-8.5l-1.16-13.61l6.99-6.81l10.28-0.59l10.08,4.64l6.15-6.72l12.44-0.57l9.75,6.49l13.84,9.04
	l4.18,3.19l10.05-5.71l13.17-2.55l13.02,6.8l6.09,6.46L332.84,35l5.95,11l16.9,17.4l18.48,18.75l28.1,15.36l17.79,14.05l33.79,29.71
	l18.63,35.72l17.05,25.66l15.03,12.81l1.92,2.13c0,0-15.48,59.89-32.02,77.21L440.34,276.52z"/>
<g>
	<defs>
		<path id="SVGID_5_" d="M440.34,276.52l-87.9,21.45l-63.9-22.37l-18.53-5.89c0,0-17.29-7.19-18.33-7.22
			c-1.04-0.03-16.95-4.06-16.95-4.06l-7.11-15.39l4.37-12.29l12.16-4.54l9.87-2.82l13.74,2.63l13.65,5.3l8.23,7.81l10.21,1.19
			l12.9,0.38l14.5,2.65l-1.16-5.82l-6.87-8.44l-15.78-23.36l-30.42-40.44l-5.8-7.2l12.5-8.67l25.87-24.26l21.12-21.19l11.13-15.25
			l-2.19-8.89l-4.09-4.8l-3.93-2.39l-7-3.14l7.56-15.81l3.06-8.86l-0.12-4.95l-2.44-3.14l-2.77-2.62l-2.84-1.75l-5.32-0.71
			l-3.12,0.13l-7.5,5.23l-1.27-2.26l-6.92-6.99l-10.41-5.95l-9.38,5.14l-8.15,4.77l-17.03,11.19l-3.89-7.8l-5.13-7.39l-3.73-1.78
			l-5.91,0.38l-5.54,2.84l-18.71,7.91l-5.31-8.5l-1.16-13.61l6.99-6.81l10.28-0.59l10.08,4.64l6.15-6.72l12.44-0.57l9.75,6.49
			l13.84,9.04l4.18,3.19l10.05-5.71l13.17-2.55l13.02,6.8l6.09,6.46L332.84,35l5.95,11l16.9,17.4l18.48,18.75l28.1,15.36
			l17.79,14.05l33.79,29.71l18.63,35.72l17.05,25.66l15.03,12.81l1.92,2.13c0,0-15.48,59.89-32.02,77.21L440.34,276.52z"/>
	</defs>
	<clipPath id="SVGID_1_">
		<use xlink:href="#SVGID_5_"  style="overflow:visible;"/>
	</clipPath>
	<path class="st1" d="M360.09,313.83c-0.66-0.75-0.6-1.67-0.22-3.31c0.45-1.95,0.2-5.47,0.47-6.75c1.1-5.25,0.65-10,1.77-15.31
		c0.46-2.21,0.94-4.78,0.52-7.18c-0.17-0.93,0.89-2.28,0.74-3.32c-0.27-1.81-0.05-2.58,0.42-3.51c0.49-0.97-0.71-2.12-0.89-3.68
		c-0.11-0.96,0.62-4.12,0.55-5.13c-0.07-0.91,0.38-2.33,0.32-3.24c-0.18-2.86,0.01-5.75-0.16-8.58c-0.17-2.93,0.78-6.88,0.04-9.62
		c-2.27-8.38-3.07-13.54-4.77-19.51c-0.89-3.13-2.26-5.62-3.52-9.99c-0.27-0.94-5.74-7.36-6.27-8.17c-0.28-0.43-0.61-2.33-0.87-2.78
		c-1.05-1.86-3.92-2.87-4.83-4.28c-0.99-1.53-0.04-3.41-1.61-4.33c-1.56-0.91,0.78-3.38-0.91-4.37c-2.13-1.24-3.47-3.11-5.66-4.39
		c-2.32-1.35,1.28-2.15,1.66-2.12c1.08,0.07-3.26-3.03-3.6-3.23c-1.69-0.99-3.2-3.65-4.72-4.53c-0.54-0.31,0.09-1.76-0.09-2.43
		c-0.18-0.7-1.58-3.76-1.58-3.76s1.92,2.71,2.45,1.82c0.23-0.39,0.52-3.5-0.05-3.83c-3.12-1.82-5.7-4.35-9.02-6.28
		c-0.75-0.44-0.76-1.91-1.31-2.54c-0.19-0.22-0.96-0.97-0.91-1.04c0.23-0.4,1.36,0.28,1.36,0.28s-3.71-3.44-2.75-5.09
		c0.44-0.75,1.49-0.65,2.07-1.14c2.23-1.88,4.19-1.69,6.39-1.02c1.74,0.53,3.62,1.7,5.42,2.08c0.45,0.1,4.59-0.91,4.8-1.26
		c0.29-0.5-0.29-1.18,0.01-1.69c0.1-0.18,2.04-1.69,2.36-1.5c0.44,0.26,1.65,0.28,2.13,0.55c0.85,0.5,1.76,0.52,2.9,1.06
		c0.62,0.29,2.12-0.64,2.8-0.26c0.77,0.43,1.81-0.16,2.53,0c1.5,0.31,4.52,1.76,5.7,2.45c0.01,0.01,3.02,1.45,3.25,1.39
		c0.62-0.16-1.18-4.06-0.88-4.58c0.39-0.67,1.36,0.4,2.43,0.91c0.26,0.13,1.02,0.92,1.18,0.79c0.21-0.17-0.18-1.28,0.1-1.21
		c0.61,0.16,1.5,1.28,1.57,1.32c0.3,0.18,0.59-0.66,1.21-0.71c0.86-0.06,2.07,0.57,2.16,0.1c0.08-0.42-2.2-1.6-2.17-1.67
		c0.22-0.37,1.41-0.01,1.41-0.01s-1.75-1.15-2.43-1.92c-0.6-0.69-2.05-1.94-2.73-2.33c-0.46-0.27-1.8-1.43-1.66-2.06
		c0.11-0.51,1.42-0.19,1.83-0.47c0.7-0.48,0.54-1.33,0.02-1.19c-0.23,0.06-0.68-1.82-0.85-2.02c-0.4-0.46-2.32-2.11-1.77-3.06
		c0.07-0.12,1.27-0.05,2.45,0.33c1.31,0.43,2.61,1.15,2.47,0.47c-0.05-0.24-0.79-0.94-1.24-1.45c-2.28-2.6-5.49-3.7-8.17-4.26
		c-0.96-0.2-1.93-1.57-2.51-2.23c-0.04-0.04-1.3-1.26-0.99-1.34c0.75-0.2,4.93,3.28,5.44,2.42c0.57-0.98-2.88-3.2-3.12-3.35
		c-0.8-0.46,1.27-1.28,1.1-1.89c-0.27-1.04-2.79-1.4-1.74-1.67c1.44-0.38,2.62,1.18,4.45,2.23c0.98,0.56,1.43,1.34,2.55,1.05
		c0.8-0.21-2.83-2.98-3.09-3.13c-2.9-1.7-6.77-4.21-9.54-5.83c-0.09-0.05,0.46-0.39,0.23-1.23c-0.31-1.13-1.41-2.84-1.33-2.97
		c0.31-0.53,1.09,0.23,1.84,0.39c0.37,0.08,0.51-0.32,0.9-0.23c1.28,0.31,2.76,1.14,3.07,1.2c0.41,0.09,2.18,1.56,2.48,1.04
		c0.39-0.67-1.68-1.98-3.62-3.14c-1.16-0.7-2.69-1.34-2.44-1.77c0.33-0.57,2.56,0.18,2.63,0.27c0.34,0.39,1.57,1.08,1.44,0.58
		c-0.33-1.26-4.68-3.21-5.06-4.36c-0.48-1.42-1.7-1.65-3.47-3c-1.1-0.84-2.89-3.85-2.95-3.92c-0.66-0.75-1.11-1.99,0.05-1.74
		c1.71,0.36,1.98,1.28,3.34,2.25c0.69,0.49,1.54,1,2.41,1.48c0.59,0.33,0.86,1.38,1.41,1.68c0.64,0.35,1.55-0.07,2,0.19
		c0.81,0.47,0.03-1.47,0.72-1.07c1.03,0.6,2.68,1.45,4.18,2.15c2.55,1.18,5.17,2.25,7.19,3.44c0.61,0.36,1.97,0.68,2.48,1.15
		c0.53,0.49,0.22,1.12,0.7,1.22c3.33,0.7,5.44,4.96,9.7,5.85c0.78,0.16,2.9,1.7,3.09,1.36c0.36-0.62-1.07-1.29-1.71-2.08
		c-0.69-0.86-0.6-1.8-0.6-1.8s2.05,1.96,3.26,2.67c2.58,1.51,5.84,2.45,8.3,4.42c2.68,2.15,5.08,2.19,6.81,4.16
		c1.41,1.6,4.28,2.97,5.38,4.21c4.5,5.13,8.15,8.2,12.62,13.71c0.45,0.55,1.65,0.81,2.04,1.37c1.31,1.84,2.48,2.82,3.94,4.49
		c0.35,0.4,1.28,3.01,1.54,2.79c2.38-2.09-2.88-6.74-3.7-8c-3.81-5.84-9.46-10.78-13.72-15.62c-0.74-0.84-4.72-4.53-4.72-4.53
		s5.36,3.37,5.84,3.92c1.78,2.03,3.99,4.71,6.4,6.11c2.08,1.21,4.26,3.29,5.84,5.1c1.62,1.85,2.8,4.03,4.43,5.89
		c1.11,1.26,1.85,3.87,3.14,4.62c2.61,1.53,4.62,3.38,7.06,6.16c0.79,0.9,0.9,2.4,1.4,3.63c0.36,0.89,1.42,2.15,2.67,3.49
		c0.59,0.63,2.04,0.28,2.66,0.92c1.96,2.02,3.7,4.35,4.13,4.94c1.47,2.06,3.35,5.78,4.52,7.11c3.4,3.87,2.09,6.14,5.03,10.65
		c0.64,0.97,2.32-0.54,2.61,0.83c0.08,0.38,0.25,0.86,0.48,1.4c0.16,0.39,1.12,0.76,1.33,1.2c0.54,1.1,0.65,2.77,1.11,3.96
		c0.5,1.3,1.35,2.11,1.79,3.04c2.7,5.66,3.45,9.88,4.4,13.5c0.31,1.18,1.55,3.09,2.28,5.05c0.58,1.54,0.63,3.21,1.08,3.88
		c0.53,0.79,0.49,4.16,1.04,6.23c0.51,1.9,1.6,2.47,2.22,4.21c0.82,2.3,1.14,10.05,1.79,12.69c1.05,4.27,0.48,9.06,0.9,14.23
		c0.66,8.14-2.01,29.5-3.66,31.59c-2.28,2.88-55.01-4.34-57.57-1.72c-1.51,1.55-3.13,3.78-5.13,4.87c-2.71,1.49-5.71,3.7-7.67,6.18
		c-2.61,3.29-5.58,4.11-8.65,6.12c-5.57,3.64-11.42,5.88-18.18,7.66C365.4,312.32,362.28,315.11,360.09,313.83
		C358.83,313.1,360.09,313.83,360.09,313.83z"/>
</g>
<polygon class="st0" points="174.22,247.79 187.37,248.18 202.73,248.19 213.7,245.98 226.25,243.32 223.98,252.16 230.9,259.26 
	249.44,266.93 262.64,269.99 269.43,273.53 235.31,279.14 214.41,282.37 189.53,283.44 163.34,292.89 143.35,294.73 118.2,282.61 
	73.75,267.86 70.41,272.24 38.3,291.92 27.9,273.88 5.05,188.8 21.49,175.5 50.58,139.96 68.06,124.78 94.09,102.84 119.91,89.68 
	138.98,84.67 144.14,83.49 153.17,79.31 168.22,67.28 187.02,56.26 210.39,41.37 226.84,29.48 237.56,25.24 244.38,26.27 
	252.67,34.03 249.48,45.36 258.83,39.55 266.68,33.93 278.54,26.19 291.81,23.41 301.21,26.36 303.14,34.6 305.03,38.33 
	314.41,28.86 327.08,31.07 331.02,37.54 330.52,53.43 323.97,64.09 319.88,66.81 330.21,73.46 335.28,82.45 333.4,92.63 
	324.54,104.68 309.68,120.27 297.76,133.78 281.94,149.55 238.49,178.99 201.82,210.97 190.7,220.73 182.68,228.51 177.96,237.5 
	169.07,244.67 167.86,248.11 "/>
<g>
	<defs>
		<polygon id="SVGID_7_" points="174.22,247.79 187.37,248.18 202.73,248.19 213.7,245.98 226.25,243.32 223.98,252.16 
			230.9,259.26 249.44,266.93 262.64,269.99 269.43,273.53 235.31,279.14 214.41,282.37 189.53,283.44 163.34,292.89 143.35,294.73 
			118.2,282.61 73.75,267.86 70.41,272.24 38.3,291.92 27.9,273.88 5.05,188.8 21.49,175.5 50.58,139.96 68.06,124.78 94.09,102.84 
			119.91,89.68 138.98,84.67 144.14,83.49 153.17,79.31 168.22,67.28 187.02,56.26 210.39,41.37 226.84,29.48 237.56,25.24 
			244.38,26.27 252.67,34.03 249.48,45.36 258.83,39.55 266.68,33.93 278.54,26.19 291.81,23.41 301.21,26.36 303.14,34.6 
			305.03,38.33 314.41,28.86 327.08,31.07 331.02,37.54 330.52,53.43 323.97,64.09 319.88,66.81 330.21,73.46 335.28,82.45 
			333.4,92.63 324.54,104.68 309.68,120.27 297.76,133.78 281.94,149.55 238.49,178.99 201.82,210.97 190.7,220.73 182.68,228.51 
			177.96,237.5 169.07,244.67 167.86,248.11 		"/>
	</defs>
	<clipPath id="SVGID_2_">
		<use xlink:href="#SVGID_7_"  style="overflow:visible;"/>
	</clipPath>
	<path class="st2" d="M170.96,67.99c0.44,0.9-0.39,3.19-1.19,4.67c-0.95,1.76-1.64,5.22-2.24,6.39c-2.45,4.77-3.28,9.47-5.77,14.29
		c-1.03,2.01-2.18,4.35-2.4,6.78c-0.09,0.94-1.47,1.96-1.59,3c-0.22,1.82-0.64,2.5-1.34,3.27c-0.73,0.81,0.12,2.23-0.12,3.79
		c-0.15,0.96-1.69,3.81-1.89,4.8c-0.18,0.89-0.99,2.15-1.17,3.04c-0.58,2.8-1.54,5.54-2.12,8.31c-0.61,2.87-2.58,6.42-2.59,9.27
		c-0.04,8.68-0.64,13.87-0.58,20.08c0.03,3.26,0.69,6.01,0.74,10.56c0.01,0.98,3.58,8.62,3.88,9.54c0.16,0.49-0.02,2.41,0.1,2.91
		c0.52,2.07,3.01,3.81,3.52,5.4c0.55,1.74-0.87,3.3,0.4,4.61c1.27,1.3-1.65,3.05-0.28,4.45c1.72,1.76,2.52,3.92,4.29,5.73
		c1.88,1.92-1.81,1.73-2.17,1.61c-1.02-0.35,2.34,3.79,2.62,4.07c1.37,1.4,2.12,4.37,3.34,5.62c0.43,0.45-0.55,1.68-0.56,2.37
		c-0.01,0.72,0.53,4.04,0.53,4.04s-1.14-3.12-1.87-2.4c-0.33,0.32-1.43,3.24-0.97,3.71c2.53,2.58,4.35,5.7,7.03,8.45
		c0.61,0.62,0.22,2.05,0.59,2.8c0.13,0.26,0.66,1.19,0.6,1.25c-0.33,0.32-1.23-0.63-1.23-0.63s2.66,4.31,1.3,5.64
		c-0.62,0.61-1.61,0.24-2.3,0.55c-2.65,1.22-4.49,0.52-6.43-0.72c-1.54-0.98-3.03-2.6-4.68-3.44c-0.41-0.21-4.67-0.34-4.96-0.06
		c-0.42,0.41-0.04,1.21-0.45,1.62c-0.15,0.14-2.41,1.09-2.67,0.82c-0.36-0.37-1.52-0.7-1.91-1.1c-0.69-0.7-1.56-0.97-2.51-1.79
		c-0.52-0.45-2.21,0.05-2.77-0.49c-0.64-0.62-1.79-0.33-2.44-0.67c-1.36-0.7-3.89-2.9-4.84-3.87c-0.01-0.01-2.53-2.2-2.76-2.2
		c-0.64-0.01,0.06,4.23-0.36,4.65c-0.56,0.54-1.21-0.74-2.1-1.52c-0.22-0.19-0.74-1.15-0.93-1.07c-0.25,0.11-0.16,1.29-0.42,1.14
		c-0.54-0.32-1.11-1.64-1.16-1.69c-0.24-0.25-0.74,0.48-1.35,0.36c-0.85-0.17-1.84-1.1-2.05-0.66c-0.19,0.39,1.7,2.13,1.65,2.18
		c-0.3,0.3-1.36-0.37-1.36-0.37s1.38,1.57,1.83,2.5c0.4,0.82,1.47,2.41,2.01,2.97c0.37,0.38,1.35,1.85,1.06,2.42
		c-0.24,0.46-1.42-0.19-1.89-0.03c-0.8,0.27-0.88,1.14-0.33,1.15c0.24,0,0.17,1.94,0.28,2.17c0.27,0.55,1.68,2.65,0.89,3.42
		c-0.1,0.1-1.24-0.29-2.27-0.97c-1.15-0.76-2.21-1.8-2.25-1.11c-0.02,0.25,0.51,1.11,0.81,1.73c1.51,3.11,4.31,5.03,6.75,6.28
		c0.87,0.45,1.45,2.03,1.83,2.81c0.02,0.05,0.92,1.56,0.6,1.56c-0.77-0.01-3.89-4.48-4.61-3.77c-0.81,0.79,1.93,3.85,2.12,4.05
		c0.64,0.66-1.56,0.9-1.57,1.53c-0.01,1.08,2.32,2.09,1.24,2.07c-1.48-0.02-2.21-1.84-3.7-3.33c-0.79-0.8-1.03-1.67-2.18-1.68
		c-0.83-0.01,1.93,3.63,2.15,3.84c2.35,2.4,5.41,5.85,7.65,8.15c0.08,0.08-0.55,0.25-0.55,1.12c0,1.17,0.6,3.12,0.5,3.22
		c-0.44,0.43-0.99-0.51-1.67-0.86c-0.34-0.18-0.57,0.17-0.92-0.02c-1.15-0.63-2.36-1.83-2.64-1.97c-0.37-0.19-1.69-2.08-2.11-1.66
		c-0.55,0.54,1.1,2.35,2.65,3.99c0.93,0.98,2.23,2.01,1.88,2.35c-0.47,0.46-2.42-0.85-2.47-0.96c-0.23-0.46-1.22-1.46-1.23-0.94
		c-0.02,1.3,3.66,4.34,3.73,5.54c0.08,1.49,1.2,2.04,2.55,3.81c0.84,1.11,1.76,4.48,1.8,4.56c0.44,0.9,0.54,2.21-0.51,1.67
		c-1.55-0.8-1.57-1.76-2.62-3.05c-0.53-0.65-1.22-1.37-1.93-2.07c-0.48-0.47-0.46-1.56-0.92-1.99c-0.53-0.5-1.51-0.34-1.88-0.72
		c-0.65-0.67-0.41,1.41-0.97,0.84c-0.83-0.85-2.19-2.11-3.45-3.18c-2.15-1.81-4.38-3.55-6.02-5.22c-0.49-0.5-1.72-1.17-2.09-1.76
		c-0.38-0.61,0.08-1.14-0.35-1.36c-3.03-1.56-3.93-6.22-7.8-8.21c-0.7-0.36-2.34-2.41-2.62-2.14c-0.51,0.5,0.69,1.53,1.09,2.46
		c0.44,1.01,0.1,1.9,0.1,1.9s-1.46-2.43-2.44-3.44c-2.09-2.13-4.99-3.91-6.83-6.46c-2.02-2.79-4.32-3.46-5.46-5.82
		c-0.93-1.92-3.34-4-4.07-5.49c-2.98-6.14-5.68-10.07-8.53-16.57c-0.28-0.65-1.37-1.22-1.61-1.86c-0.78-2.12-1.64-3.38-2.61-5.38
		c-0.23-0.47-0.43-3.24-0.74-3.09c-2.85,1.39,0.99,7.27,1.45,8.7c2.13,6.64,6.26,12.9,9.08,18.71c0.49,1.01,3.34,5.62,3.34,5.62
		s-4.27-4.67-4.59-5.32c-1.18-2.43-2.6-5.6-4.55-7.59c-1.68-1.72-3.23-4.3-4.28-6.46c-1.07-2.21-1.63-4.62-2.71-6.85
		c-0.73-1.51-0.76-4.22-1.8-5.29c-2.11-2.16-3.56-4.48-5.18-7.81c-0.52-1.08-0.23-2.55-0.38-3.87c-0.33-2.84-2.35-5.11-2.32-7.85
		c0-0.35,0.49-1.63,0.99-3c0.63-1.73-0.73-5.34-1.01-5.62c-0.46-0.47-1.76-0.2-1.98-0.49c-0.6-0.81,0.17-1.94-0.61-3.54
		c-2.25-4.64,1.52-11.63-0.12-16.76c-2.03-6.33-1.68-12.46-1.61-19.09c0.03-2.19-0.55-5.89,0.4-7.74
		c5.14-9.99,13.5-18.64,23.24-25.77c2.4-1.75,4.13-4.64,6.58-6.43c7.05-5.16,13.92-10.42,20.95-15.56c2.96-2.17,6.5-3.3,9.67-5.16
		c1.86-1.09,4.02-2.81,6.24-3.34c3-0.71,6.48-2.06,9.03-3.92c3.39-2.48,6.47-2.49,9.96-3.6c6.34-2.03,12.57-2.64,19.56-2.56
		c2.46,0.03,5.55-1.32,7.51-0.6C169.87,68.95,170.96,67.99,170.96,67.99z"/>
</g>
<path class="st3" d="M241.45,10.85c0,0-1.23,14.57,7.35,15.78c0,0,9.17,5.54,6.77,13.84l16.79-9.32c0,0-18.78,11.65-16.81,17.93
	c0,0-5.4-6.14-15.45,7.2l-28.14,18.08l-21.6,18.27l0.72,8.16c0,0-0.39-2.88-4.84-6.37c0,0-6.32,3.16-5.74,7.97
	c0,0-4.23-2.76-12.59-3.24l7.99-3.12l10.78-8.3c0,0,6.06-2.45,0.05-9.81c0,0,3.73,3.46,13.2-1.05l16.85-11.47
	c0,0,5.57-2.23,1.98-10.23c0,0,2,5.09,10.26,1.26l14.68-10.82c0,0,7.34-5.53,4.43-12.08l-7.17-5.72c0,0-1.47-1.48-2.04-6.76
	L241.45,10.85z"/>
<path class="st3" d="M265.51,165.07c0,0,32.6,37.34,40.38,52.89l15.52,19.22l1.24,3.29c0,0-11.33-5.5-18.64-4.19l-12.4-1.52
	c0,0-15.58-10.61-30.06-12.95c0,0-19.56-5.56-37.01,14.8L212.11,242c0,0-30.54-3.2-35.6-0.48c0,0,14.85-22.92,23.17-26.12l6.34-0.77
	c0,0,17.44-19.97,24.82-23.59l12.36-9.98l16.29-13.5L265.51,165.07z M267.96,142.72c5.55,6.61,13.99,0.02,13.99,0.02l22.2-22.32
	c2.24-3.04-1.65-8.9-1.65-8.9c4.24,2.28,11,0.32,11,0.32l19.6-23.36c3.35-8.28-7.4-16.97-7.4-16.97c3.39-1.34,7.6,1.9,7.6,1.9
	l4.97,9.96c6.06,13.82,21.23,18.58,21.23,18.58l-3.4,1.81l-12.37-2.52l-6.72-7.62c-5.47,15.16-25.96,28.2-25.96,28.2
	c-0.84,4.05-7.92,8.86-7.92,8.86c-9.46,4.27-16.46,22.49-16.46,22.49l-1.04-5.3l-13.72,10.85l14.4,15.03
	c9.55,17.04,13.9,15.5,13.9,15.5c1.42,8.55,11.36,20.44,11.36,20.44l1.98-2.33l2.03-12.15c3.7,4.42,2.92,14.45,2.92,14.45
	c-1.72,17.66,5.74,24.34,5.74,24.34c1.98-2.09,5.75-8.21,5.75-8.21c-1.91,7.84,2.65,23.77,2.65,23.77
	c-4.67-3.97-33.73-8.65-33.73-8.65c-5.92-2.09-9.69,3.78-9.69,3.78l-1.53-4.83c-2.95-5.35-24.25-13.64-24.25-13.64
	c-14.5-3.54-26.23,4.73-26.23,4.73c-7.36,6.24-5.41,13-5.41,13c0.74,15.58,19.4,15.65,19.4,15.65l20.01,3.22
	c9.02,2.42,14.92-10.81,14.92-10.81l0.16,10.78c0.08,5.27,10.07,7.48,10.07,7.48c6.32,4.97,15.11,7.15,15.11,7.15
	c10.07-0.42,9.51,2.2,9.51,2.2c22.7,17.42,32.94,11.26,32.94,11.26c4.92-4.64,36.34-6.59,36.34-6.59
	c13.17-0.33,27.48-6.61,27.48-6.61l12.47-0.83l15.73-3.76c-0.47,0.34,26.61,15.4,26.61,15.4s12.74-26.61,17.01-38.76
	c3.89-11.07,8.6-34.14,8.6-34.14s7.93-0.07,8.66,0.79c1.3,1.52-3.76,20.21-11.25,39.22c-8.03,20.35-16.14,38.55-19.49,39.64
	c-6,1.96-33.77-16.61-33.77-16.61c-15.4,11.04-39.63,11.77-39.63,11.77c-24.99,1.18-37.35,8.47-37.35,8.47
	c-9.9,3.06-31.86,0.74-31.86,0.74c-51.5-31.2-60.12-24.51-60.12-24.51c-15.31,4.57-61.54,8.95-61.54,8.95
	c-18.65-0.79-41.22,9.79-41.22,9.79c-19.59,6.84-29.32,4.16-29.32,4.16l-25.5-11.76c-12.74-6.36-29.7-9.14-40.06-13.39
	c-9.97-4.09-17.47-21.26-17.47-21.26c2.48-3.04-2.04-15.22-2.04-15.22l12.11,17.7c3.99,10.65,23.93,16.5,23.93,16.5
	c4.41,4.68,29.42,8.77,29.42,8.77c4.59,6.6,24.55,11.5,24.55,11.5l27.81-9.47c6.03-1.74,5.73,0.41,5.73,0.41
	c13.72-2.71,28.69-7.05,28.69-7.05c-1.52-13.45,4.23-13.52,4.23-13.52c-1.51,10.73,5.65,11.42,5.65,11.42
	c32.04,9.08,43.4-2.55,43.4-2.55l-20.15-6.58c-23.06-5.47-19.03-20.19-19.03-20.19c-14.15,1.02-13.49,10.85-13.49,10.85l-4.61-5.88
	c-3.82-3.81-40.29,1.46-42.77,1.83c-0.04,0.01-0.09,0.01-0.13,0.02l0.13-0.02c8.77-1.38,10.38-23.84,10.38-23.84
	c4.97,2.06,3.46,12.55,3.46,12.55l6.81-11.77l1.67-7.85c4.4-19.5,7.97-18.67,7.97-18.67l0.07,13.89
	c5.35-2.71,17.08-19.12,17.08-19.12c4.99,1.34,22.74-16.32,22.74-16.32l19.31-14.87l17.93-15.51
	C270.62,146.33,268.52,143.42,267.96,142.72c-0.04-0.05-0.09-0.1-0.13-0.16C267.83,142.57,267.88,142.62,267.96,142.72z"/>
<path class="st3" d="M131.31,129.32c0,0,9.34,7.93,36.24,15.75c0,0,16.06,7.18,20.38,12.41c0,0-15.69-9.08-19.87-7.93
	c0,0-27.39-10.06-29.88-12.05L131.31,129.32z"/>
<path class="st3" d="M126.68,148.33c0,0,12.28,0.2,43.14,19.62l21.15,13.23c0,0-17.59-9.45-20.81-8.59l-15.16-10.82L126.68,148.33z"
	/>
<path class="st3" d="M73.65,203.64c0,0,57.11-40.44,112.31-9.9l2.8,2.38c0,0-32.69-14.75-63.35-7.42l-43.76,12.06L73.65,203.64z"/>
<path class="st3" d="M46.76,222.38c0,0,1.83,5.66,2.65,7.55c0.81,1.85,1.99,3.89,1.99,3.89l2.71-0.65c0,0-0.22-3.48-1.7-5.76
	C50.03,223.72,46.76,222.38,46.76,222.38z"/>
<path class="st3" d="M320.68,189.87c0,0,72.27-16.92,112.56,33.77l3.35,4.41c0,0-28.64-22.29-39.1-24.71l-21.56-9.25l-27.66-3.5
	L320.68,189.87z"/>
<path class="st3" d="M320.09,178.58c0,0,4.28-8.87,15.41-9.69l6.53-0.57c0,0,31.41-13.05,48.1-14.09l3.49-1.43l-1.27,4.18
	c0,0-24.8,3.48-47.9,13.91l-3.13,2.21c0,0-2.23-2.17-9.59,0.48L320.09,178.58z"/>
<path class="st3" d="M327.47,155.62c0,0,5.9-5.19,19.76-7.65l14.63-2.44l24.15-7.14l0.3,2.88c0,0-12.8,5.56-28.55,7.01
	c0,0-17.12,2.56-19.27,4.22l-6.81,3.63L327.47,155.62z"/>
<path class="st3" d="M457.24,248.22l-6.18,8.43c0,0-2.39,2.99,0.85,3.47l5.09-3.87l2.85-5.85l0.09-2.87L457.24,248.22z"/>
<path class="st3" d="M242.14,33.92c0,0,0.94,7.11-1.43,9.53c-2.37,2.42,6.56-1.72,6.27-4.79l-1.03-4.05L242.14,33.92z"/>
<path class="st3" d="M295.98,32.64c0,0,2.48,6.97-8.93,16.97l1.07,2.52c0,0,11.49-6.55,11.14-14.22c0,0,0.84-2.46-0.63-4.61
	L295.98,32.64z"/>
<path class="st3" d="M323.41,37.66c0,0,3.37,8.91-16.71,27.66l1.28,1.95l7.87-7.24c0,0,11.03-10.4,10.26-16.74L323.41,37.66z"/>
<path class="st3" d="M327.17,78.75c0,0,1.75,5.61-9.33,17.53l0.68,2.89l6.48-5.36c0,0,6.32-6.52,5.1-10.57L327.17,78.75z"/>
<polygon class="st3" points="339.11,76.61 343.54,75.59 340.91,80.49 "/>
<path class="st3" d="M5.03,187.12c1.43-5.64,28.54-19.77,39.34-45.3c0,0,17.66-30.59,65.79-55.5c0,0,30.56-13.46,36.63-8.49
	c0,0,16.67-13.39,26.86-17.88l33.17-21.04c0,0-16.01-25.37,0.52-33.97c0,0,14.01-4.37,24.77,4.08c0,0,8.84-23.67,47.04,11.92
	c0,0,10.52-15.96,30.33-5.81l12.1,11.85c0,0,15.7,3.34,16.3,15.32l23.28,22.23l21.9,20.27c0,0,73.99,23.25,99.87,103.48l23.94,28.17
	l-8.96-0.44l-15.87-13.87c0,0-2.4-2.71-7.09,4.17c-2.08,3.05-5.53,6.59-7.85,15.49c0,0,9.37-41.85-7.03-53.82
	c0,0,3.67-10.9-14.5-27.71c0,0-16.05-30.07-34-17.04c0,0,23.9-13.89-33.02-31.85c0,0-21.75-25.54-26.11-23.75
	c0,0-7.23-14.57-16.68-18.68c0,0,1.14,10.09-31.19,34.98c0,0-25.21,27.02-34.29,26.27c0,0-21.71,21.86-40.66,31.35
	c0,0,2.1,10.11-1.59,21.49l-4.1-7.1l-2.34-17.98c0,0,5.71,1.13,11.24-7.81c0,0,23.4-5.05,30.09-25.44c0,0,32.77-11.96,32.73-26.8
	c0,0,13.9-0.55,33.89-29.16c0,0,4.07-8.02-2.52-12.04c0,0-1.69-7.71-14.74-3.31c0,0,3.39-17.61-21.19-12.12
	c0,0,24.27,5.03,13.11,26.24l-14.25,12.5l0.74,7.2l-5.63-4c0,0-31.15,17.27-27.57,25.99l-6.23,0.29c0,0-29.11,13.02-29.33,20.68
	l2.19,6.77l-8.02-4.07l-1.65,7.13c0,0-3.05-10.14-17.41-10.09c0,0,7.55,3.57,24.18-8.38c0,0,12.72-9.2,8.62-16.5
	c0,0,4.05,6.18,15.72-0.17c0,0,22.16-11.47,18.56-21.47c0,0,1.76,3.24,11.79-1.25l20.49-13.12c0,0,9.55-9.93,3.73-18.08
	c0,0-3.88-9.05-22.89-2.91c0,0-23.72-21.73-29.67-21.94c0,0-15.51-4.29-10.75,18.19l-1.06,3.48c0,0-6-2.09-5.98-13.58
	c0,0-13.71-11.26-20.72-0.93c0,0-8.15,5.82,3.2,21.16l3.11-0.2c0,0-8.79-17.36-0.75-20.95c0,0,0.83,13.43,6.74,17.29l9.9-1.76
	c0,0-24.09,9.96-19.44,19.12l-4.72-2.33c0,0-32.92,12.57-25.7,22.77l-6.66-1.29c0,0-28.54,12.21-24.61,18.15
	c0,0-7.79-6.74-33.77,8.45c0,0-16.14,6.39-7.88,12.85l6.64,7.38c0,0-10.98-8.17-17.57-7.27c-7.41,1.01-14.27,4.62-25.85,18.6
	c0,0-13.02,5.36-16.14,19.31c0,0-13.96,7.89-15.87,23.95l-0.89,13.86l2.42,15.23l0.86,3.22c0,0-6.58-4.18-6.45-13.91
	c0,0,0.6-9.56-2.99-12.06c0,0-4.02-4.27-10.75,2.08l-10.38,11.71c0,0,9.31,44.04,18.22,76.55c4.47,16.3,10.6,23.74,10.6,23.74
	s21.03-14.11,31.53-22c4.91-3.69,5.16,0.94,5.16,0.94c1.96,1.3-18.99,16.38-18.99,16.38s-15,12.92-19.58,11.34
	C24.21,290.62,3.79,191.99,5.03,187.12z"/>
<path d="M97.66,435.46l-1.87-0.18l-1.56-0.88v-1.23l0.21-0.53v-1.4l-0.52-1.23l-0.21-5.79l1.35-0.53l0.52-1.23l-0.32-25.3L94.43,346
	l-0.21-5.61H93.5l-0.1-2.46L92.77,336l-0.62-0.88l-0.73-3.33v-4.21L91,326.7v-1.23l-0.31-1.75l0.52-5.26l1.56-3.86l1.04-1.05h0.83
	l1.25,1.93l0.83,0.35l0.42-1.4l9.05,5.26l1.97,2.28l1.25,2.98l0.42,2.63l0.52,13.51v11.4l9.77-18.24l0.94-2.46l7.49-12.28l1.77-1.93
	l0.83,0.53l0.73-1.05l2.39,1.75l0.62,0.53l0.31,1.4h0.73l-0.31,2.46h0.83l0.52,0.53l0.62-0.18l0.83,2.63v1.05l1.98,5.09h0.62
	l-1.35,8.95l-0.62,1.4l-2.6,5.09l-0.52,0.7l-8.11,18.77l-2.29,4.04l-0.62,2.28l1.35,4.04l1.87,3.51l2.29,3.33l0.52,1.58
	c0,0,8.37,15.64,10.5,21.05c1.32,3.34,2.29,11.4,2.29,11.4v1.05l-0.62,2.81l-2.46,3.61l-2.53,2.88l-0.73,0.35l-0.52,0.7l-0.83,0.35
	l-0.42,1.75h-0.62l-0.62,1.4l-1.25-0.53l-2.6-3.16l-0.94-2.1l-0.17-0.93l-3.67-8.2l-0.21-0.35l-0.31-1.23l-0.21-0.35l-2.08-4.56
	l-0.1-0.35l-0.42-1.05l-0.31-0.17l-0.42-1.23l-1.14-0.88l-9.57-17.72l-0.62,0.17l-1.04,1.23v3.33l0.62,3.86l0.1,1.23l-0.21,4.03
	l-0.42,0.7l-0.1,1.93l0.31,0.7l-0.21,5.79l0.21,1.93l0.42,1.23c0,0,0.51,7.66-1.18,11.93c-1.55,3.91-5.27,4.44-6.06,4.91
	C101.03,434.59,97.66,435.46,97.66,435.46z"/>
<path d="M171.27,416.28l2.7-1.23l0.52,0.53l1.77-0.88l2.6-2.81l0.42-1.23l1.25-0.7l0.42-0.7l-0.52-3.86l-0.42-1.93l0.21-1.23
	l0.21-1.75l-0.22-16.42l-0.21-0.53l-0.52-13.76l-8.36,8.81l-1.35,1.58l-1.35,2.81l-2.08,5.26l-1.25,5.97v7.37l1.56,7.72l3.8,6.46
	L171.27,416.28z M186.46,436.11l-0.94,2.28l-1.35-0.35l-0.62-1.58l-0.42-2.1l-0.42-0.35l-0.31-1.23l-0.31,0.7v0.88l-0.23,0.63
	l-0.62-0.35h-3.22l-1.12,0.95l-0.52,0.18h-0.73l-0.94,0.35h-0.52l-2.7,0.53l-0.94,0.53l-0.52,0.35h-0.94l-1.14,0.35l-0.52-0.7h-1.04
	l-0.42,0.35h-0.73l-2.39-1.4l-0.31-0.53l-0.73-0.7l-2.29-1.4l-0.52-1.05l-1.04-0.88l0.21-0.88l-1.14-1.4l-1.25-2.28l-1.66-3.86
	l-0.62-0.88l-0.83-3.16l-0.94-4.39l-0.62-1.75l-0.62-4.21l-0.77-5.37l0.04-1.64l1.25-9.65l0.31-4.03l1.14-4.56l0.31-0.7l2.18-7.72
	l0.42-2.98l3.95-8.95l2.08-3.33l4.99-6.14l2.7-2.28l6.14-3.33l0.52-0.7l0.83-0.53l-0.42-1.05l0.93-0.88l3.85-0.18l0.62,0.88h0.52
	l0.52,0.53l0.94-0.35l1.25,1.75l3.74,1.23l0.42,1.58h0.83l0.52,0.18l1.25,1.4l0.73,1.75l0.42,1.23l0.31,2.46l0.1,2.98v1.58
	l0.21,1.58h0.42v3.16l0.21,0.53l-0.83,3.33l0.42,10.35l-0.66,15.96l0.45,10.35l-0.21,2.81l0.21,1.58l-0.1,2.98l-0.73,14.91
	l-1.35,1.58l-1.04,0.53l-0.52,1.4l-0.42-0.18h-0.52l-0.73,0.88l-1.14,1.58L186.46,436.11z"/>
<path d="M247.29,363.37l-3.53,64.71l-1.67,4.93h-1.04l-0.62-1.4l-0.62-0.18l-1.35,2.63l-3.74,3.16l-0.73,0.35h-0.73l-0.31,0.18
	l-0.21-0.53h-0.83l-0.62-0.7v-1.23l-0.42-1.23l-0.62-0.7v-1.23l-0.21-0.53l0.21-2.1l-0.21-0.53l-1.04-24.03l0.62-20.35l0.31-0.88
	l-0.31-2.81l0.31-5.09v-10.88h-0.52l-0.94,1.4l-6.03,6.67l-2.39,1.93c0,0-3.79,4.52-4.36,12.92c-0.55,8.12-0.22,35.5-0.22,35.5
	l-0.42,1.75v3.16c0,0-1.5,2.18-1.87,2.62c-0.35,0.42-1.25,0.72-1.25,0.72l-0.42,1.23l-0.94,1.4l-0.52,0.35l-0.52-0.35l-0.73,0.53
	h-0.52l-0.42,0.88h-1.14l-0.52-0.35h-0.73l-1.87-1.23l-0.1-5.61h-0.52l-0.42-2.81v-4.21l-0.42-4.04l-0.52-3.16v-6.67l-0.31-0.7
	l0.21-0.53l-0.42-1.75v-2.28l0.1-1.93l0.31-0.35v-1.75l0.1-1.4l-0.42-3.68l0.42-1.93l-0.31-0.53v-4.21l0.31-1.05l-0.1-7.02l0.1-2.28
	l-0.1-5.26l-0.21-1.05l-0.21-2.28v-18.25l-0.42-2.1l-0.42-0.53v-1.05l0.31-0.7l-0.31-0.88l0.83-0.53l-0.42-0.7l0.83-3.86l0.73-1.05
	l1.35-0.53l0.83-0.53l0.52,0.88l5.2,2.81l3.95,3.16l1.25,1.75l0.83,1.93l0.83,3.16l1.98-1.93l1.56-1.23l0.94-1.4l4.78-0.88
	l4.06,0.35l1.25-0.7h2.6l1.66,0.88l0.73,1.05h0.62l0.94,0.53l0.73,1.23l0.83,0.17v0.7l1.35,1.23l1.04,2.46l2.6,2.28L245,356
	l0.21,1.23l1.14,2.98l0.21,0.35l0.52,1.58L247.29,363.37z"/>
<path d="M275.57,460.05l12.51,6.35l0.38,1.69c-0.82,1.48-2.62,4.59-2.62,4.59s-6.91,2.58-10.3,3.44l-10.58,1.09
	c0,0-2.73-0.67-2.95-0.88c-0.8-0.76-3.39-3.85-3.39-3.85l-0.21-1.76l0.94-0.7l1.07-0.6l2.85-10.33l1.56-2.16l1.66,2.33l1.56,0.53
	l0.31,0.53L275.57,460.05z M273.36,397.18h1.77l3.33-2.1l1.25-2.28l6.06-12.77l0.57-6.69l0.31-2.45l-0.31-2.28h-3.22l-4.21-1.21
	l-3.02,1.58l-2.49,4.91l-4.47,5.61l-2.38,6.73l-0.94,3.33l-0.21,2.81v2.81l1.66,1.93l4.33-1.16l1.14,0.35L273.36,397.18z
	 M258,470.02l-1.87-1.12l-2.09-3.27l-0.21-0.53l-0.62-2.81l-0.31-2.46l-0.11-6.12l0.73-4.23l-1.04-2.28v-1.4l3.01-6.31l0.62-0.53
	l4.06-5.44l-4.26-11.05v-2.63l1.25-4.21l1.98-3.68l1.25-1.4l-0.21-1.4h-0.42l-1.56-2.46l-1.04-2.45l-0.83-4.39v-0.7l-0.42-0.35
	l-0.21-2.28l-0.73-3.51l-0.94-5.61v-2.81l0.52-1.05l1.06-10.06l1.65-5.55l1.46-4.04l2.39-4.56l4.06-5.09l3.74-2.46l8.32-4.21
	l2.81-0.35h5.3l2.7,1.58l4.58-7.19l3.95-4.03l2.18-0.7l0.21-0.53h1.66l0.31-0.35l1.04,0.88l1.56,3.16l0.42,1.75l0.31,2.11l-0.42,1.4
	l-0.1,0.53v1.75l-0.21,1.23l-0.42,1.4v0.7l0.31,0.35l-0.94,1.58l-0.1,0.7l-0.83,2.28l-3.33,3.51l-3.22,1.75v0.7l1.25,4.39l0.31,2.46
	h0.42v1.75l0.31,1.4v0.88l0.52,1.23l0.62,2.46l-0.62,4.21l-0.21,0.7l-0.39,4.54l-0.96,3.88l-1.98,4.03l-0.31,0.35l0.31,3.16
	l-0.21,1.05l-0.52,1.23l0.31,0.88l-0.52,1.05l-0.21,1.23l-0.94,1.05l-0.83,1.75l-0.31,0.18l-1.66,1.75l-0.83,0.53l-0.73,0.7
	l-0.94,1.93l-1.35,1.93l-0.62,1.05h-0.94l-0.21,0.53l-0.83,0.53l-0.31,0.53l-0.94,1.23l-1.35,0.53l-0.52,0.18l-1.04,0.53h-1.98
	l-0.31,0.7h-0.83l-1.56,0.35l-0.31,0.18l-0.94,0.35l-0.94-0.88h-0.73l-0.31,0.35l-1.14-0.35l-1.1-1.02l-0.66-0.73l-2.08,0.35
	l-1.87,0.88l5.1,4.04l8.11,2.28l7.69-0.35l0.62-0.18l1.46-0.35h1.04l5.72,4.04l6.55,10.52l0.42,1.4v1.23l0.52,0.53l0.52,2.1
	l1.38,4.36l0.31,1.23l-3.25,10.23l-3.95,3.13l-1.25,0.35l-2.7,2.98l-3.85,2.81l-0.38-1.69l-12.51-6.35l-1.46,1.23l-1.45,0.17
	l-0.1,1.23l-0.1-1.4l-1.25,0.17l-0.1-1.58l12.07-6.05l7.48-5.55l0.83-2.1l-0.42-1.23l0.73-0.53l-0.62-0.35l-1.46-0.35l-0.94-0.53
	l-2.6-0.7l-0.94,0.17h-4.37l-4.39-0.44l-0.42-0.35l-3.54-0.35l-1.66-0.88h-1.25l-0.52-0.35l-0.98,0.42l-0.73-0.35h-1.04l-4.38,5.78
	l-0.34,3.55v1.75l0.54,1.82v1.4l2.65,2.26l0.45,7.83l0.42,1.23l-7.28,4.74L258,470.02z"/>
<path d="M336.19,400.91l0.21,0.88L336.19,400.91z M311.75,435.64l-1.35-0.53h-0.83l-0.62-1.05l-4.78-5.44l-0.42-0.53l-1.14-1.93
	l-1.04-3.51l0.62-1.23l0.21-0.53l0.62-1.93l0.62-0.35l0.83-4.21l0.31-0.35l1.35,1.05h0.42l0.42,0.18l1.87,2.28l1.46,0.35l4.58,1.23
	l2.83-0.06l0.91-1.69l0.1-0.88l3.12-7.37l0.42-2.46v-2.1l-3.43-5.79l-2.81-2.81h-0.83l-0.94-0.88l-1.87-1.4l-1.98-2.1l-0.73-0.7
	l-1.46-2.1l-0.62-0.53l-1.66-3.33l-0.42-1.23l-0.73-1.23l-0.42-2.63v-1.4l0.31-0.35l0.31-0.7c0,0,0.02-3.64,0.26-5.16
	c0.23-1.43,1.19-3.96,1.19-3.96v-1.93l0.83-6.14l1.77-3.51h0.52l2.29-3.86l2.39-2.98l6.86-6.14l2.49-1.4l1.87-0.7h1.56l0.1,1.05
	l1.66,0.7l5.3,10.35l-0.21,3.51l-1.77,3.68l-0.73,0.88l-3.01,4.91l-2.18,1.05l-2.08,2.11l-2.29,3.51l-0.42,1.23l-1.46,2.46v0.88
	l3.53,2.63l4.58,5.26l2.39,3.86l2.5,5.09l0.42,0.35l0.1,0.53l1.46,2.46l0.94,2.28l0.94,2.46l0.1,1.66c0,0,0.7,1.65,1.01,5.54
	l-0.9,8.41l-0.21,1.4l-0.31,1.05l-2.7,3.51l-0.42,0.35l-2.81,3.86l-0.21-0.17l-2.7,2.28l-1.25,0.7l-0.42,0.7l-0.94,0.18l-1.91,1.85
	l-3.81,1.49h-1.45l-0.62,0.17h-1.46l-1.25-0.17l-0.73,0.17h-0.73l-0.31-0.17H311.75z"/>
<path d="M345.34,332.14h-1.04l-0.86,0.25l-0.7-0.42h-0.42l-0.52,0.7l-1.46-0.88l-0.93-1.93l0.52-0.35l0.1-0.7l0.1-0.88h0.73
	l-0.1-2.81l-0.31-2.63l0.21-1.4l1.87-5.44l0.52-0.53l0.21-0.88l0.83-0.88l0.73-0.17l0.42-0.88l0.52-0.18l1.35,0.7l0.83,0.35
	l-0.1,0.53l0.83,0.35l0.62,1.23l-0.21,0.88l0.21,0.7l0.62-0.18l1.04,1.58l1.04,0.88l1.04,2.28l0.21,0.7l0.31,2.63l-0.21,1.75v1.4
	l-1.87,2.98l-0.62,0.7l-0.52,0.35h-1.04l-0.62,0.53l-0.73,0.35h-2.5L345.34,332.14z M354.49,382.84l-2.08,44.91l-1.87,5.09
	l-1.25,1.1l-1.97,0.48l-1.77,0.35l-2.29-0.7l-0.94-2.98l-0.62-8.77v-4.04l-0.62-7.89l-0.21-11.58l-0.21-0.7v-35.08l0.31-7.54
	l0.62-3.86l0.52-0.88h2.18l1.04,0.35l3.95,1.93l2.39,2.28l1.56,2.28l1.46,4.03v2.98l0.42,2.63l-0.21,2.98v6.49L354.49,382.84z"/>
<polygon points="418.34,359.16 419.17,358.98 419.48,359.86 419.9,360.03 419.9,361.96 420.31,362.66 420.73,362.84 421.25,363.89 
	421.56,364.59 422.09,413.62 421.36,427.38 420.3,429.44 419.27,432.38 417.09,434.06 416.57,434.06 415.73,433.9 414.9,434.24 
	414.49,434.59 412.3,434.06 411.58,434.59 410.95,434.06 410.33,434.41 409.19,433.36 408.25,433.01 407.63,432.13 407.52,430.9 
	407.1,429.33 406.9,427.39 406.9,421.78 406.69,421.08 407.52,406.87 407.73,399.85 407.52,397.92 407.52,393.19 407.31,392.66 
	407.31,390.03 406.9,388.1 406.9,385.47 406.69,384.94 406.17,379.68 404.92,374.24 404.09,374.24 403.36,376 402.63,376 
	402.01,376.87 401.49,377.4 401.39,378.63 400.24,380.73 400.03,383.54 398.68,406.87 398.68,408.63 398.27,413.89 398.68,414.24 
	398.37,418.8 398.27,420.2 398.27,421.43 398.47,422.48 398.68,426.17 398.16,430.55 396.81,433.71 395.77,434.06 395.25,434.59 
	394.42,434.59 393.9,435.29 391.3,437.39 390.57,437.39 389.76,437.75 388.2,437.92 387.66,436.52 387.14,436.87 386.1,436.52 
	385.27,434.59 384.54,433.01 384.54,432.31 384.02,431.43 384.02,430.2 383.81,429.68 383.29,427.39 382.88,424.06 382.88,422.83 
	382.36,421.08 381.32,391.43 381.63,389.15 381.63,375.82 380.69,375.82 379.3,379.04 378.61,392.66 378.72,394.24 378.72,400.21 
	378.3,400.73 378.09,403.01 377.78,410.73 377.78,415.29 377.57,417.57 377.78,418.8 377.57,420.55 376.33,430.03 374.55,431.69 
	372.79,433.71 371.59,433.96 370.19,434.59 368.74,434.94 366.66,434.94 364.99,434.06 364.89,433.18 364.06,432.13 363.85,430.9 
	363.54,430.03 362.29,427.39 361.98,423.71 361.35,407.05 361.56,400.73 361.35,391.43 361.35,380.21 361.98,366.87 361.98,352.84 
	361.77,351.44 361.98,347.93 362.19,347.4 362.19,346.7 363.02,343.19 364.06,343.19 365.41,342.67 368.94,343.37 369.88,344.07 
	371.65,346.35 375.08,353.19 379.97,348.98 383.29,347.93 385.58,347.93 388.6,350.21 391.3,352.84 391.51,353.89 394.21,355.65 
	395.88,358.45 396.5,358.45 400.03,354.42 407.1,349.68 409.91,350.74 410.54,351.96 410.85,351.44 411.58,352.49 412.1,352.49 
	412.3,353.19 412.51,353.54 413.66,353.89 414.28,354.24 414.7,355.47 415.53,355.47 417.14,356.8 417.92,358.98 "/>
<path d="M329.41,474.61v-0.42V474.61z M316.59,482.38l0.33-0.14l0.12-0.28h0.46l1.86-1.32l1.96-2.46l0.33-0.42l1.63-2.81l0.58-1.34
	l0.41-3.49l0.21-1.76l-0.29-3.03l-0.63-3.66l-0.58-2.32l-0.54-1.27l-1.88-2.04l-2.42-1.13l-1.32-0.27l-0.25,0.35l0,4.99l-0.17,1.69
	v2.6l-0.17,1.05l0.32,8.37l-0.08,0.49v0.7l-0.17,0.21v1.83l0.04,0.42l-0.04,0.98v2.25L316.59,482.38z M323.38,488.7l-3.86,2.6
	l-2.16,1.14l-1.92,0.74l-2.54,0.5h-0.54l-0.21,0.14l-0.21,0.07l-0.5,0.28l-0.5-0.14l-0.29-0.77l-0.42-0.42l-0.17-1.13l-0.33-5.28
	V473.7l-0.21-5v-4.43l0.21-4.43v-9.78l-0.63-0.98v-3.38l0.33-0.28l0.17-0.7l0.75-0.99l0.92,0.28l0.62-0.21l0.46,0.35l3.8,0.42
	l0.5,0.14h1l0.29,0.28h0.33l0.13,0.14l0.29,0.14h0.63l0.17,0.21l1.46,0.91l1.46,1.2l1.08,0.63l0.63,1.06l0.63,0.77h0.17l2,4.29
	l1.54,6.26l0.75,5l0.33,4.15v0.91l-0.08,0.35l0.08,0.42l-0.04,1.06l-0.17,0.84l0.21,1.41l-0.62,4.01v0.42l-0.66,2.71l-0.72,1.44
	l-0.54,0.7l-0.46,0.35l-0.38,0.49l-0.5,1.06L323.38,488.7z"/>
<path d="M347.26,486.37l-0.9,2.73l-1.02,3.74l-1.01,0.73c0,0-1.29,0.97-2.11,1.17l-0.46-0.14l-0.38,0.07l-0.75-0.07l-0.13,0.07
	l-0.67,0.49l-0.79,0.07l-0.58-0.07l-0.17,0.14l-0.12-0.21l-0.67,0.14l-1.17-0.5l-1-0.9l-0.29-0.49l-1.04-2.18l-0.83-1.27l-1.08-2.46
	l-0.88-6.05v-2.67l0.08-0.49v-0.84l0.17-3.38l0.21-0.56l0.38-2.32l0.25-0.56l0.96-3.1l0.92-2.46l1.17-2.25l0.29-0.21l1.83-2.67
	l2.83-2.55l0.84,0.02l0.25,0.14l1.79,0.07l1.21,0.91l0.12,0.14l0.21,0.07l0.96,0.84l0.25,0.35l0.46,0.14l0.25,0.42l0.29,0.72
	l0.3,0.96l0.46,1.2l0.29,0.7l0.04,0.21l0.13,0.14l0.32,8.69l0,3.78l-0.39,2.87l-5.32,2.39l0.88-4.34l0.29-6.35l-0.08-0.28
	l-0.29-4.01l-0.7-3.19l-0.51,1.08l-1.71,2.67l-1.67,3.31l-1.04,3.17l-0.12,0.63v0.28l-0.13,0.35l-0.33,2.11v3.38v-0.21v2.81
	l0.12,0.42l0.21,0.49l0.5,1.48l0.17,0.21l0.33,0.56l0.12,0.14h0.71l1.25-0.14l1.25-1.27l0.21-0.63l0.12-0.91l0.21-0.91l0.21-0.84
	l5.32-2.39l0.08,0.21l-0.08,0.63l0.08,0.56v-0.28l-0.24,1.7L347.26,486.37z"/>
<path d="M353.69,454.14h-0.33l-0.17-0.21h-0.42l-0.92-0.63l-0.21-0.14l-0.17-0.14l-0.25-2.39v-0.49l-0.4-0.38l-0.04-2.11l-0.13-0.28
	l0.36-0.39l0.17-0.14l0.25-1.13l0.29-0.07l0.75-0.21l0.38,0.07l0.33-0.07l0.12,0.07v0.49l0.17-0.07l0.38,0.07l0.04-0.28l0.17-0.14
	l0.29,0.42l0.92,1.9l0.29,0.35l0.38,0.35l0.21,0.63l0.04,0.21l0.08,0.35l-0.08,0.35v0.49l0.21,0.14l0.08,0.07l-0.38,1.62l-0.17,0.14
	l-0.08,0.35l0.08,0.35l-0.08,0.21l-0.5,0.42l-0.57,0.24l-0.72,0.11L353.69,454.14z M349.39,505.08l-0.21-0.07l-0.37,0.21l-0.21,0.14
	h-0.33l-0.46-0.14l-1.25-0.63l-0.71-0.7l-0.42-0.77l0.08-0.35l-0.13-0.42l0.04-0.77l-0.08-0.49l0.17-0.28v-0.28l0.12-0.14v-0.42
	h0.17l0.13-0.28l0.04-0.35v-0.28h0.17l0.08,0.21l0.13-0.14l0.04-0.56l0.12-0.21l0.25-0.21l-0.04-0.28l0.42,0.35v0.49l0.29,0.14
	h-0.21l1.92-0.21h0.17l0.91-0.07l0.35-0.42l0.75-1.27l-0.17-0.28l0.33-0.84v-0.56l0.08-0.21l0.08-0.56h-0.17l0.08-0.35v-1.69
	l0.5-4.72v-3.31l-0.13-0.84v-9.85l-0.75-10.2l-0.25-0.77l0.38-2.67l0.38-0.84l0.38-0.42h0.42l3.21,1.48l1.08,1.27l0.33,0.84
	l0.33,1.2l0.46,3.45l0.54,6.47l-0.08,0.42v1.2l-0.08,1.55l-0.17,0.63v1.34l-0.13,1.41v1.48l-0.12,0.77l0.04,0.28v1.05l-0.42,1.97
	l0.04,1.48l-0.53,5.26v0.63l-0.12,0.35l0.08,0.49l-0.12,0.49l-0.08,0.21l-1.05,4.52l-0.13,0.56l-0.08,0.84l-0.08,0.42l-0.08,0.21
	l-0.17,0.35l-0.29,0.14l-0.72,0.65l-0.42,0.7l-0.08,0.21l-0.25,0.28l-0.17,0.49l-0.21,0.07l-0.75,0.34l-0.08,0.21l-0.12,0.14
	l-0.21,0.14h-0.42l-0.17,0.35l-0.21-0.07l-0.21-0.14h-0.17l-0.92-0.14L349.39,505.08z"/>
<path d="M368.74,486.27l1.08-0.49l0.21,0.21l0.71-0.35l1.04-1.13l0.17-0.49l0.5-0.28l0.17-0.28l-0.21-1.55l-0.17-0.77l0.08-0.49
	l0.08-0.7l-0.09-6.58l-0.08-0.21l-0.21-5.52l-3.35,3.53l-0.54,0.63l-0.54,1.13l-0.83,2.11l-0.5,2.39v2.95l0.63,3.1l1.52,2.59
	L368.74,486.27z M374.83,494.22l-0.38,0.91l-0.54-0.14l-0.25-0.63l-0.17-0.84l-0.17-0.14l-0.13-0.49l-0.12,0.28v0.35l-0.09,0.25
	l-0.25-0.14h-1.29l-0.45,0.38l-0.21,0.07h-0.29l-0.38,0.14h-0.21l-1.08,0.21l-0.38,0.21l-0.21,0.14h-0.38l-0.46,0.14l-0.21-0.28
	h-0.42l-0.17,0.14h-0.29l-0.96-0.56l-0.13-0.21l-0.29-0.28l-0.92-0.56l-0.21-0.42l-0.42-0.35l0.08-0.35l-0.46-0.56l-0.5-0.91
	l-0.67-1.55l-0.25-0.35l-0.33-1.27l-0.37-1.76l-0.25-0.7l-0.25-1.69l-0.31-2.15l0.01-0.66l0.5-3.87l0.13-1.62l0.46-1.83l0.13-0.28
	l0.87-3.1l0.17-1.2l1.58-3.59l0.83-1.34l2-2.46l1.08-0.91l2.46-1.34l0.21-0.28l0.33-0.21l-0.17-0.42l0.38-0.35l1.54-0.07l0.25,0.35
	h0.21l0.21,0.21l0.38-0.14l0.5,0.7l1.5,0.49l0.17,0.63h0.33l0.21,0.07l0.5,0.56l0.29,0.7l0.17,0.49l0.13,0.99l0.04,1.2v0.63
	l0.08,0.63h0.17v1.27l0.08,0.21l-0.33,1.34l0.17,4.15l-0.27,6.4l0.18,4.15l-0.08,1.13l0.08,0.63l-0.04,1.2l-0.29,5.98l-0.54,0.63
	l-0.42,0.21l-0.21,0.56l-0.17-0.07h-0.21l-0.29,0.35l-0.46,0.63L374.83,494.22z"/>
<path d="M399.23,465.04L397.81,491l-0.67,1.98h-0.42l-0.25-0.56l-0.25-0.07l-0.54,1.05l-1.5,1.27l-0.29,0.14h-0.29l-0.13,0.07
	l-0.08-0.21h-0.33l-0.25-0.28v-0.49l-0.17-0.49l-0.25-0.28v-0.49l-0.08-0.21l0.08-0.84l-0.08-0.21l-0.42-9.64l0.25-8.16l0.13-0.35
	l-0.13-1.12l0.13-2.04v-4.36h-0.21l-0.38,0.56l-2.42,2.67l-0.96,0.77c0,0-1.52,1.81-1.75,5.18c-0.22,3.26-0.09,14.24-0.09,14.24
	l-0.17,0.7v1.27c0,0-0.6,0.87-0.75,1.05c-0.14,0.17-0.5,0.29-0.5,0.29l-0.17,0.49l-0.37,0.56l-0.21,0.14l-0.21-0.14l-0.29,0.21
	h-0.21l-0.17,0.35h-0.46l-0.21-0.14h-0.29l-0.75-0.49l-0.04-2.25h-0.21l-0.17-1.13v-1.69l-0.17-1.62l-0.21-1.27v-2.67l-0.12-0.28
	l0.08-0.21l-0.17-0.7v-0.91l0.04-0.77l0.12-0.14v-0.7l0.04-0.56l-0.17-1.48l0.17-0.77l-0.12-0.21v-1.69l0.12-0.42l-0.04-2.81
	l0.04-0.91l-0.04-2.11l-0.08-0.42l-0.08-0.91v-7.32l-0.17-0.84l-0.17-0.21v-0.42l0.13-0.28l-0.13-0.35l0.33-0.21l-0.17-0.28
	l0.33-1.55l0.29-0.42l0.54-0.21l0.33-0.21l0.21,0.35l2.09,1.13l1.58,1.27l0.5,0.7l0.33,0.77l0.33,1.27l0.79-0.77l0.63-0.49
	l0.38-0.56l1.92-0.35l1.63,0.14l0.5-0.28h1.04l0.67,0.35l0.29,0.42h0.25l0.38,0.21l0.29,0.49l0.33,0.07v0.28l0.54,0.49l0.42,0.99
	l1.04,0.91l0.12,0.28l0.08,0.49l0.46,1.2l0.08,0.14l0.21,0.63L399.23,465.04z"/>
<path d="M410.57,503.82l5.02,2.55l0.15,0.68c-0.33,0.59-1.05,1.84-1.05,1.84s-2.77,1.03-4.13,1.38l-4.24,0.44
	c0,0-1.1-0.27-1.18-0.35c-0.32-0.31-1.36-1.54-1.36-1.54l-0.08-0.71l0.37-0.28l0.43-0.24l1.14-4.15l0.63-0.86l0.67,0.93l0.63,0.21
	l0.12,0.21L410.57,503.82z M409.69,478.61h0.71l1.33-0.84l0.5-0.92l2.43-5.12l0.23-2.68l0.13-0.99l-0.13-0.91h-1.29l-1.69-0.48
	l-1.21,0.63l-1,1.97l-1.79,2.25l-0.95,2.7l-0.38,1.34l-0.08,1.13v1.13l0.67,0.77l1.74-0.46l0.46,0.14L409.69,478.61z M403.53,507.82
	l-0.75-0.45l-0.84-1.31l-0.08-0.21l-0.25-1.12l-0.12-0.99l-0.04-2.45l0.29-1.7l-0.42-0.91v-0.56l1.21-2.53l0.25-0.21l1.63-2.18
	l-1.71-4.43v-1.05l0.5-1.69l0.79-1.48l0.5-0.56l-0.08-0.56h-0.17l-0.63-0.99l-0.42-0.98l-0.33-1.76v-0.28l-0.17-0.14l-0.08-0.91
	l-0.29-1.41l-0.37-2.25v-1.13l0.21-0.42l0.42-4.04l0.66-2.22l0.58-1.62l0.96-1.83l1.63-2.04l1.5-0.99l3.34-1.69l1.13-0.14h2.13
	l1.08,0.63l1.83-2.88l1.58-1.62l0.88-0.28l0.08-0.21h0.67l0.12-0.14l0.42,0.35l0.63,1.27l0.17,0.7l0.12,0.84l-0.17,0.56l-0.04,0.21
	v0.7l-0.08,0.49l-0.17,0.56v0.28l0.13,0.14l-0.38,0.63l-0.04,0.28l-0.33,0.91l-1.33,1.41l-1.29,0.7v0.28l0.5,1.76l0.12,0.99h0.17
	v0.7l0.12,0.56v0.35l0.21,0.49l0.25,0.98l-0.25,1.69l-0.08,0.28l-0.16,1.82l-0.38,1.56l-0.79,1.62l-0.13,0.14l0.13,1.27l-0.08,0.42
	l-0.21,0.49l0.12,0.35l-0.21,0.42l-0.08,0.49l-0.38,0.42l-0.33,0.7l-0.13,0.07l-0.67,0.7l-0.33,0.21l-0.29,0.28l-0.37,0.77
	l-0.54,0.77l-0.25,0.42h-0.38l-0.08,0.21l-0.33,0.21l-0.12,0.21l-0.38,0.49l-0.54,0.21l-0.21,0.07l-0.42,0.21h-0.79l-0.12,0.28
	h-0.33l-0.63,0.14l-0.12,0.07l-0.38,0.14l-0.38-0.35h-0.29l-0.13,0.14l-0.46-0.14l-0.44-0.41l-0.27-0.29l-0.83,0.14l-0.75,0.35
	l2.04,1.62l3.25,0.91l3.09-0.14l0.25-0.07l0.58-0.14h0.42l2.29,1.62l2.63,4.22l0.17,0.56v0.49l0.21,0.21l0.21,0.84l0.55,1.75
	l0.13,0.49l-1.3,4.1l-1.58,1.26l-0.5,0.14l-1.08,1.2l-1.54,1.13l-0.15-0.68l-5.02-2.55l-0.58,0.49l-0.58,0.07l-0.04,0.49l-0.04-0.56
	l-0.5,0.07l-0.04-0.63l4.84-2.43l3-2.23l0.33-0.84l-0.17-0.49l0.29-0.21l-0.25-0.14l-0.58-0.14l-0.38-0.21l-1.04-0.28l-0.37,0.07
	h-1.75l-1.76-0.18l-0.17-0.14l-1.42-0.14l-0.67-0.35h-0.5l-0.21-0.14l-0.39,0.17l-0.29-0.14h-0.42l-1.75,2.32l-0.14,1.42v0.7
	l0.22,0.73v0.56l1.06,0.91l0.18,3.14l0.17,0.49l-2.92,1.9L403.53,507.82z"/>
</svg>
