<?xml version="1.0" standalone="no"?>
<!DOCTYPE svg PUBLIC "-//W3C//DTD SVG 20010904//EN"
 "http://www.w3.org/TR/2001/REC-SVG-20010904/DTD/svg10.dtd">
<svg version="1.0" xmlns="http://www.w3.org/2000/svg"
 width="700.000000pt" height="700.000000pt" viewBox="0 0 700.000000 700.000000"
 preserveAspectRatio="xMidYMid meet">
<metadata>
Created by potrace 1.14, written by Peter Selinger 2001-2017
</metadata>
<g transform="translate(0.000000,700.000000) scale(0.100000,-0.100000)"
fill="#000000" stroke="none">
<path d="M3261 5544 c-27 -12 -58 -36 -70 -53 l-22 -31 -42 24 c-68 38 -131
49 -230 40 -57 -5 -75 -11 -103 -37 -19 -16 -42 -44 -51 -61 -34 -65 -11 -211
52 -336 l24 -47 -232 -146 c-128 -80 -254 -158 -281 -172 -58 -31 -113 -67
-226 -151 -78 -57 -88 -62 -120 -55 -71 15 -331 -59 -492 -140 -222 -111 -466
-288 -649 -469 -137 -136 -219 -239 -269 -339 -39 -78 -56 -103 -137 -201 -61
-73 -94 -105 -276 -265 -49 -43 -92 -87 -97 -99 -6 -18 4 -115 25 -221 19
-101 48 -238 60 -285 8 -30 16 -66 18 -80 3 -14 16 -68 30 -120 114 -436 211
-693 290 -770 26 -25 37 -30 62 -24 42 8 150 80 320 212 115 89 149 111 163
104 29 -16 131 -49 252 -82 145 -41 204 -62 308 -111 45 -21 84 -39 87 -39 2
0 56 -24 119 -54 63 -30 131 -59 150 -64 34 -10 132 -9 191 2 17 3 43 8 58 11
31 6 110 32 297 97 171 60 233 73 415 83 50 3 110 8 135 11 25 3 79 9 120 14
41 5 98 12 125 15 52 6 177 23 223 31 112 19 202 37 231 46 121 38 357 -48
746 -273 112 -65 133 -70 303 -71 149 -1 204 7 293 43 134 54 254 79 464 94
207 15 386 63 504 136 l43 26 109 -67 c147 -92 271 -152 324 -158 l44 -4 36
56 c122 191 394 921 379 1018 -1 9 -76 103 -166 208 -145 170 -166 199 -189
263 -180 499 -499 879 -999 1192 -48 30 -277 140 -320 154 -19 6 -60 34 -90
62 -30 29 -106 99 -169 158 -63 58 -160 149 -215 202 -56 54 -119 114 -141
135 -25 24 -46 55 -53 81 -22 73 -62 110 -174 158 -29 12 -78 50 -126 98 -101
99 -149 121 -257 121 -67 0 -88 -4 -130 -26 -27 -14 -63 -40 -79 -57 -17 -17
-35 -31 -40 -31 -6 0 -24 14 -41 31 -16 17 -61 54 -100 83 -180 134 -314 177
-414 130z m203 -84 c31 -19 118 -86 193 -149 l137 -113 55 12 c164 37 273 -12
285 -127 3 -30 -3 -56 -19 -90 -32 -66 -49 -83 -130 -135 -38 -25 -102 -66
-142 -91 -85 -55 -161 -82 -204 -73 -19 3 -28 2 -24 -4 23 -38 -40 -127 -144
-205 -129 -97 -236 -133 -298 -101 -29 15 -29 14 -25 -13 13 -88 -156 -240
-328 -297 -14 -4 -28 -8 -32 -9 -17 -1 -19 -15 -2 -15 27 -1 95 -50 120 -88
l22 -32 11 45 c6 25 14 45 17 45 3 0 26 -11 51 -25 25 -14 47 -25 48 -23 2 2
-3 21 -11 43 -19 55 -18 59 19 101 69 79 345 234 416 234 36 0 41 3 41 23 0
34 45 96 109 150 58 49 194 144 221 154 8 3 23 13 32 21 16 13 21 12 52 -12
19 -14 37 -26 40 -26 3 0 4 21 1 46 -6 50 -10 46 110 149 82 70 90 80 104 127
27 89 16 157 -35 214 -26 28 -96 72 -130 80 -25 7 -26 8 -9 15 11 4 49 8 85 8
108 1 167 -43 177 -133 5 -44 7 -45 32 -38 14 4 47 7 73 7 43 0 52 -5 86 -40
50 -52 62 -75 62 -122 0 -109 -310 -423 -450 -458 -20 -5 -30 -18 -44 -57 -33
-93 -174 -206 -354 -283 -75 -33 -78 -36 -117 -103 -22 -39 -52 -83 -66 -100
-56 -64 -177 -141 -273 -172 -22 -7 -58 -33 -85 -61 -30 -31 -59 -51 -80 -55
l-33 -7 6 -61 c7 -64 13 -111 21 -160 3 -16 17 -50 32 -75 24 -42 27 -43 34
-23 14 38 22 114 21 193 l-1 77 37 24 c20 13 44 27 52 30 44 16 293 214 412
327 26 24 66 51 90 59 46 15 138 74 197 126 57 50 172 158 206 193 16 17 59
55 95 85 105 85 120 99 202 182 85 85 156 184 165 228 l5 27 44 -30 c47 -32
120 -116 160 -185 14 -24 32 -44 39 -44 29 0 145 -105 283 -257 61 -68 71 -74
146 -99 101 -33 288 -121 342 -162 89 -65 117 -131 85 -193 l-19 -36 38 13
c107 37 235 -35 348 -196 25 -36 71 -92 101 -125 97 -106 151 -211 151 -291 0
-26 9 -47 35 -77 33 -38 66 -110 81 -174 13 -55 13 -318 0 -400 -7 -46 -11
-83 -10 -83 2 0 12 21 23 46 26 59 100 159 127 175 28 14 32 12 158 -96 123
-105 117 -69 55 -322 -45 -185 -82 -296 -159 -468 -13 -28 -98 -212 -121 -261
l-20 -42 -40 22 c-44 23 -44 23 -25 136 14 80 17 140 17 265 -1 77 -3 151 -5
165 -3 14 -10 68 -16 120 -7 54 -20 108 -30 125 -10 17 -20 50 -23 75 -7 52
-20 98 -37 130 -6 12 -20 53 -31 90 -16 60 -53 152 -95 235 -8 17 -24 35 -36
40 -13 6 -32 35 -47 70 -26 59 -100 179 -138 222 -11 12 -31 27 -45 32 -16 6
-34 27 -48 58 -20 42 -93 123 -112 123 -3 0 -17 17 -29 38 -42 68 -101 136
-148 172 -25 19 -68 57 -94 84 -27 26 -51 45 -54 42 -3 -3 10 -20 28 -39 69
-68 146 -153 175 -192 16 -22 39 -51 52 -65 22 -24 32 -77 12 -65 -5 3 -10 12
-10 18 0 10 -30 44 -90 101 -8 8 -49 51 -90 96 -100 109 -224 201 -336 250
-23 10 -45 23 -48 29 -4 6 -12 11 -18 11 -6 0 -3 -9 7 -20 19 -21 15 -25 -13
-11 -9 5 -29 14 -43 21 -15 6 -37 22 -51 33 -57 51 -252 149 -266 135 -9 -9
-58 19 -100 60 -7 6 -20 12 -28 12 -23 0 21 -58 86 -115 73 -63 79 -69 53 -56
-36 18 -34 -4 2 -23 19 -10 36 -25 40 -34 4 -12 1 -12 -20 2 -14 10 -40 19
-56 21 -26 3 -29 1 -24 -13 4 -9 8 -23 8 -29 0 -7 40 -38 89 -70 49 -32 85
-59 79 -61 -6 -2 -27 6 -47 18 -19 12 -38 20 -41 16 -4 -3 -1 -6 6 -6 8 0 11
-6 7 -17 -4 -10 2 -25 15 -40 26 -27 10 -31 -28 -6 -25 17 -26 17 -12 -4 7
-12 34 -30 59 -39 45 -17 98 -53 99 -66 1 -4 -12 -5 -29 -1 -23 4 -30 2 -30
-11 0 -9 4 -16 8 -16 5 0 14 -10 19 -23 9 -19 8 -26 -6 -34 -15 -10 -14 -12 3
-26 20 -14 20 -15 0 -21 -10 -3 -37 -8 -59 -11 -22 -3 -51 -7 -65 -10 -14 -3
-56 -10 -95 -16 -81 -13 -78 -12 -128 -43 l-38 -23 -55 20 -55 20 -45 -21 -44
-22 29 -57 c23 -46 42 -67 96 -105 75 -52 76 -41 -8 -110 -21 -17 -42 -39 -48
-50 -10 -18 -9 -18 28 -2 21 8 44 18 51 21 7 3 27 -11 45 -30 18 -20 47 -47
65 -61 32 -23 32 -25 12 -31 -20 -6 -21 -8 -4 -26 16 -18 16 -19 -12 -20 -16
0 -38 -2 -49 -4 -11 -2 -40 -6 -64 -9 -56 -6 -65 -16 -15 -17 51 0 195 -6 212
-8 6 0 12 -11 12 -23 0 -45 27 -100 63 -129 21 -17 37 -37 37 -46 0 -8 20 -40
45 -72 51 -65 86 -159 134 -356 31 -126 31 -135 26 -295 -3 -91 -5 -174 -4
-185 3 -39 2 -61 -4 -120 -3 -33 -6 -72 -6 -87 -1 -16 -6 -28 -12 -28 -6 0
-41 -12 -77 -27 -79 -32 -118 -35 -191 -16 -87 23 -225 98 -291 159 -19 17
-41 24 -91 28 -72 5 -141 29 -215 74 -27 17 -60 33 -74 37 -37 11 -89 48 -95
66 -3 9 -6 46 -7 83 -2 68 -9 81 -28 45 -38 -71 -111 -115 -174 -104 -23 4
-54 9 -71 11 -16 3 -70 11 -120 19 -49 8 -110 17 -135 20 -139 19 -220 103
-223 229 -3 103 52 166 179 211 57 20 85 24 164 22 93 -3 98 -4 211 -59 157
-75 203 -107 223 -158 l16 -41 21 20 c46 43 67 42 379 -23 47 -10 157 -44 176
-54 20 -10 20 -9 2 76 -10 48 -19 119 -20 158 l-1 72 -31 -46 c-17 -25 -36
-47 -42 -49 -14 -5 -53 68 -69 128 -7 27 -13 103 -13 172 0 120 -12 200 -32
212 -6 3 -10 3 -11 -2 0 -4 -2 -17 -4 -28 -11 -59 -18 -111 -17 -116 1 -4 -7
-14 -17 -23 -17 -15 -20 -13 -58 41 -53 78 -88 140 -102 185 -7 20 -20 40 -30
43 -29 9 -82 66 -131 142 -25 40 -90 118 -143 174 l-97 101 92 73 93 73 10
-30 11 -30 37 73 c52 103 102 166 179 224 68 51 118 102 118 120 0 6 21 23 48
40 74 46 243 221 277 287 17 32 33 58 37 58 3 0 26 -22 50 -49 41 -46 47 -49
126 -64 60 -12 90 -14 103 -6 10 5 19 11 19 13 0 2 -29 18 -65 36 -102 52
-171 126 -236 255 -52 104 -58 111 -97 125 -50 17 -62 9 -32 -22 86 -89 103
-176 47 -239 -17 -21 -39 -45 -47 -55 -219 -267 -187 -239 -270 -239 -59 0
-69 -2 -64 -15 3 -8 10 -31 15 -50 8 -35 8 -35 -159 -202 -196 -198 -227 -216
-315 -182 -11 4 -14 -1 -12 -21 3 -21 -11 -38 -78 -97 -45 -39 -96 -83 -113
-99 -18 -15 -94 -76 -170 -135 -118 -91 -191 -152 -308 -256 -37 -33 -95 -70
-129 -82 -24 -8 -53 -35 -98 -91 -90 -114 -158 -183 -167 -168 -4 6 -7 48 -6
92 1 45 -2 81 -7 81 -19 0 -69 -104 -84 -176 -25 -121 -50 -196 -86 -260 -23
-41 -44 -73 -45 -71 -2 1 -4 24 -5 50 -3 44 -33 116 -45 104 -3 -3 -7 -22 -10
-43 -2 -22 -7 -50 -10 -64 -3 -14 -8 -36 -11 -50 -7 -42 -43 -114 -69 -141
l-25 -26 48 7 c179 28 421 42 481 29 31 -7 91 -62 92 -84 0 -5 9 8 19 30 22
48 54 78 100 94 58 19 77 15 75 -17 -3 -65 42 -137 114 -183 25 -16 130 -56
234 -89 103 -34 188 -65 188 -69 0 -9 -77 -44 -133 -61 -85 -26 -281 -16 -419
21 -68 18 -83 26 -99 53 -11 17 -19 49 -19 73 0 30 -4 41 -13 37 -24 -9 -40
-49 -45 -116 l-5 -67 -52 -15 c-28 -9 -101 -27 -161 -41 -60 -14 -124 -29
-141 -34 -20 -5 -35 -5 -39 0 -10 17 -46 9 -254 -62 l-209 -71 -83 27 c-104
33 -199 78 -230 109 -16 17 -44 28 -88 36 -36 6 -78 15 -95 20 -16 5 -41 11
-55 14 -61 11 -159 51 -337 138 -88 43 -146 95 -191 169 -50 84 -137 209 -145
209 -5 0 -6 -4 -3 -8 9 -16 18 -67 21 -128 3 -75 49 -166 123 -246 13 -14 22
-31 18 -36 -3 -5 -70 -53 -148 -107 -79 -55 -165 -114 -192 -133 l-50 -35 -19
24 c-20 24 -70 128 -101 207 -31 82 -205 787 -262 1064 l-18 86 46 54 c118
137 165 170 215 152 47 -16 62 -51 71 -159 8 -97 24 -147 60 -187 16 -19 37
-25 27 -8 -16 25 -42 227 -39 298 8 186 28 251 104 347 28 36 117 115 130 115
3 0 5 -37 6 -83 0 -45 5 -100 10 -122 5 -22 8 -80 6 -130 -3 -131 5 -193 28
-200 22 -7 34 -63 20 -99 -7 -20 -5 -38 7 -74 9 -26 17 -62 18 -80 2 -19 20
-58 41 -90 21 -31 53 -96 70 -143 17 -47 49 -110 71 -140 22 -30 50 -72 61
-94 23 -43 56 -85 67 -85 3 0 -2 12 -13 28 -49 69 -168 319 -177 372 -7 44 12
18 65 -84 91 -178 130 -248 164 -294 35 -49 185 -202 197 -202 4 0 11 -9 14
-20 4 -11 11 -18 16 -14 6 4 6 11 -2 20 -6 8 -8 14 -4 14 14 0 53 -37 100 -95
26 -33 60 -71 74 -84 74 -66 123 -106 134 -107 7 0 17 -2 22 -2 6 -1 21 -19
34 -40 29 -48 61 -71 61 -45 0 10 -11 36 -24 58 -14 22 -32 55 -41 73 -10 17
-21 32 -25 32 -4 0 -10 7 -14 15 -5 13 -2 14 15 4 32 -17 32 -5 -1 26 -17 16
-30 34 -30 41 0 8 11 3 26 -11 15 -14 30 -25 35 -25 4 0 14 -2 22 -5 10 -5 13
2 9 27 -3 22 -22 51 -57 88 -47 50 -83 100 -71 100 3 0 21 -17 40 -37 29 -31
34 -34 30 -15 -4 14 -2 22 6 22 9 0 8 7 -4 25 -26 40 -18 51 14 20 16 -16 30
-25 30 -19 -1 14 -31 47 -70 76 -19 14 -43 40 -54 58 l-19 33 31 -19 c37 -22
46 -16 32 20 -14 38 -13 56 5 56 22 0 19 12 -15 56 -35 46 -39 74 -10 74 11 0
20 -5 20 -11 0 -6 6 -9 14 -6 8 3 17 -1 20 -9 9 -24 25 -15 28 17 l3 31 45
-40 c26 -23 65 -45 90 -52 25 -7 57 -21 72 -32 30 -20 62 -18 71 7 9 23 69 10
119 -25 42 -29 51 -32 92 -26 25 4 47 13 47 19 1 13 1 15 -5 50 -3 12 -5 29
-5 38 -1 9 -25 47 -55 84 -36 45 -52 74 -49 86 7 24 23 35 24 17 1 -7 5 3 8
22 8 38 -4 69 -52 132 -16 21 -26 39 -23 39 3 1 12 2 19 3 17 3 11 23 -21 64
-18 24 -27 47 -27 74 l-1 40 58 -6 c63 -8 283 -65 342 -90 61 -25 29 2 -45 40
-67 33 -217 88 -269 97 -91 17 -96 19 -119 52 -13 19 -21 40 -19 47 3 7 -7 42
-23 78 -25 60 -48 180 -34 180 17 0 118 -59 180 -104 87 -65 115 -80 185 -102
30 -10 75 -28 99 -41 24 -13 46 -21 48 -19 7 7 -413 262 -490 297 -26 12 -27
14 -27 100 0 48 3 90 8 92 6 4 184 -60 207 -75 6 -3 37 -11 70 -17 33 -6 102
-31 154 -56 52 -25 95 -44 97 -42 5 5 -120 84 -192 120 -38 19 -125 53 -193
76 -69 23 -130 46 -136 51 -7 6 -11 20 -10 33 4 34 73 270 93 319 10 24 17 50
15 59 -2 9 8 42 22 74 14 32 25 62 25 67 0 5 12 35 26 66 25 55 38 89 105 269
32 86 43 97 101 95 16 0 36 -3 46 -6 15 -5 17 -1 14 34 -4 37 0 43 51 93 40
39 90 72 181 118 l125 63 35 -17 c34 -16 35 -15 31 4 -11 56 63 135 188 199
63 32 74 40 47 36 -81 -14 -92 -15 -107 -9 -20 8 -73 120 -74 158 -1 17 -4 41
-8 53 -6 24 -6 24 -24 4 -34 -38 -27 -131 16 -235 l17 -38 -28 3 c-22 2 -33
15 -59 68 -51 100 -49 165 5 226 58 66 130 68 240 5 32 -19 42 -31 42 -50 0
-44 20 -99 47 -131 32 -39 47 -27 44 32 -10 152 -6 174 42 214 44 37 113 31
191 -16z m-1589 -1050 c-11 -5 -29 -8 -40 -8 -16 0 -15 2 5 8 34 11 60 11 35
0z m3106 -889 c17 -18 17 -19 -7 -24 -13 -2 -27 -1 -30 4 -2 4 -11 6 -18 3 -8
-3 -17 0 -21 5 -13 22 -23 0 -15 -29 5 -17 6 -29 2 -26 -33 19 -105 46 -123
46 -31 0 -20 8 21 16 147 29 169 29 191 5z m-1209 -383 c155 -186 325 -411
387 -511 23 -38 88 -126 145 -195 105 -131 125 -162 103 -162 -7 0 -17 4 -23
9 -19 17 -135 42 -212 46 -132 6 -173 16 -244 56 -220 128 -397 171 -553 135
-91 -22 -177 -71 -264 -151 -39 -36 -75 -65 -81 -65 -5 0 -34 -12 -64 -26 -64
-30 -63 -30 -216 -19 -153 10 -234 12 -296 5 l-52 -6 41 56 c174 239 255 310
351 310 9 0 35 21 58 47 93 102 206 211 263 253 57 42 314 248 325 259 41 46
153 118 186 120 6 1 72 -72 146 -161z"/>
<path d="M3278 5347 c-11 -48 -13 -77 -7 -100 12 -41 14 -44 77 -96 43 -35 52
-48 52 -75 0 -54 -44 -106 -165 -194 -133 -97 -170 -111 -225 -88 -13 5 -15
-1 -12 -32 5 -50 -7 -62 -160 -165 -132 -89 -185 -111 -249 -105 l-37 3 15
-28 c23 -46 13 -67 -62 -125 -38 -29 -77 -59 -85 -65 -15 -12 -66 -38 -111
-56 l-24 -10 28 0 c15 -1 28 -1 30 -1 1 0 28 -8 60 -19 l57 -20 0 21 c0 11 16
36 36 56 l36 36 35 -38 34 -37 -4 46 -4 46 96 82 c53 45 121 103 151 128 31
26 139 100 240 165 115 73 207 140 242 175 57 58 102 78 147 66 14 -3 21 2 25
19 8 29 92 117 155 162 25 18 40 32 34 32 -6 0 -16 -7 -23 -15 -7 -8 -16 -15
-20 -15 -5 0 -36 -16 -70 -35 -34 -19 -64 -35 -66 -35 -2 0 -4 15 -4 33 0 52
-59 136 -107 151 -52 16 -80 62 -92 151 l-7 50 -16 -68z"/>
<path d="M4053 5097 c-1 -44 -31 -100 -82 -159 -27 -30 -39 -52 -35 -62 6 -14
11 -13 43 10 55 41 100 95 111 134 18 64 10 110 -19 110 -12 0 -17 -9 -18 -33z"/>
<path d="M3308 5058 c-2 -29 -8 -62 -13 -73 -9 -20 -9 -20 20 -1 48 29 65 54
56 79 -5 12 -9 27 -9 32 -1 6 -12 11 -26 13 -22 3 -24 0 -28 -50z"/>
<path d="M4430 5029 c-1 -67 -69 -183 -170 -287 -53 -56 -66 -82 -41 -82 17 0
178 167 208 215 44 70 49 95 24 141 -19 36 -20 37 -21 13z"/>
<path d="M4673 4533 c-26 -5 -30 -25 -9 -42 11 -10 17 -6 29 19 9 16 12 29 9
29 -4 -1 -17 -4 -29 -6z"/>
<path d="M4482 4464 c-3 -42 -66 -147 -118 -198 -10 -10 -8 -46 3 -46 19 0
116 100 137 141 26 52 25 70 -2 107 l-18 23 -2 -27z"/>
<path d="M623 2482 c12 -58 48 -122 69 -122 18 0 19 4 13 37 -7 40 -26 70 -64
98 l-24 18 6 -31z"/>
</g>
</svg>
