<svg xmlns="http://www.w3.org/2000/svg" viewBox="0 0 461.05 302.74">
    <defs>
        <style>
            .a,
            .b,
            .c {
                fill: none;
                stroke: #fff;
                stroke-linecap: round;
                stroke-linejoin: round;
            }

            .a {
                stroke-width: 11.06px;
            }

            .b {
                stroke-width: 11.06px;
            }

            .c {
                stroke-width: 11.04px;
            }
        </style>
    </defs>
    <path class="a"
        d="M143.16,357.28l-97.77-.48s-18.73-1.44-13.45-32.67c0,0,2.88-23.05,15.37-38.91,0,0,20.66-22.57,29.3-25.93,0,0,3.85-4.33,5.29-8.17l2.4-30.27-2.88-10.08s-8.17-4.81-9.61-8.17l-1-8.17s-1.44-6.72,4.33-6.72c0,0,1.92-13.45-.49-23.06L69.89,156l-.48-15.37s14.89-5.28,19.69-13c0,0,24,4.8,37,3.85,0,0,20.18,2.88,23.06,10.56l5.29,16.82-1.92,18.73-1.93,13s5.77-1.92,5.77,4.81l-1,12.48a118.71,118.71,0,0,0-13.81,4.33v35.67s5.49,13.87,10.12,15.55c0,0,.53.55,14.9,8.83,0,0,11.54,1.85,18.87,16.4L179,294.13s-24.32,31.54-24.21,31.28Z"
        transform="translate(-25.47 -104.63)" />
    <path class="a" d="M60.07,272.21,101.24,357l16.06.29L73.52,262.17Z" transform="translate(-25.47 -104.63)" />
    <path class="a" d="M153.43,264.86l-41.52,80.72,5.39,11.7h10.85l38.46-85.7Z" transform="translate(-25.47 -104.63)" />
    <path class="b"
        d="M344.5,401.84l-183.06-.61s-23.8-1.83-17.09-41.5c0,0,3.67-29.29,19.53-49.42,0,0,26.24-28.68,37.22-32.95,0,0,4.88-5.5,6.72-10.38l3.05-38.44-3.66-12.81s-10.38-6.1-12.21-10.38L193.78,195s-1.83-8.54,5.49-8.54c0,0,2.44-17.09-.61-29.29l-6.1-11L192,126.64s18.92-6.71,25-16.48c0,0,30.51,6.1,47,4.88,0,0,25.63,3.66,29.3,13.43L300,149.83l-2.44,23.79-2.45,16.48s7.32-2.44,7.32,6.1l-1.21,15.86a150.14,150.14,0,0,0-17.54,5.5v45.3s7,17.62,12.85,19.76c0,0,34.17,17.62,39,25.09,0,0,24.56,15,25.63,32.57l1.07,44.32s2.14,7.47-6.41,14.95Z"
        transform="translate(-25.47 -104.63)" />
    <path class="b" d="M180.09,293.78l52.3,107.68,20.39.38L197.18,281Z" transform="translate(-25.47 -104.63)" />
    <path class="b" d="M298.68,284.43,245.94,387l6.84,14.86h13.78L315.43,293Z" transform="translate(-25.47 -104.63)" />
    <path class="c"
        d="M466.59,357.28,362.4,358.93s-1.6-27.67-4.28-28.34c0,0-7.12-16.81-41.58-37,0,0,25.73-33.15,34.57-36.59,0,0,3.93-4.42,5.41-8.36l2.45-31-3-10.32s-8.35-4.92-9.82-8.36l-1-8.35s-1.47-6.88,4.43-6.88c0,0,2-13.76-.5-23.59l-4.91-8.84-.49-15.73s15.23-5.4,20.14-13.26c0,0,24.57,4.91,37.84,3.93,0,0,20.64,3,23.59,10.81l5.41,17.2-2,19.16-2,13.27s5.9-2,5.9,4.91l-1,12.78a119.06,119.06,0,0,0-14.12,4.42v36.49s5.61,14.19,10.34,15.91c0,0,27.52,14.19,31.39,20.21,0,0,19.78,12,20.64,26.22l.86,35.69s1.72,6-5.16,12Z"
        transform="translate(-25.47 -104.63)" />
    <path class="c" d="M334.19,270.26,376.3,357l16.42.3L348,260Z" transform="translate(-25.47 -104.63)" />
    <path class="c" d="M429.69,262.74l-42.47,82.58,5.5,12h11.1l39.35-87.66Z" transform="translate(-25.47 -104.63)" />
</svg>
