<svg xmlns="http://www.w3.org/2000/svg" viewBox="0 0 451.43 481.45">
    <defs>
        <style>
            .a,
            .b,
            .c {
                fill: #fff;
                stroke: #fff;
                stroke-linecap: round;
                stroke-linejoin: round;
            }

            .a,
            .b {
                stroke-width: 1.43px;
            }

            .b,
            .c {
                fill-rule: evenodd;
            }

            .c {
                stroke-width: 1.43px;
            }
        </style>
    </defs>
    <rect class="a" x="99.14" y="397.5" width="77.29" height="83.24" />
    <rect class="a" x="281.07" y="397.5" width="77.29" height="83.24" />
    <path class="b" d="M91.37,60.8S24.78,40.53,31.92,116.64c0,0-13.08,61.83,59.45,55.93Z"
        transform="translate(-30.29 -15.28)" />
    <path class="c" d="M420.82,172.38s66.65,20.07,59.29-56c0,0,12.9-61.87-59.62-55.76Z"
        transform="translate(-30.29 -15.28)" />
    <path class="b"
        d="M427.78,16H90.07V431H427.78ZM374.4,353.13a28.63,28.63,0,1,1-28.6,28.63A28.65,28.65,0,0,1,374.4,353.13Zm-216.84,0c16.57,0,30,12.84,30,28.63s-13.45,28.63-30,28.63-30-12.84-30-28.63S141,353.13,157.56,353.13ZM390.33,60.23H127.53V272h262.8Z"
        transform="translate(-30.29 -15.28)" />
</svg>
