<svg xmlns="http://www.w3.org/2000/svg" viewBox="0 0 303.27 462.83">
    <defs>
        <style>
            .a {
                fill: none;
                stroke: #fff;
                stroke-linecap: round;
                stroke-linejoin: round;
                stroke-width: 12.83px;
            }
        </style>
    </defs>
    <path class="a"
        d="M228.4,113.13s-23.1,12-28.23-10.27l-18,12.84S167.66,90.89,154.83,90c0,0-22.25,4.28-22.25,27.37,0,0-23.1,14.55-21.38-18,0,0-6.85-31.65,35.07-48.76L177.07,31s35.08,0,42.78,26.52Z"
        transform="translate(-104.37 -24.58)" />
    <path class="a"
        d="M132.58,117.4l-1.71,29.09s13.69,2.57,18.83,12.84c0,0,8.13,23.95,19.89,6,0,0,22-6.85,39.14-.86,0,0,22.24-31.66,19.67-53"
        transform="translate(-104.37 -24.58)" />
    <path class="a"
        d="M228.61,120.65s75.93-.14,87.05,51.34c0,0,24,46.37,44.49,91.71L401.22,345s-2.57,27.38-17.12,64.17L355,394.59s12.83-79.56,4.27-97.53l14.83-5.7"
        transform="translate(-104.37 -24.58)" />
    <path class="a" d="M384.1,409.14S372.13,455.33,373,481" transform="translate(-104.37 -24.58)" />
    <path class="a"
        d="M249.79,141.71s-38.5,58.68,15.4,85.2c0,0,25.67,17.11,35.07,87.27l2.57,13.68,35.08-4.28-4.28-76.13s-34.22-52.52-46.2-75.46"
        transform="translate(-104.37 -24.58)" />
    <path class="a" d="M335.77,285.46l30.37-12.35" transform="translate(-104.37 -24.58)" />
    <path class="a" d="M195.21,164.29s16.42,21.56,21,57.49" transform="translate(-104.37 -24.58)" />
    <path class="a" d="M189,164.28s9.31,96.53,33.4,115" transform="translate(-104.37 -24.58)" />
    <path class="a" d="M212.15,161.89s1.59,118.92,24.32,133.46L296,291.93" transform="translate(-104.37 -24.58)" />
    <path class="a" d="M308.13,327.86s-7.7,15.57-2.05,25.33l10.78,8.72,21.05-3.08A20.76,20.76,0,0,0,344.34,341l-9-13.09"
        transform="translate(-104.37 -24.58)" />
    <path class="a" d="M236.47,295.35s-9.95,10.1-7.9,17.29l9.75,15.22,5.65-8.55L245.51,306Z"
        transform="translate(-104.37 -24.58)" />
    <path class="a" d="M244,319.31l10.1,2.05,5.81-9.75-5.81-16.26-8.56,8" transform="translate(-104.37 -24.58)" />
    <path class="a"
        d="M254.07,321.36S284,344.46,289.65,386c0,0,4.62,46.71-14.37,58.52L285,458.41s34.39-14.88,26.69-61.08c0,0,1.54-47.57-26.69-69.47l-25.16-16.25"
        transform="translate(-104.37 -24.58)" />
    <path class="a" d="M244,321.36s-10.78,87.26,1.54,124.22l-17.22,3.08s-17.73-54.92,0-137"
        transform="translate(-104.37 -24.58)" />
    <path class="a" d="M244,397.33l15.91,14.37,30.8-3.59" transform="translate(-104.37 -24.58)" />
    <path class="a" d="M312.85,404.52l34.29-7.19h9.76" transform="translate(-104.37 -24.58)" />
    <path class="a" d="M299.92,311.61H262.45" transform="translate(-104.37 -24.58)" />
    <path class="a" d="M356.9,297.24l-19,9.24" transform="translate(-104.37 -24.58)" />
    <path class="a" d="M259.88,412.73s-10.09,41.42-5.81,66.22" transform="translate(-104.37 -24.58)" />
    <path class="a" d="M274.26,412.73s-7.19,62.47-4.62,66.22" transform="translate(-104.37 -24.58)" />
</svg>
