<svg xmlns="http://www.w3.org/2000/svg" xmlns:xlink="http://www.w3.org/1999/xlink" viewBox="0 0 502.05 509.4">
    <defs>
        <style>
            .a {
                fill: none;
            }

            .b,
            .h {
                fill: #fff;
            }

            .b,
            .d,
            .f,
            .g {
                fill-rule: evenodd;
            }

            .c {
                clip-path: url(#a);
            }

            .d {
                fill: #ed2027;
            }

            .e {
                clip-path: url(#b);
            }

            .f {
                fill: #0079bf;
            }
        </style>
        <clipPath id="a" transform="translate(-4.98 -1.31)">
            <path class="a"
                d="M440.34,276.52,352.44,298l-63.9-22.37L270,269.71s-17.29-7.19-18.33-7.22-17-4.06-17-4.06L227.62,243,232,230.75l12.16-4.54,9.87-2.82L267.76,226l13.65,5.3,8.23,7.81,10.21,1.19,12.9.38,14.5,2.65-1.16-5.82-6.87-8.44-15.78-23.36L273,165.29l-5.8-7.2,12.5-8.67,25.87-24.26L326.71,104l11.13-15.25-2.19-8.89L331.56,75l-3.93-2.39-7-3.14,7.56-15.81,3.06-8.86-.12-4.95-2.44-3.14-2.77-2.62-2.84-1.75-5.32-.71-3.12.13L307.14,37l-1.27-2.26-6.92-7-10.41-5.95L279.16,27,271,31.73,254,42.92l-3.89-7.8L245,27.73,241.23,26l-5.91.38-5.54,2.84-18.71,7.91-5.31-8.5L204.6,15l7-6.81,10.28-.59L232,12.21l6.15-6.72,12.44-.57,9.75,6.49,13.84,9,4.18,3.19,10.05-5.71,13.17-2.55,13,6.8,6.09,6.46L332.84,35l6,11,16.9,17.4,18.48,18.75,28.1,15.36,17.79,14,33.79,29.71L472.48,177l17,25.66,15,12.81,1.92,2.13s-15.48,59.89-32,77.21Z" />
        </clipPath>
        <clipPath id="b" transform="translate(-4.98 -1.31)">
            <polygon class="a"
                points="174.22 247.79 187.37 248.18 202.73 248.19 213.7 245.98 226.25 243.32 223.98 252.16 230.9 259.26 249.44 266.93 262.64 269.99 269.43 273.53 235.31 279.14 214.41 282.37 189.53 283.44 163.34 292.89 143.35 294.73 118.2 282.61 73.75 267.86 70.41 272.24 38.3 291.92 27.9 273.88 5.05 188.8 21.49 175.5 50.58 139.96 68.06 124.78 94.09 102.84 119.91 89.68 138.98 84.67 144.14 83.49 153.17 79.31 168.22 67.28 187.02 56.26 210.39 41.37 226.84 29.48 237.56 25.24 244.38 26.27 252.67 34.03 249.48 45.36 258.83 39.55 266.68 33.93 278.54 26.19 291.81 23.41 301.21 26.36 303.14 34.6 305.03 38.33 314.41 28.86 327.08 31.07 331.02 37.54 330.52 53.43 323.97 64.09 319.88 66.81 330.21 73.46 335.28 82.45 333.4 92.63 324.54 104.68 309.68 120.27 297.76 133.78 281.94 149.55 238.49 178.99 201.82 210.97 190.7 220.73 182.68 228.51 177.96 237.5 169.07 244.67 167.86 248.11 174.22 247.79" />
        </clipPath>
    </defs>
    <path class="b"
        d="M440.34,276.52,352.44,298l-63.9-22.37L270,269.71s-17.29-7.19-18.33-7.22-17-4.06-17-4.06L227.62,243,232,230.75l12.16-4.54,9.87-2.82L267.76,226l13.65,5.3,8.23,7.81,10.21,1.19,12.9.38,14.5,2.65-1.16-5.82-6.87-8.44-15.78-23.36L273,165.29l-5.8-7.2,12.5-8.67,25.87-24.26L326.71,104l11.13-15.25-2.19-8.89L331.56,75l-3.93-2.39-7-3.14,7.56-15.81,3.06-8.86-.12-4.95-2.44-3.14-2.77-2.62-2.84-1.75-5.32-.71-3.12.13L307.14,37l-1.27-2.26-6.92-7-10.41-5.95L279.16,27,271,31.73,254,42.92l-3.89-7.8L245,27.73,241.23,26l-5.91.38-5.54,2.84-18.71,7.91-5.31-8.5L204.6,15l7-6.81,10.28-.59L232,12.21l6.15-6.72,12.44-.57,9.75,6.49,13.84,9,4.18,3.19,10.05-5.71,13.17-2.55,13,6.8,6.09,6.46L332.84,35l6,11,16.9,17.4,18.48,18.75,28.1,15.36,17.79,14,33.79,29.71L472.48,177l17,25.66,15,12.81,1.92,2.13s-15.48,59.89-32,77.21Z"
        transform="translate(-4.98 -1.31)" />
    <g class="c">
        <path class="d"
            d="M360.09,313.83c-.66-.75-.6-1.67-.22-3.31.45-1.95.2-5.47.47-6.75,1.1-5.25.65-10,1.77-15.31a19.54,19.54,0,0,0,.52-7.18c-.17-.93.89-2.28.74-3.32a5,5,0,0,1,.42-3.51c.49-1-.71-2.12-.89-3.68-.11-1,.62-4.12.55-5.13s.38-2.33.32-3.24c-.18-2.86,0-5.75-.16-8.58s.78-6.88,0-9.62c-2.27-8.38-3.07-13.54-4.77-19.51-.89-3.13-2.26-5.62-3.52-10-.27-.94-5.74-7.36-6.27-8.17-.28-.43-.61-2.33-.87-2.78-1.05-1.86-3.92-2.87-4.83-4.28s0-3.41-1.61-4.33.78-3.38-.91-4.37c-2.13-1.24-3.47-3.11-5.66-4.39s1.28-2.15,1.66-2.12c1.08.07-3.26-3-3.6-3.23-1.69-1-3.2-3.65-4.72-4.53-.54-.31.09-1.76-.09-2.43s-1.58-3.76-1.58-3.76,1.92,2.71,2.45,1.82c.23-.39.52-3.5-.05-3.83-3.12-1.82-5.7-4.35-9-6.28-.75-.44-.76-1.91-1.31-2.54-.19-.22-1-1-.91-1,.23-.4,1.36.28,1.36.28s-3.71-3.44-2.75-5.09c.44-.75,1.49-.65,2.07-1.14,2.23-1.88,4.19-1.69,6.39-1,1.74.53,3.62,1.7,5.42,2.08.45.1,4.59-.91,4.8-1.26.29-.5-.29-1.18,0-1.69.1-.18,2-1.69,2.36-1.5s1.65.28,2.13.55c.85.5,1.76.52,2.9,1.06.62.29,2.12-.64,2.8-.26s1.81-.16,2.53,0a27.07,27.07,0,0,1,5.7,2.45,27.6,27.6,0,0,0,3.25,1.39c.62-.16-1.18-4.06-.88-4.58.39-.67,1.36.4,2.43.91.26.13,1,.92,1.18.79s-.18-1.28.1-1.21c.61.16,1.5,1.28,1.57,1.32.3.18.59-.66,1.21-.71.86-.06,2.07.57,2.16.1s-2.2-1.6-2.17-1.67c.22-.37,1.41,0,1.41,0a16.5,16.5,0,0,1-2.43-1.92,15.37,15.37,0,0,0-2.73-2.33c-.46-.27-1.8-1.43-1.66-2.06s1.42-.19,1.83-.47c.7-.48.54-1.33,0-1.19-.23.06-.68-1.82-.85-2-.4-.46-2.32-2.11-1.77-3.06a5.21,5.21,0,0,1,2.45.33c1.31.43,2.61,1.15,2.47.47a9.15,9.15,0,0,0-1.24-1.45,14.54,14.54,0,0,0-8.17-4.26c-1-.2-1.93-1.57-2.51-2.23,0,0-1.3-1.26-1-1.34.75-.2,4.93,3.28,5.44,2.42s-2.88-3.2-3.12-3.35c-.8-.46,1.27-1.28,1.1-1.89-.27-1-2.79-1.4-1.74-1.67,1.44-.38,2.62,1.18,4.45,2.23,1,.56,1.43,1.34,2.55,1,.8-.21-2.83-3-3.09-3.13-2.9-1.7-6.77-4.21-9.54-5.83-.09,0,.46-.39.23-1.23-.31-1.13-1.41-2.84-1.33-3,.31-.53,1.09.23,1.84.39.37.08.51-.32.9-.23a28.59,28.59,0,0,1,3.07,1.2c.41.09,2.18,1.56,2.48,1,.39-.67-1.68-2-3.62-3.14-1.16-.7-2.69-1.34-2.44-1.77s2.56.18,2.63.27c.34.39,1.57,1.08,1.44.58-.33-1.26-4.68-3.21-5.06-4.36-.48-1.42-1.7-1.65-3.47-3a21.09,21.09,0,0,1-3-3.92c-.66-.75-1.11-2,.05-1.74,1.71.36,2,1.28,3.34,2.25a25.94,25.94,0,0,0,2.41,1.48c.59.33.86,1.38,1.41,1.68s1.55-.07,2,.19c.81.47,0-1.47.72-1.07,1,.6,2.68,1.45,4.18,2.15,2.55,1.18,5.17,2.25,7.19,3.44a17.58,17.58,0,0,1,2.48,1.15c.53.49.22,1.12.7,1.22,3.33.7,5.44,5,9.7,5.85.78.16,2.9,1.7,3.09,1.36.36-.62-1.07-1.29-1.71-2.08a2.71,2.71,0,0,1-.6-1.8,25.61,25.61,0,0,0,3.26,2.67c2.58,1.51,5.84,2.45,8.3,4.42,2.68,2.15,5.08,2.19,6.81,4.16,1.41,1.6,4.28,3,5.38,4.21,4.5,5.13,8.15,8.2,12.62,13.71.45.55,1.65.81,2,1.37a52.94,52.94,0,0,0,3.94,4.49c.35.4,1.28,3,1.54,2.79,2.38-2.09-2.88-6.74-3.7-8-3.81-5.84-9.46-10.78-13.72-15.62-.74-.84-4.72-4.53-4.72-4.53s5.36,3.37,5.84,3.92c1.78,2,4,4.71,6.4,6.11a25.81,25.81,0,0,1,5.84,5.1c1.62,1.85,2.8,4,4.43,5.89,1.11,1.26,1.85,3.87,3.14,4.62a27.89,27.89,0,0,1,7.06,6.16c.79.9.9,2.4,1.4,3.63a14.59,14.59,0,0,0,2.67,3.49c.59.63,2,.28,2.66.92a50.75,50.75,0,0,1,4.13,4.94C440,171,441.84,174.7,443,176c3.4,3.87,2.09,6.14,5,10.65.64,1,2.32-.54,2.61.83a8,8,0,0,0,.48,1.4c.16.39,1.12.76,1.33,1.2.54,1.1.65,2.77,1.11,4a30.35,30.35,0,0,0,1.79,3c2.7,5.66,3.45,9.88,4.4,13.5.31,1.18,1.55,3.09,2.28,5,.58,1.54.63,3.21,1.08,3.88s.49,4.16,1,6.23c.51,1.9,1.6,2.47,2.22,4.21.82,2.3,1.14,10.05,1.79,12.69,1.05,4.27.48,9.06.9,14.23.66,8.14-2,29.5-3.66,31.59-2.28,2.88-55-4.34-57.57-1.72-1.51,1.55-3.13,3.78-5.13,4.87a26.28,26.28,0,0,0-7.67,6.18c-2.61,3.29-5.58,4.11-8.65,6.12a60,60,0,0,1-18.18,7.66c-2.81.72-5.93,3.51-8.12,2.23Z"
            transform="translate(-4.98 -1.31)" />
    </g>
    <polygon class="b"
        points="169.24 246.48 182.39 246.87 197.75 246.88 208.72 244.67 221.27 242.01 219 250.85 225.92 257.95 244.46 265.62 257.66 268.68 264.45 272.22 230.33 277.83 209.43 281.06 184.55 282.13 158.36 291.58 138.37 293.42 113.22 281.3 68.77 266.55 65.43 270.93 33.32 290.61 22.92 272.57 0.07 187.49 16.51 174.19 45.6 138.65 63.08 123.47 89.11 101.53 114.93 88.37 134 83.36 139.16 82.18 148.19 78 163.24 65.97 182.04 54.95 205.41 40.06 221.86 28.17 232.58 23.93 239.4 24.96 247.69 32.72 244.5 44.05 253.85 38.24 261.7 32.62 273.56 24.88 286.83 22.1 296.23 25.05 298.16 33.29 300.05 37.02 309.43 27.55 322.1 29.76 326.04 36.23 325.54 52.12 318.99 62.78 314.9 65.5 325.23 72.15 330.3 81.14 328.42 91.32 319.56 103.37 304.7 118.96 292.78 132.47 276.96 148.24 233.51 177.68 196.84 209.66 185.72 219.42 177.7 227.2 172.98 236.19 164.09 243.36 162.88 246.8 169.24 246.48" />
    <g class="e">
        <path class="f"
            d="M171,68c.44.9-.39,3.19-1.19,4.67-1,1.76-1.64,5.22-2.24,6.39-2.45,4.77-3.28,9.47-5.77,14.29a19.25,19.25,0,0,0-2.4,6.78c-.09.94-1.47,2-1.59,3a5,5,0,0,1-1.34,3.27c-.73.81.12,2.23-.12,3.79-.15,1-1.69,3.81-1.89,4.8s-1,2.15-1.17,3c-.58,2.8-1.54,5.54-2.12,8.31s-2.58,6.42-2.59,9.27c0,8.68-.64,13.87-.58,20.08,0,3.26.69,6,.74,10.56,0,1,3.58,8.62,3.88,9.54.16.49,0,2.41.1,2.91.52,2.07,3,3.81,3.52,5.4.55,1.74-.87,3.3.4,4.61s-1.65,3.05-.28,4.45c1.72,1.76,2.52,3.92,4.29,5.73s-1.81,1.73-2.17,1.61c-1-.35,2.34,3.79,2.62,4.07,1.37,1.4,2.12,4.37,3.34,5.62.43.45-.55,1.68-.56,2.37s.53,4,.53,4-1.14-3.12-1.87-2.4c-.33.32-1.43,3.24-1,3.71,2.53,2.58,4.35,5.7,7,8.45.61.62.22,2.05.59,2.8a7.43,7.43,0,0,1,.6,1.25c-.33.32-1.23-.63-1.23-.63s2.66,4.31,1.3,5.64c-.62.61-1.61.24-2.3.55-2.65,1.22-4.49.52-6.43-.72-1.54-1-3-2.6-4.68-3.44-.41-.21-4.67-.34-5-.06s0,1.21-.45,1.62c-.15.14-2.41,1.09-2.67.82s-1.52-.7-1.91-1.1c-.69-.7-1.56-1-2.51-1.79-.52-.45-2.21.05-2.77-.49s-1.79-.33-2.44-.67a27.49,27.49,0,0,1-4.84-3.87,28.64,28.64,0,0,0-2.76-2.2c-.64,0,.06,4.23-.36,4.65s-1.21-.74-2.1-1.52c-.22-.19-.74-1.15-.93-1.07s-.16,1.29-.42,1.14c-.54-.32-1.11-1.64-1.16-1.69-.24-.25-.74.48-1.35.36-.85-.17-1.84-1.1-2-.66s1.7,2.13,1.65,2.18c-.3.3-1.36-.37-1.36-.37a16.18,16.18,0,0,1,1.83,2.5,16.42,16.42,0,0,0,2,3c.37.38,1.35,1.85,1.06,2.42s-1.42-.19-1.89,0c-.8.27-.88,1.14-.33,1.15.24,0,.17,1.94.28,2.17.27.55,1.68,2.65.89,3.42a5.14,5.14,0,0,1-2.27-1c-1.15-.76-2.21-1.8-2.25-1.11a8.87,8.87,0,0,0,.81,1.73,14.54,14.54,0,0,0,6.75,6.28c.87.45,1.45,2,1.83,2.81,0,.05.92,1.56.6,1.56-.77,0-3.89-4.48-4.61-3.77s1.93,3.85,2.12,4c.64.66-1.56.9-1.57,1.53,0,1.08,2.32,2.09,1.24,2.07-1.48,0-2.21-1.84-3.7-3.33-.79-.8-1-1.67-2.18-1.68-.83,0,1.93,3.63,2.15,3.84,2.35,2.4,5.41,5.85,7.65,8.15.08.08-.55.25-.55,1.12,0,1.17.6,3.12.5,3.22-.44.43-1-.51-1.67-.86-.34-.18-.57.17-.92,0a26.93,26.93,0,0,1-2.64-2c-.37-.19-1.69-2.08-2.11-1.66s1.1,2.35,2.65,4c.93,1,2.23,2,1.88,2.35s-2.42-.85-2.47-1c-.23-.46-1.22-1.46-1.23-.94,0,1.3,3.66,4.34,3.73,5.54.08,1.49,1.2,2,2.55,3.81A21.16,21.16,0,0,1,135,281c.44.9.54,2.21-.51,1.67-1.55-.8-1.57-1.76-2.62-3.05a27.34,27.34,0,0,0-1.93-2.07c-.48-.47-.46-1.56-.92-2s-1.51-.34-1.88-.72c-.65-.67-.41,1.41-1,.84-.83-.85-2.19-2.11-3.45-3.18-2.15-1.81-4.38-3.55-6-5.22-.49-.5-1.72-1.17-2.09-1.76s.08-1.14-.35-1.36c-3-1.56-3.93-6.22-7.8-8.21-.7-.36-2.34-2.41-2.62-2.14-.51.5.69,1.53,1.09,2.46a2.71,2.71,0,0,1,.1,1.9,25.93,25.93,0,0,0-2.44-3.44c-2.09-2.13-5-3.91-6.83-6.46-2-2.79-4.32-3.46-5.46-5.82-.93-1.92-3.34-4-4.07-5.49-3-6.14-5.68-10.07-8.53-16.57-.28-.65-1.37-1.22-1.61-1.86a53.41,53.41,0,0,0-2.61-5.38c-.23-.47-.43-3.24-.74-3.09-2.85,1.39,1,7.27,1.45,8.7,2.13,6.64,6.26,12.9,9.08,18.71.49,1,3.34,5.62,3.34,5.62s-4.27-4.67-4.59-5.32c-1.18-2.43-2.6-5.6-4.55-7.59a26.2,26.2,0,0,1-4.28-6.46c-1.07-2.21-1.63-4.62-2.71-6.85-.73-1.51-.76-4.22-1.8-5.29a27.86,27.86,0,0,1-5.18-7.81c-.52-1.08-.23-2.55-.38-3.87-.33-2.84-2.35-5.11-2.32-7.85a19.94,19.94,0,0,1,1-3c.63-1.73-.73-5.34-1-5.62-.46-.47-1.76-.2-2-.49-.6-.81.17-1.94-.61-3.54-2.25-4.64,1.52-11.63-.12-16.76-2-6.33-1.68-12.46-1.61-19.09,0-2.19-.55-5.89.4-7.74,5.14-10,13.5-18.64,23.24-25.77,2.4-1.75,4.13-4.64,6.58-6.43,7-5.16,13.92-10.42,21-15.56,3-2.17,6.5-3.3,9.67-5.16,1.86-1.09,4-2.81,6.24-3.34a26.41,26.41,0,0,0,9-3.92c3.39-2.48,6.47-2.49,10-3.6a60,60,0,0,1,19.56-2.56c2.46,0,5.55-1.32,7.51-.6C169.87,69,171,68,171,68Z"
            transform="translate(-4.98 -1.31)" />
    </g>
    <path class="g"
        d="M241.45,10.85s-1.23,14.57,7.35,15.78c0,0,9.17,5.54,6.77,13.84l16.79-9.32S253.58,42.8,255.55,49.08c0,0-5.4-6.14-15.45,7.2L212,74.36l-21.6,18.27.72,8.16s-.39-2.88-4.84-6.37c0,0-6.32,3.16-5.74,8,0,0-4.23-2.76-12.59-3.24l8-3.12,10.78-8.3s6.06-2.45,0-9.81c0,0,3.73,3.46,13.2-1L216.78,65.4s5.57-2.23,2-10.23c0,0,2,5.09,10.26,1.26L243.7,45.61s7.34-5.53,4.43-12.08L241,27.81s-1.47-1.48-2-6.76Z"
        transform="translate(-4.98 -1.31)" />
    <path class="g"
        d="M265.51,165.07s32.6,37.34,40.38,52.89l15.52,19.22,1.24,3.29S311.32,235,304,236.28l-12.4-1.52S276,224.15,261.55,221.81c0,0-19.56-5.56-37,14.8L212.11,242s-30.54-3.2-35.6-.48c0,0,14.85-22.92,23.17-26.12l6.34-.77s17.44-20,24.82-23.59l12.36-10,16.29-13.5ZM268,142.72c5.55,6.61,14,0,14,0l22.2-22.32c2.24-3-1.65-8.9-1.65-8.9,4.24,2.28,11,.32,11,.32l19.6-23.36c3.35-8.28-7.4-17-7.4-17,3.39-1.34,7.6,1.9,7.6,1.9l5,10C344.33,97.19,359.5,102,359.5,102l-3.4,1.81-12.37-2.52L337,93.62c-5.47,15.16-26,28.2-26,28.2-.84,4.05-7.92,8.86-7.92,8.86-9.46,4.27-16.46,22.49-16.46,22.49l-1-5.3-13.72,10.85,14.4,15c9.55,17,13.9,15.5,13.9,15.5,1.42,8.55,11.36,20.44,11.36,20.44l2-2.33,2-12.15c3.7,4.42,2.92,14.45,2.92,14.45-1.72,17.66,5.74,24.34,5.74,24.34,2-2.09,5.75-8.21,5.75-8.21-1.91,7.84,2.65,23.77,2.65,23.77-4.67-4-33.73-8.65-33.73-8.65-5.92-2.09-9.69,3.78-9.69,3.78l-1.53-4.83c-2.95-5.35-24.25-13.64-24.25-13.64-14.5-3.54-26.23,4.73-26.23,4.73-7.36,6.24-5.41,13-5.41,13,.74,15.58,19.4,15.65,19.4,15.65l20,3.22c9,2.42,14.92-10.81,14.92-10.81l.16,10.78c.08,5.27,10.07,7.48,10.07,7.48,6.32,5,15.11,7.15,15.11,7.15,10.07-.42,9.51,2.2,9.51,2.2,22.7,17.42,32.94,11.26,32.94,11.26,4.92-4.64,36.34-6.59,36.34-6.59,13.17-.33,27.48-6.61,27.48-6.61l12.47-.83,15.73-3.76c-.47.34,26.61,15.4,26.61,15.4s12.74-26.61,17-38.76c3.89-11.07,8.6-34.14,8.6-34.14s7.93-.07,8.66.79c1.3,1.52-3.76,20.21-11.25,39.22-8,20.35-16.14,38.55-19.49,39.64-6,2-33.77-16.61-33.77-16.61-15.4,11-39.63,11.77-39.63,11.77-25,1.18-37.35,8.47-37.35,8.47-9.9,3.06-31.86.74-31.86.74-51.5-31.2-60.12-24.51-60.12-24.51-15.31,4.57-61.54,8.95-61.54,8.95-18.65-.79-41.22,9.79-41.22,9.79C151,300.68,141.27,298,141.27,298l-25.5-11.76c-12.74-6.36-29.7-9.14-40.06-13.39-10-4.09-17.47-21.26-17.47-21.26,2.48-3-2-15.22-2-15.22l12.11,17.7c4,10.65,23.93,16.5,23.93,16.5,4.41,4.68,29.42,8.77,29.42,8.77,4.59,6.6,24.55,11.5,24.55,11.5L174,281.37c6-1.74,5.73.41,5.73.41,13.72-2.71,28.69-7,28.69-7-1.52-13.45,4.23-13.52,4.23-13.52-1.51,10.73,5.65,11.42,5.65,11.42,32,9.08,43.4-2.55,43.4-2.55l-20.15-6.58c-23.06-5.47-19-20.19-19-20.19-14.15,1-13.49,10.85-13.49,10.85l-4.61-5.88c-3.82-3.81-40.29,1.46-42.77,1.83l-.13,0,.13,0c8.77-1.38,10.38-23.84,10.38-23.84,5,2.06,3.46,12.55,3.46,12.55l6.81-11.77L184,219.2c4.4-19.5,8-18.67,8-18.67l.07,13.89c5.35-2.71,17.08-19.12,17.08-19.12,5,1.34,22.74-16.32,22.74-16.32l19.31-14.87,17.93-15.51c1.53-2.27-.57-5.18-1.13-5.88,0-.05-.09-.1-.13-.16Z"
        transform="translate(-4.98 -1.31)" />
    <path class="g"
        d="M131.31,129.32s9.34,7.93,36.24,15.75c0,0,16.06,7.18,20.38,12.41,0,0-15.69-9.08-19.87-7.93,0,0-27.39-10.06-29.88-12.05Z"
        transform="translate(-4.98 -1.31)" />
    <path class="g" d="M126.68,148.33s12.28.2,43.14,19.62L191,181.18s-17.59-9.45-20.81-8.59L155,161.77Z"
        transform="translate(-4.98 -1.31)" />
    <path class="g" d="M73.65,203.64s57.11-40.44,112.31-9.9l2.8,2.38s-32.69-14.75-63.35-7.42L81.65,200.76Z"
        transform="translate(-4.98 -1.31)" />
    <path class="g"
        d="M46.76,222.38s1.83,5.66,2.65,7.55,2,3.89,2,3.89l2.71-.65a14.07,14.07,0,0,0-1.7-5.76A13.71,13.71,0,0,0,46.76,222.38Z"
        transform="translate(-4.98 -1.31)" />
    <path class="g" d="M320.68,189.87S393,173,433.24,223.64l3.35,4.41s-28.64-22.29-39.1-24.71l-21.56-9.25-27.66-3.5Z"
        transform="translate(-4.98 -1.31)" />
    <path class="g"
        d="M320.09,178.58a19,19,0,0,1,15.41-9.69l6.53-.57s31.41-13,48.1-14.09l3.49-1.43L392.35,157s-24.8,3.48-47.9,13.91l-3.13,2.21s-2.23-2.17-9.59.48Z"
        transform="translate(-4.98 -1.31)" />
    <path class="g"
        d="M327.47,155.62s5.9-5.19,19.76-7.65l14.63-2.44L386,138.39l.3,2.88a103.79,103.79,0,0,1-28.55,7s-17.12,2.56-19.27,4.22l-6.81,3.63Z"
        transform="translate(-4.98 -1.31)" />
    <path class="g" d="M457.24,248.22l-6.18,8.43s-2.39,3,.85,3.47l5.09-3.87,2.85-5.85.09-2.87Z"
        transform="translate(-4.98 -1.31)" />
    <path class="g" d="M242.14,33.92s.94,7.11-1.43,9.53,6.56-1.72,6.27-4.79l-1-4Z" transform="translate(-4.98 -1.31)" />
    <path class="g" d="M296,32.64s2.48,7-8.93,17l1.07,2.52s11.49-6.55,11.14-14.22a5.61,5.61,0,0,0-.63-4.61Z"
        transform="translate(-4.98 -1.31)" />
    <path class="g" d="M323.41,37.66s3.37,8.91-16.71,27.66l1.28,2L315.85,60s11-10.4,10.26-16.74Z"
        transform="translate(-4.98 -1.31)" />
    <path class="g" d="M327.17,78.75s1.75,5.61-9.33,17.53l.68,2.89L325,93.81s6.32-6.52,5.1-10.57Z"
        transform="translate(-4.98 -1.31)" />
    <polygon class="g" points="334.13 75.3 338.56 74.28 335.93 79.18 334.13 75.3" />
    <path class="g"
        d="M5,187.12c1.43-5.64,28.54-19.77,39.34-45.3,0,0,17.66-30.59,65.79-55.5,0,0,30.56-13.46,36.63-8.49,0,0,16.67-13.39,26.86-17.88l33.17-21s-16-25.37.52-34c0,0,14-4.37,24.77,4.08,0,0,8.84-23.67,47,11.92,0,0,10.52-16,30.33-5.81L321.58,27s15.7,3.34,16.3,15.32l23.28,22.23,21.9,20.27s74,23.25,99.87,103.48l23.94,28.17-9-.44L482,202.14s-2.4-2.71-7.09,4.17c-2.08,3.05-5.53,6.59-7.85,15.49,0,0,9.37-41.85-7-53.82,0,0,3.67-10.9-14.5-27.71,0,0-16.05-30.07-34-17,0,0,23.9-13.89-33-31.85,0,0-21.75-25.54-26.11-23.75,0,0-7.23-14.57-16.68-18.68,0,0,1.14,10.09-31.19,35,0,0-25.21,27-34.29,26.27,0,0-21.71,21.86-40.66,31.35A46.32,46.32,0,0,1,228,163l-4.1-7.1-2.34-18s5.71,1.13,11.24-7.81c0,0,23.4-5.05,30.09-25.44,0,0,32.77-12,32.73-26.8,0,0,13.9-.55,33.89-29.16,0,0,4.07-8-2.52-12,0,0-1.69-7.71-14.74-3.31,0,0,3.39-17.61-21.19-12.12,0,0,24.27,5,13.11,26.24L290,60l.74,7.2-5.63-4s-31.15,17.27-27.57,26l-6.23.29s-29.11,13-29.33,20.68l2.19,6.77-8-4.07L214.45,120s-3-10.14-17.41-10.09c0,0,7.55,3.57,24.18-8.38,0,0,12.72-9.2,8.62-16.5,0,0,4,6.18,15.72-.17,0,0,22.16-11.47,18.56-21.47,0,0,1.76,3.24,11.79-1.25L296.4,49S306,39.1,300.13,31c0,0-3.88-9-22.89-2.91,0,0-23.72-21.73-29.67-21.94,0,0-15.51-4.29-10.75,18.19l-1.06,3.48s-6-2.09-6-13.58c0,0-13.71-11.26-20.72-.93,0,0-8.15,5.82,3.2,21.16l3.11-.2s-8.79-17.36-.75-20.95c0,0,.83,13.43,6.74,17.29l9.9-1.76s-24.09,10-19.44,19.12l-4.72-2.33s-32.92,12.57-25.7,22.77l-6.66-1.29S146.2,79.28,150.13,85.22c0,0-7.79-6.74-33.77,8.45,0,0-16.14,6.39-7.88,12.85l6.64,7.38s-11-8.17-17.57-7.27c-7.41,1-14.27,4.62-25.85,18.6,0,0-13,5.36-16.14,19.31,0,0-14,7.89-15.87,24l-.89,13.86,2.42,15.23.86,3.22s-6.58-4.18-6.45-13.91c0,0,.6-9.56-3-12.06,0,0-4-4.27-10.75,2.08L11.51,188.62s9.31,44,18.22,76.55c4.47,16.3,10.6,23.74,10.6,23.74s21-14.11,31.53-22c4.91-3.69,5.16.94,5.16.94,2,1.3-19,16.38-19,16.38s-15,12.92-19.58,11.34C24.21,290.62,3.79,192,5,187.12Z"
        transform="translate(-4.98 -1.31)" />
    <path class="h"
        d="M97.66,435.46l-1.87-.18-1.56-.88v-1.23l.21-.53v-1.4L93.92,430l-.21-5.79,1.35-.53.52-1.23-.32-25.3L94.43,346l-.21-5.61H93.5l-.1-2.46L92.77,336l-.62-.88-.73-3.33v-4.21L91,326.7v-1.23l-.31-1.75.52-5.26,1.56-3.86,1-1.05h.83l1.25,1.93.83.35.42-1.4,9,5.26,2,2.28,1.25,3,.42,2.63.52,13.51v11.4l9.77-18.24.94-2.46,7.49-12.28,1.77-1.93.83.53.73-1.05,2.39,1.75.62.53.31,1.4h.73l-.31,2.46h.83l.52.53.62-.18.83,2.63v1.05l2,5.09H141l-1.35,8.95-.62,1.4-2.6,5.09-.52.7-8.11,18.77-2.29,4-.62,2.28,1.35,4,1.87,3.51,2.29,3.33.52,1.58s8.37,15.64,10.5,21.05c1.32,3.34,2.29,11.4,2.29,11.4v1.05l-.62,2.81-2.46,3.61-2.53,2.88-.73.35-.52.7-.83.35-.42,1.75H135l-.62,1.4-1.25-.53-2.6-3.16-.94-2.1-.17-.93-3.67-8.2-.21-.35-.31-1.23-.21-.35L122.94,412l-.1-.35-.42-1.05-.31-.17-.42-1.23-1.14-.88L111,390.55l-.62.17-1,1.23v3.33l.62,3.86.1,1.23-.21,4-.42.7-.1,1.93.31.7-.21,5.79.21,1.93.42,1.23s.51,7.66-1.18,11.93c-1.55,3.91-5.27,4.44-6.06,4.91A24.77,24.77,0,0,1,97.66,435.46Z"
        transform="translate(-4.98 -1.31)" />
    <path class="h"
        d="M171.27,416.28l2.7-1.23.52.53,1.77-.88,2.6-2.81.42-1.23,1.25-.7.42-.7-.52-3.86-.42-1.93.21-1.23.21-1.75-.22-16.42-.21-.53-.52-13.76-8.36,8.81-1.35,1.58L168.42,383l-2.08,5.26-1.25,6v7.37l1.56,7.72,3.8,6.46Zm15.19,19.83-.94,2.28-1.35-.35-.62-1.58-.42-2.1-.42-.35-.31-1.23-.31.7v.88l-.23.63-.62-.35H178l-1.12.95-.52.18h-.73l-.94.35h-.52l-2.7.53-.94.53-.52.35h-.94l-1.14.35-.52-.7h-1l-.42.35h-.73l-2.39-1.4-.31-.53-.73-.7-2.29-1.4-.52-1.05-1-.88.21-.88-1.14-1.4L155.78,427l-1.66-3.86-.62-.88-.83-3.16-.94-4.39-.62-1.75-.62-4.21-.77-5.37,0-1.64L151,392.1l.31-4,1.14-4.56.31-.7,2.18-7.72.42-3,3.95-8.95,2.08-3.33,5-6.14,2.7-2.28,6.14-3.33.52-.7.83-.53-.42-1.05.93-.88,3.85-.18.62.88h.52l.52.53.94-.35,1.25,1.75,3.74,1.23.42,1.58h.83l.52.18,1.25,1.4.73,1.75.42,1.23.31,2.46.1,3v1.58l.21,1.58h.42v3.16l.21.53-.83,3.33.42,10.35-.66,16,.45,10.35-.21,2.81.21,1.58-.1,3-.73,14.91-1.35,1.58-1,.53-.52,1.4-.42-.18h-.52l-.73.88-1.14,1.58Z"
        transform="translate(-4.98 -1.31)" />
    <path class="h"
        d="M247.29,363.37l-3.53,64.71L242.09,433h-1l-.62-1.4-.62-.18-1.35,2.63-3.74,3.16-.73.35h-.73l-.31.18-.21-.53h-.83l-.62-.7v-1.23l-.42-1.23-.62-.7v-1.23l-.21-.53.21-2.1L230,429l-1-24,.62-20.35.31-.88-.31-2.81.31-5.09V364.93h-.52l-.94,1.4-6,6.67-2.39,1.93s-3.79,4.52-4.36,12.92c-.55,8.12-.22,35.5-.22,35.5l-.42,1.75v3.16s-1.5,2.18-1.87,2.62a3.45,3.45,0,0,1-1.25.72l-.42,1.23-.94,1.4-.52.35-.52-.35-.73.53h-.52l-.42.88h-1.14l-.52-.35h-.73l-1.87-1.23-.1-5.61H203l-.42-2.81v-4.21l-.42-4-.52-3.16v-6.67l-.31-.7.21-.53-.42-1.75V402.3l.1-1.93.31-.35v-1.75l.1-1.4-.42-3.68.42-1.93-.31-.53v-4.21l.31-1-.1-7,.1-2.28-.1-5.26-.21-1.05-.21-2.28V349.33l-.42-2.1-.42-.53v-1.05l.31-.7-.31-.88.83-.53-.42-.7.83-3.86.73-1.05,1.35-.53.83-.53.52.88,5.2,2.81,3.95,3.16,1.25,1.75.83,1.93.83,3.16,2-1.93,1.56-1.23.94-1.4,4.78-.88,4.06.35,1.25-.7h2.6l1.66.88.73,1.05h.62l.94.53.73,1.23.83.17v.7l1.35,1.23,1,2.46,2.6,2.28.35.7.21,1.23,1.14,3,.21.35.52,1.58Z"
        transform="translate(-4.98 -1.31)" />
    <path class="h"
        d="M275.57,460.05l12.51,6.35.38,1.69c-.82,1.48-2.62,4.59-2.62,4.59s-6.91,2.58-10.3,3.44L265,477.21a22.76,22.76,0,0,1-2.95-.88c-.8-.76-3.39-3.85-3.39-3.85l-.21-1.76.94-.7,1.07-.6,2.85-10.33,1.56-2.16,1.66,2.33,1.56.53.31.53Zm-2.21-62.87h1.77l3.33-2.1,1.25-2.28L285.77,380l.57-6.69.31-2.45-.31-2.28h-3.22l-4.21-1.21-3,1.58-2.49,4.91-4.47,5.61-2.38,6.73-.94,3.33-.21,2.81v2.81l1.66,1.93,4.33-1.16,1.14.35ZM258,470l-1.87-1.12L254,465.63l-.21-.53-.62-2.81-.31-2.46-.11-6.12.73-4.23-1-2.28v-1.4l3-6.31.62-.53,4.06-5.44-4.26-11v-2.63l1.25-4.21,2-3.68,1.25-1.4-.21-1.4h-.42l-1.56-2.46-1-2.45-.83-4.39v-.7l-.42-.35-.21-2.28L255,393,254,387.4v-2.81l.52-1,1.06-10.06,1.65-5.55,1.46-4,2.39-4.56,4.06-5.09,3.74-2.46,8.32-4.21,2.81-.35h5.3l2.7,1.58,4.58-7.19,3.95-4,2.18-.7.21-.53h1.66l.31-.35,1,.88,1.56,3.16.42,1.75.31,2.11-.42,1.4-.1.53v1.75l-.21,1.23-.42,1.4v.7l.31.35-.94,1.58-.1.7-.83,2.28-3.33,3.51L295,361.08v.7l1.25,4.39.31,2.46H297v1.75l.31,1.4v.88l.52,1.23.62,2.46-.62,4.21-.21.7-.39,4.54-1,3.88-2,4-.31.35.31,3.16-.21,1-.52,1.23.31.88-.52,1.05-.21,1.23-.94,1-.83,1.75-.31.18-1.66,1.75-.83.53-.73.7-.94,1.93-1.35,1.93-.62,1H284l-.21.53-.83.53-.31.53-.94,1.23-1.35.53-.52.18-1,.53h-2l-.31.7h-.83l-1.56.35-.31.18-.94.35-.94-.88h-.73l-.31.35-1.14-.35-1.1-1-.66-.73-2.08.35-1.87.88,5.1,4,8.11,2.28,7.69-.35.62-.18,1.46-.35h1l5.72,4,6.55,10.52.42,1.4v1.23l.52.53.52,2.1,1.38,4.36.31,1.23-3.25,10.23L296.25,462l-1.25.35-2.7,3-3.85,2.81-.38-1.69-12.51-6.35-1.46,1.23-1.45.17-.1,1.23-.1-1.4-1.25.17-.1-1.58,12.07-6,7.48-5.55.83-2.1-.42-1.23.73-.53-.62-.35-1.46-.35-.94-.53-2.6-.7-.94.17h-4.37l-4.39-.44-.42-.35-3.54-.35-1.66-.88H269.6l-.52-.35-1,.42-.73-.35h-1L262,446.16l-.34,3.55v1.75l.54,1.82v1.4l2.65,2.26.45,7.83.42,1.23-7.28,4.74Z"
        transform="translate(-4.98 -1.31)" />
    <path class="h"
        d="M336.19,400.91l.21.88Zm-24.44,34.73-1.35-.53h-.83l-.62-1.05-4.78-5.44-.42-.53-1.14-1.93-1-3.51.62-1.23.21-.53L303,419l.62-.35.83-4.21.31-.35,1.35,1.05h.42l.42.18,1.87,2.28,1.46.35,4.58,1.23,2.83-.06.91-1.69.1-.88,3.12-7.37.42-2.46v-2.1l-3.43-5.79L316,396h-.83l-.94-.88-1.87-1.4-2-2.1-.73-.7-1.46-2.1-.62-.53-1.66-3.33-.42-1.23-.73-1.23-.42-2.63v-1.4l.31-.35.31-.7s0-3.64.26-5.16a27.82,27.82,0,0,1,1.19-4v-1.93l.83-6.14L309,356.7h.52l2.29-3.86,2.39-3,6.86-6.14,2.49-1.4,1.87-.7H327l.1,1.05,1.66.7,5.3,10.35-.21,3.51-1.77,3.68-.73.88-3,4.91-2.18,1.05-2.08,2.11-2.29,3.51-.42,1.23-1.46,2.46v.88l3.53,2.63,4.58,5.26,2.39,3.86,2.5,5.09.42.35.1.53,1.46,2.46.94,2.28.94,2.46.1,1.66a19.85,19.85,0,0,1,1,5.54l-.9,8.41-.21,1.4-.31,1.05-2.7,3.51-.42.35-2.81,3.86-.21-.17-2.7,2.28-1.25.7-.42.7-.94.18-1.91,1.85-3.81,1.49h-1.45l-.62.17h-1.46l-1.25-.17-.73.17h-.73l-.31-.17h-1Z"
        transform="translate(-4.98 -1.31)" />
    <path class="h"
        d="M345.34,332.14h-1l-.86.25-.7-.42h-.42l-.52.7-1.46-.88-.93-1.93.52-.35.1-.7.1-.88h.73l-.1-2.81-.31-2.63.21-1.4,1.87-5.44.52-.53.21-.88.83-.88.73-.17.42-.88.52-.18,1.35.7.83.35-.1.53.83.35.62,1.23-.21.88.21.7.62-.18,1,1.58,1,.88,1,2.28.21.7.31,2.63-.21,1.75v1.4l-1.87,3-.62.7-.52.35h-1l-.62.53-.73.35h-2.5Zm9.15,50.7-2.08,44.91-1.87,5.09-1.25,1.1-2,.48-1.77.35-2.29-.7-.94-3-.62-8.77v-4l-.62-7.89-.21-11.58-.21-.7V363l.31-7.54.62-3.86.52-.88h2.18l1,.35,3.95,1.93,2.39,2.28,1.56,2.28,1.46,4v3l.42,2.63-.21,3v6.49Z"
        transform="translate(-4.98 -1.31)" />
    <polygon class="h"
        points="413.36 357.85 414.19 357.67 414.5 358.55 414.92 358.72 414.92 360.65 415.33 361.35 415.75 361.53 416.27 362.58 416.58 363.28 417.11 412.31 416.38 426.07 415.32 428.13 414.29 431.07 412.11 432.75 411.59 432.75 410.75 432.59 409.92 432.93 409.51 433.28 407.32 432.75 406.6 433.28 405.97 432.75 405.35 433.1 404.21 432.05 403.27 431.7 402.65 430.82 402.54 429.59 402.12 428.02 401.92 426.08 401.92 420.47 401.71 419.77 402.54 405.56 402.75 398.54 402.54 396.61 402.54 391.88 402.33 391.35 402.33 388.72 401.92 386.79 401.92 384.16 401.71 383.63 401.19 378.37 399.94 372.93 399.11 372.93 398.38 374.69 397.65 374.69 397.03 375.56 396.51 376.09 396.41 377.32 395.26 379.42 395.05 382.23 393.7 405.56 393.7 407.32 393.29 412.58 393.7 412.93 393.39 417.49 393.29 418.89 393.29 420.12 393.49 421.17 393.7 424.86 393.18 429.24 391.83 432.4 390.79 432.75 390.27 433.28 389.44 433.28 388.92 433.98 386.32 436.08 385.59 436.08 384.78 436.44 383.22 436.61 382.68 435.21 382.16 435.56 381.12 435.21 380.29 433.28 379.56 431.7 379.56 431 379.04 430.12 379.04 428.89 378.83 428.37 378.31 426.08 377.9 422.75 377.9 421.52 377.38 419.77 376.34 390.12 376.65 387.84 376.65 374.51 375.71 374.51 374.32 377.73 373.63 391.35 373.74 392.93 373.74 398.9 373.32 399.42 373.11 401.7 372.8 409.42 372.8 413.98 372.59 416.26 372.8 417.49 372.59 419.24 371.35 428.72 369.57 430.38 367.81 432.4 366.61 432.65 365.21 433.28 363.76 433.63 361.68 433.63 360.01 432.75 359.91 431.87 359.08 430.82 358.87 429.59 358.56 428.72 357.31 426.08 357 422.4 356.37 405.74 356.58 399.42 356.37 390.12 356.37 378.9 357 365.56 357 351.53 356.79 350.13 357 346.62 357.21 346.09 357.21 345.39 358.04 341.88 359.08 341.88 360.43 341.36 363.96 342.06 364.9 342.76 366.67 345.04 370.1 351.88 374.99 347.67 378.31 346.62 380.6 346.62 383.62 348.9 386.32 351.53 386.53 352.58 389.23 354.34 390.9 357.14 391.52 357.14 395.05 353.11 402.12 348.37 404.93 349.43 405.56 350.65 405.87 350.13 406.6 351.18 407.12 351.18 407.32 351.88 407.53 352.23 408.68 352.58 409.3 352.93 409.72 354.16 410.55 354.16 412.16 355.49 412.94 357.67 413.36 357.85" />
    <path class="h"
        d="M329.41,474.61v0Zm-12.82,7.77.33-.14L317,482h.46l1.86-1.32,2-2.46.33-.42,1.63-2.81.58-1.34.41-3.49.21-1.76-.29-3-.63-3.66-.58-2.32-.54-1.27-1.88-2-2.42-1.13-1.32-.27-.25.35v5l-.17,1.69v2.6l-.17,1.05.32,8.37-.08.49v.7l-.17.21v1.83l0,.42,0,1v2.25Zm6.79,6.32-3.86,2.6-2.16,1.14-1.92.74-2.54.5h-.54l-.21.14-.21.07-.5.28-.5-.14-.29-.77-.42-.42-.17-1.13-.33-5.28V473.7l-.21-5v-4.43l.21-4.43v-9.78l-.63-1V445.7l.33-.28.17-.7.75-1,.92.28.62-.21.46.35,3.8.42.5.14h1l.29.28h.33l.13.14.29.14h.63l.17.21,1.46.91,1.46,1.2,1.08.63.63,1.06.63.77h.17l2,4.29,1.54,6.26.75,5,.33,4.15v.91l-.08.35.08.42,0,1.06-.17.84.21,1.41-.62,4v.42l-.66,2.71-.72,1.44-.54.7-.46.35-.38.49-.5,1.06Z"
        transform="translate(-4.98 -1.31)" />
    <path class="h"
        d="M347.26,486.37l-.9,2.73-1,3.74-1,.73a8.2,8.2,0,0,1-2.11,1.17l-.46-.14-.38.07-.75-.07-.13.07-.67.49-.79.07-.58-.07-.17.14-.12-.21-.67.14-1.17-.5-1-.9-.29-.49-1-2.18-.83-1.27-1.08-2.46-.88-6.05v-2.67l.08-.49v-.84l.17-3.38.21-.56.38-2.32.25-.56,1-3.1.92-2.46,1.17-2.25.29-.21,1.83-2.67,2.83-2.55.84,0,.25.14,1.79.07,1.21.91.12.14.21.07,1,.84.25.35.46.14.25.42.29.72.3,1,.46,1.2.29.7,0,.21.13.14.32,8.69v3.78l-.39,2.87-5.32,2.39.88-4.34.29-6.35-.08-.28-.29-4-.7-3.19-.51,1.08-1.71,2.67L339,471l-1,3.17-.12.63v.28l-.13.35-.33,2.11v6l.12.42.21.49.5,1.48.17.21.33.56.12.14h.71l1.25-.14,1.25-1.27.21-.63.12-.91.21-.91.21-.84,5.32-2.39.08.21-.08.63.08.56v-.28l-.24,1.7Z"
        transform="translate(-4.98 -1.31)" />
    <path class="h"
        d="M353.69,454.14h-.33l-.17-.21h-.42l-.92-.63-.21-.14-.17-.14-.25-2.39v-.49l-.4-.38,0-2.11-.13-.28L351,447l.17-.14.25-1.13.29-.07.75-.21.38.07.33-.07.12.07V446l.17-.07.38.07,0-.28.17-.14.29.42.92,1.9.29.35.38.35.21.63,0,.21.08.35-.08.35v.49l.21.14.08.07-.38,1.62-.17.14-.08.35.08.35-.08.21-.5.42-.57.24-.72.11Zm-4.3,50.94-.21-.07-.37.21-.21.14h-.33l-.46-.14-1.25-.63-.71-.7-.42-.77.08-.35-.13-.42,0-.77-.08-.49.17-.28v-.28l.12-.14V500h.17l.13-.28,0-.35v-.28h.17l.08.21.13-.14,0-.56.12-.21.25-.21,0-.28.42.35v.49l.29.14h-.21l1.92-.21h.17l.91-.07.35-.42.75-1.27-.17-.28.33-.84v-.56l.08-.21.08-.56h-.17l.08-.35v-1.69l.5-4.72v-3.31l-.13-.84v-9.85l-.75-10.2-.25-.77.38-2.67.38-.84.38-.42h.42l3.21,1.48,1.08,1.27.33.84.33,1.2.46,3.45.54,6.47-.08.42v1.2l-.08,1.55-.17.63v1.34L358,480v1.48l-.12.77,0,.28v1.05l-.42,2,0,1.48-.53,5.26V493l-.12.35.08.49-.12.49-.08.21L355.69,499l-.13.56-.08.84-.08.42-.08.21-.17.35-.29.14-.72.65-.42.7-.08.21-.25.28-.17.49-.21.07-.75.34-.08.21-.12.14-.21.14h-.42l-.17.35-.21-.07-.21-.14h-.17l-.92-.14Z"
        transform="translate(-4.98 -1.31)" />
    <path class="h"
        d="M368.74,486.27l1.08-.49.21.21.71-.35,1-1.13L372,484l.5-.28.17-.28-.21-1.55-.17-.77.08-.49.08-.7-.09-6.58-.08-.21-.21-5.52-3.35,3.53-.54.63-.54,1.13-.83,2.11-.5,2.39v2.95l.63,3.1,1.52,2.59Zm6.09,8-.38.91-.54-.14-.25-.63-.17-.84-.17-.14-.13-.49-.12.28v.35l-.09.25-.25-.14h-1.29L371,494l-.21.07h-.29l-.38.14h-.21l-1.08.21-.38.21-.21.14h-.38l-.46.14-.21-.28h-.42l-.17.14h-.29l-1-.56-.13-.21-.29-.28-.92-.56-.21-.42-.42-.35.08-.35-.46-.56-.5-.91-.67-1.55-.25-.35-.33-1.27-.37-1.76-.25-.7-.25-1.69-.31-2.15v-.66l.5-3.87.13-1.62.46-1.83.13-.28.87-3.1.17-1.2,1.58-3.59.83-1.34,2-2.46,1.08-.91,2.46-1.34.21-.28.33-.21-.17-.42.38-.35,1.54-.07.25.35H373l.21.21.38-.14.5.7,1.5.49.17.63h.33l.21.07.5.56.29.7.17.49.13,1,0,1.2v.63l.08.63h.17v1.27l.08.21-.33,1.34.17,4.15-.27,6.4.18,4.15-.08,1.13.08.63,0,1.2-.29,6-.54.63-.42.21L376,493l-.17-.07h-.21l-.29.35-.46.63Z"
        transform="translate(-4.98 -1.31)" />
    <path class="h"
        d="M399.23,465l-1.42,26-.67,2h-.42l-.25-.56-.25-.07-.54,1-1.5,1.27-.29.14h-.29l-.13.07-.08-.21h-.33l-.25-.28v-.49l-.17-.49-.25-.28v-.49l-.08-.21.08-.84-.08-.21-.42-9.64.25-8.16.13-.35-.13-1.12.13-2v-4.36h-.21l-.38.56-2.42,2.67-1,.77a9.49,9.49,0,0,0-1.75,5.18c-.22,3.26-.09,14.24-.09,14.24l-.17.7v1.27s-.6.87-.75,1a1.36,1.36,0,0,1-.5.29l-.17.49-.37.56-.21.14-.21-.14-.29.21h-.21l-.17.35H383l-.21-.14h-.29l-.75-.49,0-2.25h-.21l-.17-1.13v-1.69l-.17-1.62-.21-1.27v-2.67l-.12-.28.08-.21-.17-.7v-.91l0-.77.12-.14v-.7l0-.56-.17-1.48.17-.77-.12-.21v-1.69l.12-.42,0-2.81,0-.91,0-2.11-.08-.42-.08-.91v-7.32l-.17-.84-.17-.21V458l.13-.28-.13-.35.33-.21-.17-.28.33-1.55.29-.42.54-.21.33-.21.21.35L384.3,456l1.58,1.27.5.7.33.77L387,460l.79-.77.63-.49.38-.56,1.92-.35,1.63.14.5-.28h1l.67.35.29.42h.25l.38.21.29.49.33.07v.28l.54.49.42,1,1,.91.12.28.08.49.46,1.2.08.14.21.63Z"
        transform="translate(-4.98 -1.31)" />
    <path class="h"
        d="M410.57,503.82l5,2.55.15.68c-.33.59-1.05,1.84-1.05,1.84s-2.77,1-4.13,1.38l-4.24.44a9.34,9.34,0,0,1-1.18-.35c-.32-.31-1.36-1.54-1.36-1.54l-.08-.71.37-.28.43-.24,1.14-4.15.63-.86.67.93.63.21.12.21Zm-.88-25.21h.71l1.33-.84.5-.92,2.43-5.12.23-2.68.13-1-.13-.91H413.6l-1.69-.48-1.21.63-1,2-1.79,2.25-1,2.7-.38,1.34-.08,1.13v1.13l.67.77,1.74-.46.46.14Zm-6.16,29.21-.75-.45-.84-1.31-.08-.21-.25-1.12-.12-1,0-2.45.29-1.7-.42-.91v-.56l1.21-2.53.25-.21,1.63-2.18-1.71-4.43v-1l.5-1.69.79-1.48.5-.56-.08-.56h-.17l-.63-1-.42-1-.33-1.76v-.28l-.17-.14-.08-.91-.29-1.41-.37-2.25v-1.13l.21-.42.42-4,.66-2.22.58-1.62,1-1.83,1.63-2,1.5-1,3.34-1.69,1.13-.14h2.13l1.08.63,1.83-2.88,1.58-1.62.88-.28.08-.21h.67l.12-.14.42.35.63,1.27.17.7.12.84-.17.56,0,.21v.7l-.08.49-.17.56v.28l.13.14-.38.63,0,.28L421,462l-1.33,1.41-1.29.7v.28l.5,1.76.12,1h.17v.7l.12.56v.35l.21.49.25,1-.25,1.69-.08.28-.16,1.82-.38,1.56-.79,1.62-.13.14.13,1.27L418,479l-.21.49.12.35-.21.42-.08.49-.38.42-.33.7-.13.07-.67.7-.33.21-.29.28-.37.77-.54.77-.25.42H414l-.08.21-.33.21-.12.21-.38.49-.54.21-.21.07-.42.21h-.79L411,487h-.33l-.63.14-.12.07-.38.14-.38-.35h-.29l-.13.14-.46-.14-.44-.41-.27-.29-.83.14-.75.35,2,1.62,3.25.91,3.09-.14.25-.07.58-.14h.42l2.29,1.62,2.63,4.22.17.56v.49l.21.21.21.84.55,1.75.13.49-1.3,4.1-1.58,1.26-.5.14-1.08,1.2L415.79,507l-.15-.68-5-2.55-.58.49-.58.07,0,.49,0-.56-.5.07,0-.63,4.84-2.43,3-2.23.33-.84-.17-.49.29-.21-.25-.14-.58-.14-.38-.21-1-.28-.37.07h-1.75l-1.76-.18-.17-.14-1.42-.14-.67-.35h-.5l-.21-.14-.39.17-.29-.14h-.42l-1.75,2.32-.14,1.42v.7l.22.73v.56l1.06.91.18,3.14.17.49-2.92,1.9Z"
        transform="translate(-4.98 -1.31)" />
</svg>
