<svg xmlns="http://www.w3.org/2000/svg" viewBox="0 0 179.13 85.04">
    <defs>
        <style>
            .a {
                fill: #438e96;
            }

            .b {
                fill: #87888a;
            }
        </style>
    </defs>
    <path class="a"
        d="M276.83,354.64v-5.93h-6.37l-5.2,6.76a11.87,11.87,0,0,1-5.55-3l-2.64,1a14.55,14.55,0,0,0,7.19,3.33l-10,13h-.15l-16.37-20.83,18.53-23.53v22.86h5.43V342c2.88,1.15,6.81,1.89,10.82,2.8,5.91,1.27,7.66,3.52,7.66,5.69,0,1.67-1.2,3.14-3.32,4.16m2.1,1.48c3.87-1.24,6.74-3.41,7.13-6.46,0-4.3-5-6-10-7-7.19-1.44-12.3-2.62-13.1-5.73a2.77,2.77,0,0,1-.16-1c.16-3.35,4.88-5.44,9.19-5.44s7.18.57,10,3.19l2.39-.78c-3.11-2.78-7.34-3.52-12.37-3.52a24.14,24.14,0,0,0-10.34,2v-8.85H255.3l-16.23,21.07h-.15l-16.55-21.07h-6.21v25.81h3V325.73l18.19,23h-5.6v25.8h2.57V352l18.41,23.25h.07l18.57-23.57v22.85h5.43V357.36h9.61v24.06H292V357.36h11.58v-1.24Zm-4.29-28.4,8.83-5.26h-2.79l-8.11,3.66-8.26-3.66h-2.64l8.9,5.26Z"
        transform="translate(-169.56 -322.46)" />
    <polygon class="b"
        points="0 65.44 1.3 65.44 4.74 72.84 8.23 65.44 9.42 65.44 9.42 73.59 8.62 73.59 8.65 66.14 5.2 73.59 4.26 73.59 0.72 66.14 0.8 73.59 0 73.59 0 65.44" />
    <rect class="b" x="12.54" y="65.44" width="0.81" height="8.15" />
    <polygon class="b"
        points="16.45 65.44 17.49 65.44 23.19 72.75 23.19 65.44 23.98 65.44 23.98 73.59 22.89 73.59 17.24 66.28 17.24 73.59 16.45 73.59 16.45 65.44" />
    <rect class="b" x="27.09" y="65.44" width="0.81" height="8.15" />
    <path class="b"
        d="M201.09,393.37v0c0,1.24,1,2.06,2.58,2.06s2.53-.68,2.53-1.67-.66-1.16-2-1.41l-1.74-.31c-1.3-.22-1.93-.9-1.93-2,0-1.4,1.15-2.35,3.1-2.35s3.16.94,3.21,2.5H206c-.11-1.14-.92-1.76-2.37-1.76s-2.29.63-2.29,1.57.66,1.15,2,1.38l1.54.28c1.48.26,2.15.89,2.15,2.1,0,1.55-1.21,2.5-3.31,2.5s-3.49-1.08-3.49-2.78v-.12Z"
        transform="translate(-169.56 -322.46)" />
    <polygon class="b"
        points="42.46 66.19 39.31 66.19 39.31 65.44 46.42 65.44 46.42 66.19 43.27 66.19 43.27 73.59 42.46 73.59 42.46 66.19" />
    <polygon class="b"
        points="48.53 65.44 54.8 65.44 54.8 66.2 49.35 66.2 49.35 69.06 54.38 69.06 54.38 69.82 49.35 69.82 49.35 72.82 54.8 72.82 54.8 73.59 48.53 73.59 48.53 65.44" />
    <path class="b"
        d="M227.79,388.66v3.13h3c1.5,0,2.19-.42,2.19-1.57s-.73-1.56-2.29-1.56Zm-.82-.75h3.91c1.94,0,2.92.73,2.92,2.19a1.89,1.89,0,0,1-1.41,2c.93.15,1.14.58,1.25,1.55a6.2,6.2,0,0,0,.4,2.38h-.95a12.21,12.21,0,0,1-.28-2.38c-.1-.84-.58-1.12-1.59-1.12h-3.43v3.5H227Z"
        transform="translate(-169.56 -322.46)" />
    <path class="b"
        d="M237.16,393.37v0c0,1.24,1,2.06,2.59,2.06s2.52-.68,2.52-1.67-.65-1.16-2-1.41l-1.73-.31c-1.3-.22-1.93-.9-1.93-2,0-1.4,1.15-2.35,3.1-2.35s3.16.94,3.2,2.5h-.81c-.1-1.14-.91-1.76-2.37-1.76s-2.29.63-2.29,1.57.67,1.15,2,1.38l1.55.28c1.48.26,2.14.89,2.14,2.1,0,1.55-1.2,2.5-3.3,2.5s-3.49-1.08-3.49-2.78v-.12Z"
        transform="translate(-169.56 -322.46)" />
    <polygon class="b"
        points="78.54 66.19 75.39 66.19 75.39 65.44 82.5 65.44 82.5 66.19 79.35 66.19 79.35 73.59 78.54 73.59 78.54 66.19" />
    <polygon class="b"
        points="83.71 65.44 84.6 65.44 87.87 72.89 91.14 65.44 92.03 65.44 88.38 73.59 87.35 73.59 83.71 65.44" />
    <path class="b"
        d="M270.86,392a3.46,3.46,0,1,0-3.45,3.5,3.2,3.2,0,0,0,3.45-3.5m-3.45,4.29a4.29,4.29,0,1,1,4.28-4.29,4,4,0,0,1-4.28,4.29"
        transform="translate(-169.56 -322.46)" />
    <path class="b"
        d="M283.34,385.41h.87l-1.57,1.67h-.93l-1.57-1.67H281l1.17,1.21Zm-3.69,8v0c0,1.24,1,2.06,2.58,2.06s2.53-.68,2.53-1.67-.66-1.16-2-1.41l-1.74-.31c-1.3-.22-1.93-.9-1.93-2,0-1.4,1.15-2.35,3.11-2.35s3.15.94,3.2,2.5h-.81c-.11-1.14-.92-1.76-2.37-1.76s-2.29.63-2.29,1.57.66,1.15,2,1.38l1.54.28c1.48.26,2.15.89,2.15,2.1,0,1.55-1.21,2.5-3.31,2.5s-3.48-1.08-3.48-2.78v-.12Z"
        transform="translate(-169.56 -322.46)" />
    <polygon class="b"
        points="118.81 65.44 119.62 65.44 119.62 69.9 124.67 65.44 125.8 65.44 121.96 68.85 125.8 73.59 124.76 73.59 121.35 69.38 119.62 70.89 119.62 73.59 118.81 73.59 118.81 65.44" />
    <path class="b"
        d="M304.46,392a3.45,3.45,0,1,0-3.45,3.5,3.2,3.2,0,0,0,3.45-3.5M301,396.27A4.29,4.29,0,1,1,305.3,392a4,4,0,0,1-4.29,4.29"
        transform="translate(-169.56 -322.46)" />
    <polygon class="b"
        points="138.39 65.44 139.2 65.44 139.2 72.82 144.33 72.82 144.33 73.59 138.39 73.59 138.39 65.44" />
    <path class="b"
        d="M316.81,393.37v0c0,1.24,1,2.06,2.58,2.06s2.53-.68,2.53-1.67-.65-1.16-2-1.41l-1.74-.31c-1.3-.22-1.93-.9-1.93-2,0-1.4,1.15-2.35,3.1-2.35s3.16.94,3.21,2.5h-.81c-.11-1.14-.92-1.76-2.37-1.76s-2.29.63-2.29,1.57.66,1.15,2,1.38l1.54.28c1.48.26,2.15.89,2.15,2.1,0,1.55-1.21,2.5-3.31,2.5s-3.49-1.08-3.49-2.78v-.12Z"
        transform="translate(-169.56 -322.46)" />
    <polygon class="b"
        points="158.18 66.19 155.03 66.19 155.03 65.44 162.14 65.44 162.14 66.19 159 66.19 159 73.59 158.18 73.59 158.18 66.19" />
    <polygon class="b"
        points="163.35 65.44 164.24 65.44 167.51 72.89 170.79 65.44 171.68 65.44 168.02 73.59 167 73.59 163.35 65.44" />
    <path class="b" d="M344.5,385.41h1l-1.34,1.68h-.66Zm-1.06,2.5h.81v8.14h-.81Z"
        transform="translate(-169.56 -322.46)" />
    <path class="b" d="M347.77,395.06h.91v1.32c0,.79-.2,1.2-.91,1.44v-.52a.74.74,0,0,0,.41-.76v-.49h-.41Z"
        transform="translate(-169.56 -322.46)" />
    <polygon class="b"
        points="13.79 78.1 14.87 78.1 17.72 84.23 20.62 78.1 21.61 78.1 21.61 84.86 20.94 84.86 20.97 78.68 18.11 84.86 17.33 84.86 14.39 78.68 14.45 84.86 13.79 84.86 13.79 78.1" />
    <polygon class="b" points="23.96 78.1 24.64 78.1 24.64 84.22 28.89 84.22 28.89 84.86 23.96 84.86 23.96 78.1" />
    <path class="b"
        d="M203.55,398.49h.86l-1.11,1.39h-.55Zm1,6.09L203,401.13l-1.56,3.45Zm-1.93-4h.78l3.08,6.77h-.68l-1-2.09h-3.7l-1,2.09h-.7Z"
        transform="translate(-169.56 -322.46)" />
    <path class="b"
        d="M208.82,401.17v5.51h1.79a4,4,0,0,0,2.22-.43,3.36,3.36,0,0,0,0-4.66,4.33,4.33,0,0,0-2.37-.42Zm4.56,0a4.08,4.08,0,0,1,0,5.55,4.33,4.33,0,0,1-2.77.61h-2.47v-6.77h2.47a4.33,4.33,0,0,1,2.77.61"
        transform="translate(-169.56 -322.46)" />
    <polygon class="b"
        points="46.92 78.1 52.12 78.1 52.12 78.72 47.59 78.72 47.59 81.1 51.77 81.1 51.77 81.73 47.59 81.73 47.59 84.22 52.12 84.22 52.12 84.86 46.92 84.86 46.92 78.1" />
    <path class="b"
        d="M227.47,398.49h.72l-1.3,1.39h-.77l-1.3-1.39h.72l1,1Zm-4.3,8.17,5-5.47h-4.73v-.63h5.67v.63L224,406.66h5.07v.67h-5.91Z"
        transform="translate(-169.56 -322.46)" />
    <polygon class="b"
        points="61.37 78.1 66.57 78.1 66.57 78.72 62.05 78.72 62.05 81.1 66.23 81.1 66.23 81.73 62.05 81.73 62.05 84.22 66.57 84.22 66.57 84.86 61.37 84.86 61.37 78.1" />
    <path class="b" d="M246.23,404.58l-1.55-3.45-1.55,3.45Zm-1.93-4h.78l3.08,6.77h-.68l-.95-2.09h-3.7l-1,2.09h-.69Z"
        transform="translate(-169.56 -322.46)" />
    <polygon class="b"
        points="85.85 78.72 83.24 78.72 83.24 78.1 89.14 78.1 89.14 78.72 86.52 78.72 86.52 84.86 85.85 84.86 85.85 78.72" />
    <path class="b"
        d="M263.88,398.49h.72l-1.3,1.39h-.77l-1.3-1.39H262l1,1Zm-3.62,2.07h5.2v.63h-4.52v2.37h4.17v.64h-4.17v2.49h4.52v.64h-5.2Z"
        transform="translate(-169.56 -322.46)" />
    <polygon class="b" points="97.89 78.1 98.56 78.1 98.56 84.22 102.81 84.22 102.81 84.86 97.89 84.86 97.89 78.1" />
    <path class="b"
        d="M279.58,404a2.87,2.87,0,1,0-2.87,2.9,2.66,2.66,0,0,0,2.87-2.9m-2.87,3.55a3.56,3.56,0,1,1,3.56-3.55,3.27,3.27,0,0,1-3.56,3.55"
        transform="translate(-169.56 -322.46)" />
    <polygon class="b"
        points="111.8 78.1 112.54 78.1 115.25 84.28 117.97 78.1 118.71 78.1 115.67 84.86 114.82 84.86 111.8 78.1" />
    <path class="b"
        d="M293.07,398.49h.86l-1.11,1.39h-.55Zm-1,5.91-2.91-3.84H290l2.39,3.3,2.41-3.3h.84l-2.91,3.84v2.93h-.68Z"
        transform="translate(-169.56 -322.46)" />
    <path class="b"
        d="M300.56,401a2.66,2.66,0,0,0-2.86,2.9,2.64,2.64,0,0,0,2.73,2.9,2.59,2.59,0,0,0,2.67-2h.72a3.24,3.24,0,0,1-3.37,2.71,3.56,3.56,0,0,1,.12-7.11,2.84,2.84,0,0,1,3.14,2.38H303a2.28,2.28,0,0,0-2.46-1.73"
        transform="translate(-169.56 -322.46)" />
    <polygon class="b"
        points="136.12 78.1 136.8 78.1 136.8 80.92 141.2 80.92 141.2 78.1 141.87 78.1 141.87 84.86 141.2 84.86 141.2 81.56 136.8 81.56 136.8 84.86 136.12 84.86 136.12 78.1" />
    <path class="b"
        d="M319.87,404a2.87,2.87,0,1,0-2.86,2.9,2.65,2.65,0,0,0,2.86-2.9M317,407.5a3.56,3.56,0,1,1,3.56-3.55A3.27,3.27,0,0,1,317,407.5"
        transform="translate(-169.56 -322.46)" />
    <polygon class="b"
        points="152.09 78.1 152.83 78.1 155.55 84.28 158.27 78.1 159.01 78.1 155.97 84.86 155.12 84.86 152.09 78.1" />
    <polygon class="b"
        points="162.83 81.94 159.91 78.1 160.78 78.1 163.16 81.39 165.58 78.1 166.42 78.1 163.5 81.94 163.5 84.86 162.83 84.86 162.83 81.94" />
</svg>
