<?xml version="1.0" encoding="utf-8"?>
<!-- Generator: Adobe Illustrator 16.0.3, SVG Export Plug-In . SVG Version: 6.00 Build 0)  -->
<!DOCTYPE svg PUBLIC "-//W3C//DTD SVG 1.1//EN" "http://www.w3.org/Graphics/SVG/1.1/DTD/svg11.dtd">
<svg version="1.1" id="Vrstva_1" xmlns="http://www.w3.org/2000/svg" xmlns:xlink="http://www.w3.org/1999/xlink" x="0px" y="0px"
	 width="136.57px" height="52.389px" viewBox="0 0 136.57 52.389" enable-background="new 0 0 136.57 52.389" xml:space="preserve">
<path fill="#FFFFFF" d="M0,0.383h41.41c0,10.024,0,21.41,0,30.072c0,9.025-8.075,19.928-20.718,19.928
	C8.049,50.383,0,39.481,0,30.455V0.383z"/>
<path fill="#FFFFFF" d="M0.951,1.311h39.508c0,9.563,0,20.828,0,29.092c0,8.611-7.705,19.025-19.767,19.025
	c-12.063,0-19.741-10.409-19.741-19.021V1.311z"/>
<polygon fill="#AB845E" points="18.992,34.157 22.361,34.157 21.791,26.853 19.462,26.857 "/>
<polygon fill="#AB845E" points="30.457,36.922 33.826,36.922 33.255,29.617 30.927,29.622 "/>
<polygon fill="#AB845E" points="7.271,36.92 10.64,36.92 10.07,29.615 7.741,29.621 "/>
<path fill="#007744" d="M2.588,37.688c3.979-1.594,12.739-3.594,18.084-3.594s15.994,2.435,18.101,3.594
	c-3.135,6.723-9.785,11.74-18.101,11.74C12.357,49.428,5.52,44.41,2.588,37.688L2.588,37.688z"/>
<path fill="#007744" d="M20.62,6.033c0.048,0,0.098,0.289,0.114,0.349c0.056,0.205,0.105,0.447,0.226,0.895
	c1.737,6.442,4.661,9.425,5.843,10.768c-0.053,0.127-0.141,0.226-0.216,0.295c-0.983,0.138-2.353-0.32-3.646-1.035
	c0.902,2.561,3.157,5.093,4.29,6.071c-0.028,0.122-0.062,0.198-0.109,0.282c-1.256-0.197-3.092-0.895-4.064-1.671
	c0.685,2.241,2.311,4.112,4.69,6.199c-0.09,0.134-0.14,0.203-0.276,0.296c-1.235-0.043-2.041-0.291-2.984-0.586
	c-0.943-0.296-1.732-0.727-2.313-0.813c-0.579-0.085-1.257-0.086-1.597-0.086c-0.339,0.001,0,0.001,0,0.001v-0.001
	c-0.383-0.002-0.955,0.001-1.507,0.086c-0.553,0.087-1.369,0.518-2.313,0.813c-0.943,0.295-1.749,0.543-2.982,0.586
	c-0.138-0.093-0.189-0.162-0.278-0.296c2.415-2.088,4.011-3.958,4.691-6.199c-0.975,0.776-2.81,1.474-4.065,1.671
	c-0.049-0.083-0.081-0.16-0.109-0.282c1.133-0.979,3.386-3.511,4.29-6.071c-1.295,0.715-2.663,1.173-3.646,1.035
	c-0.076-0.07-0.164-0.168-0.216-0.295c1.181-1.343,4.096-4.325,5.832-10.768c0.121-0.447,0.171-0.689,0.224-0.895
	C20.515,6.306,20.572,6.033,20.62,6.033"/>
<path fill="#007744" d="M32.11,11.554l0.018,0.048l0.02-0.048c0.006,0.013,0.013,0.063,0.02,0.15
	c0.091,0.247,0.209,0.559,0.383,1.053c0.565,1.604,1.21,3.385,2.19,4.882c1.064,1.623,2.386,2.944,3.204,3.657
	c-0.045,0.109-0.097,0.181-0.161,0.241c-1.024,0.137-2.281-0.387-3.393-0.964c0.772,2.192,2.363,4.641,3.567,5.677
	c-0.006,0.115-0.035,0.24-0.054,0.336c-1.1-0.164-2.429-0.613-3.263-1.185c0.259,0.683,0.821,1.897,1.703,2.975
	c0.716,0.876,1.887,1.741,2.474,2.145c-0.012,0.098-0.052,0.228-0.117,0.319c-1.379,0.064-2.401-0.259-3.205-0.535
	c-0.804-0.278-1.228-0.424-1.753-0.487s-1.289-0.026-1.614-0.026h-0.001c-0.325,0-1.09-0.037-1.614,0.026
	c-0.525,0.063-0.948,0.209-1.752,0.487c-0.805,0.276-1.827,0.601-3.205,0.535c-0.066-0.093-0.105-0.223-0.117-0.319
	c0.586-0.402,1.757-1.269,2.474-2.145c0.881-1.075,1.444-2.292,1.702-2.975c-0.833,0.57-2.162,1.021-3.262,1.185
	c-0.02-0.096-0.049-0.221-0.056-0.336c1.205-1.036,2.797-3.483,3.569-5.677c-1.111,0.577-2.369,1.101-3.393,0.964
	c-0.065-0.061-0.117-0.132-0.162-0.241c0.817-0.712,2.141-2.034,3.204-3.657c0.98-1.497,1.626-3.277,2.19-4.882
	c0.174-0.494,0.291-0.807,0.382-1.053C32.096,11.618,32.103,11.567,32.11,11.554"/>
<g id="XMLID_1_">
	<g>
		<path fill="#007744" d="M13.167,28.376c0.721,0.881,1.891,1.74,2.48,2.142c-0.01,0.1-0.05,0.229-0.12,0.319
			c-1.38,0.069-2.4-0.25-3.2-0.529c-0.81-0.28-1.229-0.42-1.76-0.49c-0.521-0.061-1.29-0.03-1.61-0.03
			c-0.17,0-0.439-0.01-0.729-0.01c-0.3,0-0.62,0.01-0.891,0.04c-0.52,0.07-0.949,0.21-1.75,0.49c-0.8,0.279-1.83,0.6-3.199,0.529
			c-0.07-0.091-0.11-0.221-0.12-0.319c0.58-0.4,1.76-1.261,2.47-2.142c0.88-1.079,1.45-2.289,1.71-2.97
			c-0.84,0.57-2.17,1.021-3.27,1.181c-0.021-0.101-0.051-0.221-0.051-0.341c1.2-1.029,2.79-3.479,3.57-5.669
			c-1.11,0.57-2.37,1.101-3.4,0.96c-0.06-0.06-0.109-0.13-0.159-0.24c0.819-0.71,2.14-2.029,3.21-3.659
			c0.979-1.49,1.619-3.271,2.189-4.881c0.17-0.489,0.29-0.8,0.38-1.05c0.011-0.09,0.011-0.14,0.021-0.149l0.02,0.05l0.021-0.05
			c0,0.01,0.01,0.06,0.02,0.149c0.09,0.25,0.21,0.561,0.38,1.05c0.561,1.61,1.21,3.391,2.19,4.881c1.06,1.63,2.39,2.949,3.2,3.659
			c-0.04,0.11-0.09,0.181-0.16,0.24c-1.021,0.141-2.28-0.39-3.391-0.96c0.771,2.19,2.36,4.64,3.57,5.669
			c-0.01,0.12-0.04,0.24-0.06,0.341c-1.101-0.159-2.42-0.609-3.261-1.181C11.727,26.087,12.287,27.297,13.167,28.376z"/>
	</g>
</g>
<g enable-background="new    ">
	<path fill="#333" d="M58.734,9.064c0,2.73-0.688,4.825-2.065,6.284s-3.366,2.188-5.968,2.188h-1.195v9.316h-4.781V1.154h6.521
		C56.238,1.154,58.734,3.791,58.734,9.064z M49.506,13.388h0.914c1.172,0,2.045-0.322,2.619-0.967S53.9,10.722,53.9,9.258
		c0-1.348-0.264-2.347-0.791-2.997s-1.342-0.976-2.443-0.976h-1.16V13.388z"/>
	<path fill="#333" d="M66.75,16.851v10.002h-4.781V1.154h6.258c2.648,0,4.603,0.627,5.862,1.881s1.89,3.17,1.89,5.748
		c0,3.246-1.096,5.514-3.287,6.803l4.939,11.268h-5.115l-4.061-10.002H66.75z M66.75,12.738h1.23c1.125,0,1.934-0.319,2.426-0.958
		s0.738-1.591,0.738-2.856c0-1.313-0.261-2.247-0.782-2.804s-1.327-0.835-2.417-0.835H66.75V12.738z"/>
	<path fill="#333" d="M92.133,26.853l-1.477-6.486h-6.697l-1.477,6.486h-4.781l6.363-25.805h6.486l6.381,25.805H92.133z
		 M89.76,16.131l-1.371-5.977c-0.082-0.363-0.267-1.274-0.554-2.733s-0.46-2.435-0.519-2.927c-0.152,1.008-0.346,2.118-0.58,3.331
		s-0.844,3.981-1.828,8.306H89.76z"/>
	<path fill="#333" d="M115.072,26.853h-4.781V15.586h-6.311v11.268h-4.781V1.154h4.781v10.213h6.311V1.154h4.781V26.853z"/>
	<path fill="#333" d="M131.771,26.853l-1.477-6.486h-6.697l-1.477,6.486h-4.781l6.363-25.805h6.486l6.381,25.805H131.771z
		 M129.398,16.131l-1.371-5.977c-0.082-0.363-0.267-1.274-0.554-2.733s-0.46-2.435-0.519-2.927c-0.152,1.008-0.346,2.118-0.58,3.331
		s-0.844,3.981-1.828,8.306H129.398z"/>
</g>
<g enable-background="new    ">
	<path fill="#333333" d="M57.186,49.428H44.752v-3.047l4.184-4.23c1.195-1.25,1.977-2.104,2.344-2.561s0.623-0.85,0.768-1.178
		s0.217-0.672,0.217-1.031c0-0.445-0.145-0.797-0.434-1.055s-0.695-0.387-1.219-0.387c-0.539,0-1.084,0.154-1.635,0.463
		s-1.174,0.764-1.869,1.365l-2.543-2.977c0.883-0.789,1.625-1.354,2.227-1.693s1.256-0.6,1.963-0.779s1.502-0.27,2.385-0.27
		c1.109,0,2.1,0.195,2.971,0.586s1.547,0.947,2.027,1.67s0.721,1.533,0.721,2.432c0,0.672-0.084,1.293-0.252,1.863
		s-0.428,1.131-0.779,1.682s-0.818,1.131-1.4,1.74s-1.822,1.766-3.721,3.469v0.117h6.48V49.428z"/>
	<path fill="#333333" d="M69.138,49.428H64.44v-9.07c0-1.102,0.023-2.109,0.07-3.023c-0.289,0.352-0.648,0.719-1.078,1.102
		l-1.945,1.605l-2.402-2.953l5.883-4.793h4.171V49.428z"/>
</g>
</svg>
