<svg xmlns="http://www.w3.org/2000/svg" viewBox="0 0 464.36 404.07">
    <defs>
        <style>
            .a {
                fill: none;
                stroke: #fff;
                stroke-linecap: round;
                stroke-linejoin: round;
                stroke-width: 14.36px;
            }
        </style>
    </defs>
    <circle class="a" cx="196.42" cy="45.68" r="38.5" />
    <path class="a" d="M244.33,99.65s-.82,20.35-24.09,24" transform="translate(-23.82 -53.96)" />
    <path class="a" d="M189.56,406.19s35.2,13.94,91.65-1.82" transform="translate(-23.82 -53.96)" />
    <path class="a"
        d="M207.18,410.36s6,40.74-17.62,40.15c0,0-51,4.25-55.23-17,0,0-8.5-13.38-5.46-48,0,0-27.93-6.08-44.92-35.82,0,0-23.67-24.86-21.85-85,0,0,3.64-40.66,34.59-66.74,0,0,18.82-24.9,76.48-34.59,0,0,75.87-14.57,140.82,5.44"
        transform="translate(-23.82 -53.96)" />
    <path class="a"
        d="M267.86,408.11S260,442,297.6,438.36l38.24-1.83s21.24-10.92-1.82-41.26c0,0,26.7,2.43,49.16-6.07,0,0,27.92-12.15,31-41.89"
        transform="translate(-23.82 -53.96)" />
    <path class="a"
        d="M395.32,340s29.14,11.52,44.31,7.27c0,0,42.68-7.91,41.07-79.5,0,0,5.67-12.74-32-12.74,0,0-7.29,1.19-21.85-15.81,0,0-17.61-36.41-46.14-46.1"
        transform="translate(-23.82 -53.96)" />
    <path class="a"
        d="M380.75,216.19S371,181,391.68,168.86c0,0,20-16.4-10.93-26.09,0,0-31.56-9.05-51.59,15.51,0,0-20,19.08-24.28,25.15"
        transform="translate(-23.82 -53.96)" />
    <path class="a" d="M62,253.83s-51.49,13.35-21.75,41.3l8.5,28.51s-.2,4.84,13.25,8.5l10.42-1.83"
        transform="translate(-23.82 -53.96)" />
    <path class="a" d="M110.05,216.19S79.1,239.9,93.66,278.73" transform="translate(-23.82 -53.96)" />
    <path class="a" d="M446.31,324.87s-10.93-20.65,10.92-46.14" transform="translate(-23.82 -53.96)" />
    <ellipse class="a" cx="371.8" cy="199.49" rx="8.8" ry="17.23" />
    <path class="a" d="M170.75,164l5.46,16.4L270.89,178l6.68-16.36" transform="translate(-23.82 -53.96)" />
    <path class="a" d="M351.62,203.44s-3.64-40,35.2-57" transform="translate(-23.82 -53.96)" />
</svg>
